<svg xmlns="http://www.w3.org/2000/svg" xmlns:xlink="http://www.w3.org/1999/xlink" width="1024" zoomAndPan="magnify" viewBox="0 0 768 576" height="768" preserveAspectRatio="xMidYMid meet" version="1.0"><defs><clipPath id="364f5e5af8"><path d="M 359 169.660156 L 436 169.660156 L 436 260 L 359 260 Z M 359 169.660156 " clip-rule="nonzero"/></clipPath><clipPath id="b9303c9a14"><path d="M 469.40625 299.007812 L 621.476562 299.007812 L 621.476562 475 L 469.40625 475 Z M 469.40625 299.007812 " clip-rule="nonzero"/></clipPath><clipPath id="678be0ac92"><path d="M 307 3.75 L 446 3.75 L 446 91 L 307 91 Z M 307 3.75 " clip-rule="nonzero"/></clipPath><clipPath id="b2e6618ec3"><path d="M 303.75 86 L 328 86 L 328 125 L 303.75 125 Z M 303.75 86 " clip-rule="nonzero"/></clipPath><clipPath id="5fbcc69dd3"><path d="M 314 81 L 339 81 L 339 129.75 L 314 129.75 Z M 314 81 " clip-rule="nonzero"/></clipPath><clipPath id="1c29cb8552"><path d="M 424 86 L 448.5 86 L 448.5 125 L 424 125 Z M 424 86 " clip-rule="nonzero"/></clipPath><clipPath id="fe9d1a7706"><path d="M 413 81 L 438 81 L 438 129.75 L 413 129.75 Z M 413 81 " clip-rule="nonzero"/></clipPath><clipPath id="38128e846a"><path d="M 209.207031 98 L 212 98 L 212 109 L 209.207031 109 Z M 209.207031 98 " clip-rule="nonzero"/></clipPath><clipPath id="da98ae0dff"><path d="M 247 59.824219 L 250 59.824219 L 250 146.824219 L 247 146.824219 Z M 247 59.824219 " clip-rule="nonzero"/></clipPath><clipPath id="48c370dcc2"><path d="M 301 98 L 303.707031 98 L 303.707031 109 L 301 109 Z M 301 98 " clip-rule="nonzero"/></clipPath><clipPath id="adba34b53a"><path d="M 448.382812 95 L 452 95 L 452 111 L 448.382812 111 Z M 448.382812 95 " clip-rule="nonzero"/></clipPath><clipPath id="a96b89093b"><path d="M 509 34.703125 L 513 34.703125 L 513 171.953125 L 509 171.953125 Z M 509 34.703125 " clip-rule="nonzero"/></clipPath><clipPath id="f699302dd2"><path d="M 594 95 L 597.632812 95 L 597.632812 111 L 594 111 Z M 594 95 " clip-rule="nonzero"/></clipPath></defs><path fill="#000000" d="M 767.210938 398.226562 C 678.195312 417.191406 610.375 413.679688 555.792969 398.320312 C 540.292969 397.851562 526.09375 396.285156 512.546875 393.820312 C 497.699219 394.582031 483.769531 394.121094 471.054688 392.636719 C 456.765625 394.175781 443.714844 394.492188 431.5625 393.679688 C 378.058594 401.984375 341.175781 389.75 314.003906 368.984375 C 287.679688 348.871094 269.726562 320.210938 252.957031 294.472656 C 234.183594 265.503906 217.652344 240.003906 195.890625 235.597656 C 195.730469 235.566406 195.488281 235.527344 195.328125 235.472656 C 192.164062 241.578125 188.984375 248.09375 185.71875 254.914062 C 169.121094 288.796875 149.351562 329.347656 116.859375 359.546875 C 88.773438 385.65625 51.695312 403.324219 1.1875 401.914062 L 1.1875 398.574219 C 51.230469 400.035156 88.144531 383.613281 115.976562 357.683594 C 148.222656 327.640625 167.898438 287.402344 184.320312 253.730469 C 187.410156 247.222656 190.40625 240.988281 193.394531 235.121094 C 191.058594 234.746094 188.960938 234.484375 186.851562 234.339844 C 182.722656 242.074219 178.550781 250.878906 174.046875 260.179688 C 159.546875 290.667969 142.304688 326.691406 111.800781 352.644531 C 85.71875 374.839844 50.554688 388.925781 1.1875 384.914062 L 1.1875 381.4375 C 50.175781 385.554688 85.136719 372.789062 110.996094 350.75 C 141.1875 325.007812 158.242188 289.261719 172.5625 259.027344 C 176.804688 250.136719 180.871094 241.761719 184.824219 234.214844 C 182.636719 234.128906 180.433594 234.214844 178.472656 234.429688 C 172.929688 243.078125 168.039062 253.773438 162.644531 265.320312 C 149.984375 292.441406 135.296875 324.210938 107.039062 345.730469 C 82.847656 364.15625 49.34375 374.582031 1.1875 368 L 1.1875 365.015625 C 49.027344 371.640625 82.257812 362.144531 106.234375 343.820312 C 134.175781 322.472656 148.757812 291.058594 161.242188 264.199219 C 166.28125 253.296875 170.894531 243.203125 176.015625 234.746094 C 173.964844 235.085938 171.992188 235.589844 170.25 236.210938 C 162.945312 244.773438 157.527344 256.910156 151.433594 270.316406 C 140.835938 294.109375 128.378906 321.566406 102.1875 338.804688 C 79.855469 353.5 48.1875 360.34375 1.1875 351.214844 L 1.1875 348.015625 C 47.808594 357.214844 79.351562 351.425781 101.453125 336.886719 C 127.335938 319.855469 139.527344 292.71875 150.027344 269.199219 C 155.402344 257.289062 160.355469 246.316406 166.433594 237.890625 C 153.785156 244.417969 147.5625 258.898438 140.492188 275.171875 C 131.617188 295.71875 121.59375 318.9375 97.390625 331.886719 C 76.890625 342.859375 46.855469 346.1875 1.1875 334.523438 L 1.1875 331.550781 C 46.679688 343.300781 76.316406 340.769531 96.578125 329.960938 C 120.535156 317.179688 130.386719 294.332031 139.167969 274.082031 C 147.042969 255.84375 153.910156 239.703125 169.464844 233.992188 C 173.601562 229.1875 178.425781 225.503906 184.15625 223.335938 C 188.570312 218.3125 193.417969 214.539062 199.25 212.375 C 203.859375 207.152344 208.898438 203.261719 214.578125 201.160156 C 224.914062 189.511719 244.363281 185.691406 261.621094 192.152344 C 319.851562 214.058594 372.53125 283.984375 424.195312 324.867188 C 446.464844 342.492188 470.765625 359.113281 498.039062 372.738281 C 530.832031 360.574219 569.296875 342.3125 615.015625 316.082031 C 657.804688 291.535156 708.109375 257.246094 767.210938 215.230469 L 767.210938 221.886719 C 709.558594 262.140625 660.433594 293.421875 618.265625 317.605469 C 572.699219 343.734375 534.316406 362.085938 501.503906 374.433594 C 506.394531 376.8125 511.21875 379.085938 516.28125 381.253906 C 547.25 373.320312 583.183594 360.136719 625.480469 340.160156 C 665.449219 321.277344 712.78125 293.480469 767.210938 259.601562 L 767.210938 265.632812 C 714.261719 298.136719 668.816406 322.984375 629.351562 341.679688 C 587.386719 361.554688 551.507812 374.867188 520.75 383.078125 C 525.667969 385.085938 530.679688 386.980469 535.851562 388.828125 C 564.8125 385.175781 598.207031 377.167969 636.742188 363.53125 C 673.6875 350.460938 717.824219 329.8125 767.210938 304.21875 L 767.210938 309.378906 C 719.429688 333.863281 677.886719 351.96875 641.640625 364.96875 C 603.664062 378.585938 570.871094 386.855469 542.015625 390.941406 C 546.585938 392.484375 551.316406 393.941406 556.296875 395.289062 C 609.785156 396.746094 677.953125 383.082031 767.210938 348.527344 L 767.210938 353.488281 C 684.007812 385.347656 619.859375 397.945312 568.179688 398.40625 C 620.46875 411.007812 684.859375 410.316406 767.210938 392.636719 Z M 543.800781 394.714844 C 540.984375 393.769531 538.246094 392.824219 535.4375 391.820312 C 532.152344 392.222656 528.871094 392.570312 525.679688 392.878906 C 531.597656 393.660156 537.6875 394.292969 543.800781 394.714844 Z M 203.316406 211.167969 C 204.640625 210.882812 206.035156 210.691406 207.351562 210.546875 C 208.589844 208.773438 209.832031 207.0625 211.066406 205.429688 C 208.367188 206.902344 205.808594 208.84375 203.316406 211.167969 Z M 500.105469 391.246094 C 497.636719 390.640625 495.253906 390.039062 492.792969 389.40625 C 489.976562 389.933594 487.15625 390.402344 484.351562 390.839844 C 489.53125 391.121094 494.730469 391.253906 500.105469 391.246094 Z M 486.265625 387.605469 C 482.203125 386.382812 478.226562 385.074219 474.34375 383.691406 C 469.042969 385.269531 463.921875 386.664062 458.96875 387.9375 C 463.007812 388.648438 467.054688 389.238281 471.195312 389.691406 C 476.148438 389.160156 481.042969 388.46875 486.265625 387.605469 Z M 469.84375 382.082031 C 439.027344 370.570312 412.324219 354.347656 389.277344 335.488281 C 366.855469 317.144531 347.605469 296.109375 328.773438 276.710938 C 313.039062 260.425781 297.789062 244.886719 282.671875 232.023438 C 267.851562 219.414062 252.792969 209.414062 236.890625 203.988281 C 228.636719 201.269531 221.523438 201.308594 215.261719 203.542969 C 213.429688 205.605469 211.664062 207.914062 209.890625 210.429688 C 213.976562 210.347656 218.511719 210.9375 223.574219 212.34375 C 237.585938 216.578125 250.617188 225.648438 263.398438 237.503906 C 276.355469 249.519531 289.117188 264.355469 302.472656 280.007812 C 320.835938 301.269531 340.371094 324.035156 363.773438 343.261719 C 387.765625 362.980469 416.273438 379.230469 452.378906 386.695312 C 458.046875 385.367188 463.886719 383.847656 469.84375 382.082031 Z M 199.9375 214.710938 C 198.199219 216.691406 196.453125 218.90625 194.859375 221.277344 C 196.738281 221.199219 198.691406 221.214844 200.804688 221.414062 C 202.421875 218.542969 203.957031 215.839844 205.648438 213.273438 C 203.675781 213.589844 201.769531 214.097656 199.9375 214.710938 Z M 193.011719 223.855469 C 191.414062 226.40625 189.804688 229.105469 188.195312 231.992188 C 190.214844 232.164062 192.234375 232.472656 194.574219 232.847656 C 196.203125 229.722656 197.832031 226.675781 199.371094 223.769531 C 197.179688 223.652344 195.058594 223.671875 193.011719 223.855469 Z M 186.164062 231.84375 C 187.6875 229.148438 189.125 226.585938 190.632812 224.164062 C 188.664062 224.488281 186.761719 224.976562 184.9375 225.617188 C 183.289062 227.535156 181.722656 229.585938 180.144531 231.824219 C 182.023438 231.734375 184.054688 231.734375 186.164062 231.84375 Z M 192.324219 221.457031 C 193.472656 219.734375 194.621094 218.132812 195.761719 216.574219 C 193.070312 218.042969 190.527344 219.898438 188.214844 222.144531 C 189.53125 221.820312 190.929688 221.589844 192.324219 221.457031 Z M 218.65625 199.988281 C 224.285156 198.8125 230.476562 199.226562 237.53125 201.546875 C 253.683594 207 268.808594 217.089844 283.804688 229.730469 C 299.152344 242.671875 314.410156 258.261719 330.304688 274.664062 C 349.4375 294.324219 369.621094 315.089844 392.625 333.621094 C 416.171875 352.601562 442.777344 369.46875 474.574219 380.6875 C 480.863281 378.761719 487.347656 376.546875 494.175781 374.085938 C 467.535156 360.449219 442.890625 344.953125 420.925781 327.46875 C 370.015625 286.953125 318.261719 216.226562 260.890625 194.632812 C 247.605469 189.691406 227.84375 191.207031 218.65625 199.988281 Z M 478.921875 382.226562 C 483.507812 383.726562 488.183594 385.144531 493.109375 386.425781 C 499.078125 385.296875 505.3125 383.960938 511.648438 382.394531 C 506.96875 380.300781 502.300781 378.09375 497.710938 375.84375 C 491.132812 378.160156 484.894531 380.320312 478.921875 382.226562 Z M 499.652344 388.105469 C 503.964844 389.109375 508.375 390.03125 512.707031 390.828125 C 517.953125 390.5625 523.609375 390.152344 529.207031 389.554688 C 524.730469 387.886719 520.257812 386.132812 515.949219 384.300781 C 510.417969 385.710938 504.90625 386.988281 499.652344 388.105469 Z M 458.449219 390.8125 C 456.273438 390.433594 454.261719 390.03125 452.167969 389.632812 C 449.824219 390.1875 447.402344 390.710938 445.0625 391.210938 C 449.40625 391.230469 453.761719 391.074219 458.449219 390.8125 Z M 445.992188 388.195312 C 411.386719 379.910156 383.246094 364.453125 360.023438 344.941406 C 337.390625 325.929688 318.960938 302.777344 300.960938 281.9375 C 287.679688 266.402344 275.078125 251.628906 262.277344 239.703125 C 249.660156 227.949219 236.710938 218.980469 223.023438 214.777344 C 217.484375 213.234375 212.539062 212.714844 208.113281 213.019531 C 206.332031 215.691406 204.625 218.585938 202.824219 221.621094 C 205.011719 221.910156 207.433594 222.3125 209.84375 222.910156 C 222.277344 226.109375 233.539062 234.316406 244.480469 245.53125 C 255.453125 256.777344 266.242188 271.128906 277.59375 286.242188 C 294.652344 308.910156 313.171875 333.523438 336.746094 353.070312 C 360.914062 373.117188 391.117188 388.179688 431.917969 390.839844 C 436.40625 390.117188 441.074219 389.214844 445.992188 388.195312 Z M 177.695312 232.058594 C 178.75 230.4375 179.886719 228.859375 180.9375 227.378906 C 178.261719 228.8125 175.726562 230.660156 173.507812 232.765625 C 174.824219 232.484375 176.300781 232.226562 177.695312 232.058594 Z M 419.210938 392.453125 C 382.410156 387.566406 354.246094 373.277344 331.671875 353.667969 C 309.578125 334.472656 292.433594 309.761719 276.101562 288.050781 C 264.902344 273.066406 254.167969 258.867188 243.371094 247.695312 C 232.652344 236.597656 221.488281 228.453125 209.304688 225.316406 C 206.574219 224.664062 203.90625 224.203125 201.480469 223.921875 C 199.851562 226.886719 198.140625 229.996094 196.503906 233.214844 C 218.835938 237.777344 235.433594 263.535156 254.507812 292.824219 C 270.484375 317.308594 288.183594 344.359375 312.730469 364.089844 C 337.933594 384.34375 370.898438 397.398438 419.210938 392.453125 Z M 419.210938 392.453125 " fill-opacity="1" fill-rule="nonzero"/><path fill="#000000" d="M 52.480469 400.410156 C 52.929688 400.394531 53.453125 400.320312 53.976562 400.3125 C 54.132812 400.027344 54.136719 399.777344 54.21875 399.484375 C 55.414062 396.023438 57.632812 393.746094 59.414062 394.433594 C 59.859375 394.609375 60.226562 394.9375 60.515625 395.441406 C 60.515625 395.441406 60.589844 395.457031 60.589844 395.472656 C 60.589844 395.476562 60.589844 395.425781 60.589844 395.425781 C 61.5 385.011719 62.308594 376.371094 63.304688 365.722656 C 63.308594 365.660156 63.382812 365.644531 63.382812 365.644531 C 63.679688 365.648438 63.910156 365.558594 64.210938 365.539062 C 64.289062 365.53125 64.222656 365.523438 64.210938 365.625 C 63.113281 377.246094 62.210938 386.820312 61.199219 398.226562 C 61.109375 398.730469 61.101562 399.214844 61.09375 399.65625 C 61.613281 399.648438 62.289062 399.558594 62.886719 399.511719 L 62.886719 399.597656 C 62.875 400.183594 62.785156 400.773438 62.769531 401.34375 C 62.769531 401.386719 62.695312 401.378906 62.695312 401.378906 C 62.09375 401.511719 61.347656 401.535156 60.671875 401.554688 C 60.59375 401.789062 60.589844 401.996094 60.507812 402.285156 C 59.3125 405.761719 57.023438 407.925781 55.324219 407.289062 C 53.992188 406.722656 53.441406 404.628906 53.640625 402.140625 C 53.195312 402.132812 52.667969 402.144531 52.292969 402.222656 C 52.292969 402.222656 52.214844 402.199219 52.21875 402.140625 C 52.300781 401.617188 52.320312 401.074219 52.40625 400.488281 C 52.414062 400.445312 52.480469 400.410156 52.480469 400.410156 Z M 52.480469 400.410156 " fill-opacity="1" fill-rule="nonzero"/><path fill="#000000" d="M 72.175781 387.160156 C 70.472656 386.3125 70.039062 382.804688 71.253906 379.402344 C 72.613281 376.125 74.925781 374.117188 76.636719 374.929688 C 77.152344 375.160156 77.445312 375.578125 77.730469 376.148438 C 79.066406 365.917969 80.265625 355.582031 81.617188 345.121094 C 81.617188 345.082031 81.617188 345.035156 81.617188 345.035156 C 81.917969 345.015625 82.226562 345 82.527344 345.046875 C 82.527344 345.046875 82.527344 345.046875 82.527344 345.085938 C 82.175781 354.84375 86.902344 360.523438 84.089844 369.554688 C 83.820312 370.421875 83.21875 372.015625 82.550781 373.3125 C 82.5 373.417969 82.472656 373.417969 82.476562 373.351562 C 82.402344 373.289062 82.332031 373.15625 82.410156 372.988281 C 82.828125 371.6875 83.394531 370.175781 83.570312 369.34375 C 83.921875 367.609375 84.144531 366.191406 84.148438 365.003906 C 84.175781 359.816406 81.671875 359.113281 81.15625 356.046875 C 80.261719 363.71875 79.222656 371.289062 78.332031 378.851562 C 78.066406 380.34375 78.039062 381.304688 77.476562 382.78125 C 76.183594 386.066406 73.882812 388.054688 72.175781 387.160156 Z M 72.175781 387.160156 " fill-opacity="1" fill-rule="nonzero"/><path fill="#000000" d="M 502.492188 321.046875 C 495.46875 315.8125 495.949219 305.925781 503.445312 299.199219 C 510.878906 292.589844 522.46875 291.285156 529.515625 296.386719 C 531.457031 297.808594 532.894531 299.589844 533.785156 301.574219 C 539.695312 289.019531 545.761719 276.238281 551.757812 263.394531 C 557.824219 250.40625 564.148438 237.121094 570.65625 223.769531 C 570.734375 223.621094 570.867188 223.640625 570.9375 223.664062 C 572.207031 224.125 573.496094 224.523438 574.898438 224.957031 C 574.96875 224.980469 575.085938 225.042969 574.941406 225.132812 C 570.972656 238.386719 573.640625 251.019531 575 262.824219 C 576.347656 274.597656 576.339844 285.59375 566.976562 295.15625 C 565.027344 297.144531 561.355469 300.296875 557.367188 302.558594 C 557.066406 302.726562 556.5625 302.695312 556.464844 302.367188 C 556.175781 302.066406 556.359375 301.652344 556.523438 301.355469 C 559.476562 298.558594 562.867188 295.496094 564.28125 293.503906 C 567.125 289.488281 569.039062 286.019531 569.835938 282.769531 C 573.269531 268.808594 561.851562 262.328125 561.484375 253.148438 C 552.363281 272.335938 543.386719 291.210938 534.621094 309.71875 C 532.894531 313.375 531.972656 315.722656 528.417969 318.691406 C 520.878906 325.164062 509.453125 326.191406 502.492188 321.046875 Z M 502.492188 321.046875 " fill-opacity="1" fill-rule="nonzero"/><path fill="#000000" d="M 101.984375 344.132812 C 104.773438 344.726562 106.089844 348.292969 104.902344 351.898438 C 103.722656 355.453125 100.695312 357.773438 98.066406 357.171875 C 97.3125 357.007812 96.707031 356.65625 96.207031 356.175781 C 96.195312 356.164062 96.207031 356.164062 96.207031 356.175781 C 96.207031 356.183594 96.203125 356.222656 96.203125 356.242188 C 96.476562 366.546875 96.828125 376.777344 97.246094 386.996094 C 97.25 387.035156 97.167969 387.058594 97.167969 387.058594 C 96.71875 387.105469 96.339844 387.132812 95.964844 387.152344 C 95.890625 387.15625 95.894531 387.128906 95.894531 387.089844 C 95.5 375.921875 95.101562 364.722656 94.777344 353.472656 C 94.753906 351.953125 94.628906 350.996094 95.136719 349.417969 C 96.308594 345.90625 99.347656 343.539062 101.984375 344.132812 Z M 101.984375 344.132812 " fill-opacity="1" fill-rule="nonzero"/><path fill="#000000" d="M 202.871094 364.699219 C 199.832031 363.996094 198.371094 360.347656 199.695312 356.667969 C 201.019531 353.078125 204.464844 350.722656 207.449219 351.390625 C 208.261719 351.5625 208.921875 351.960938 209.566406 352.523438 C 209.261719 341.757812 209.105469 330.960938 208.882812 320.078125 C 208.882812 320.054688 208.964844 320.007812 208.964844 320.007812 C 209.191406 319.984375 209.417969 319.964844 209.722656 319.941406 C 209.953125 319.921875 210.105469 319.898438 210.335938 319.878906 C 213.234375 326.394531 219.777344 329.910156 218.359375 337.375 C 218.15625 338.253906 217.796875 339.730469 217.242188 341.015625 C 217.1875 341.140625 217.007812 341.175781 216.933594 341.125 C 216.785156 341.074219 216.792969 340.953125 216.800781 340.8125 C 217.101562 339.5625 217.410156 338.140625 217.453125 337.355469 C 217.46875 335.792969 217.386719 334.527344 217.070312 333.523438 C 215.722656 329.199219 212.007812 329.304688 210.472656 326.894531 C 210.46875 328.410156 210.535156 329.898438 210.601562 331.363281 C 210.589844 331.621094 210.574219 331.882812 210.636719 332.125 C 213.449219 338.617188 219.972656 342.179688 218.5625 349.597656 C 218.433594 350.453125 218.0625 351.921875 217.449219 353.179688 C 217.375 353.324219 217.285156 353.359375 217.140625 353.3125 C 217.066406 353.257812 217.074219 353.113281 217.082031 352.992188 C 217.304688 351.769531 217.6875 350.347656 217.65625 349.585938 C 217.667969 348.019531 217.59375 346.734375 217.347656 345.773438 C 215.933594 341.410156 212.226562 341.527344 210.699219 339.101562 C 210.804688 343.929688 210.914062 348.734375 211.023438 353.523438 C 210.988281 354.117188 210.953125 354.703125 211 355.273438 C 211.058594 356.863281 211.152344 357.863281 210.535156 359.496094 C 209.207031 363.0625 205.765625 365.414062 202.871094 364.699219 Z M 202.871094 364.699219 " fill-opacity="1" fill-rule="nonzero"/><path fill="#000000" d="M 39.726562 403.980469 C 37.433594 402.609375 36.671875 398.984375 38.0625 396.003906 C 39.457031 393.117188 42.472656 391.851562 44.773438 393.175781 C 45.363281 393.503906 45.839844 394.058594 46.238281 394.613281 C 46.285156 394.675781 46.316406 394.652344 46.316406 394.636719 C 46.316406 394.628906 46.386719 394.621094 46.390625 394.578125 C 47.242188 384.898438 48.113281 375.164062 49.054688 365.398438 C 49.054688 365.378906 49.058594 365.347656 49.132812 365.359375 C 49.4375 365.421875 49.808594 365.503906 50.183594 365.578125 C 50.183594 365.578125 50.261719 365.601562 50.253906 365.640625 C 49.222656 376.335938 48.257812 386.972656 47.308594 397.527344 C 47.128906 398.964844 47.113281 399.878906 46.492188 401.175781 C 45.09375 404.070312 42.085938 405.3125 39.726562 403.980469 Z M 39.898438 402.351562 C 41.75 403.296875 44.457031 402.140625 45.695312 399.921875 C 46.929688 397.71875 46.519531 395.734375 44.589844 394.8125 C 42.738281 393.878906 40.027344 395.011719 38.863281 397.25 C 37.707031 399.484375 38.050781 401.40625 39.898438 402.351562 Z M 39.898438 402.351562 " fill-opacity="1" fill-rule="nonzero"/><path fill="#000000" d="M 135.535156 353.167969 C 132.222656 354.460938 129.460938 351.640625 129.496094 347.007812 C 129.449219 342.464844 132.070312 337.800781 135.242188 336.507812 C 136.171875 336.128906 136.933594 336.089844 137.761719 336.273438 C 133.566406 325.46875 129.410156 314.730469 125.335938 303.964844 C 125.320312 303.925781 125.320312 303.871094 125.339844 303.855469 C 125.804688 303.496094 126.222656 303.179688 126.6875 302.820312 C 126.703125 302.804688 126.761719 302.820312 126.761719 302.839844 C 131.988281 311.867188 143.105469 311.152344 143.988281 322.625 C 144.078125 323.800781 144.125 325.875 143.757812 327.847656 C 143.726562 328.027344 143.671875 328.164062 143.515625 328.144531 C 143.367188 328.144531 143.21875 328.007812 143.222656 327.828125 C 143.070312 326.136719 143.082031 324.144531 142.894531 323.152344 C 142.449219 321.144531 141.96875 319.621094 141.265625 318.539062 C 138.242188 313.902344 133.714844 316.296875 131.132812 314.160156 C 134.164062 322.121094 137.1875 330.078125 140.273438 338.058594 C 140.886719 339.644531 141.300781 340.613281 141.289062 342.671875 C 141.316406 347.253906 138.691406 351.917969 135.535156 353.167969 Z M 135.535156 353.167969 " fill-opacity="1" fill-rule="nonzero"/><path fill="#000000" d="M 249.527344 337.011719 C 244.941406 337.316406 242.105469 332.960938 243.308594 327.4375 C 244.347656 321.996094 248.855469 317.351562 253.3125 316.976562 C 254.464844 316.863281 255.515625 317.082031 256.402344 317.527344 C 256.472656 317.5625 256.433594 317.554688 256.480469 317.527344 C 256.527344 317.5 256.570312 317.453125 256.5625 317.425781 C 253.875 302.96875 251.230469 288.503906 248.664062 274.011719 C 248.65625 273.964844 248.675781 273.9375 248.75 273.910156 C 249.386719 273.679688 250.015625 273.390625 250.648438 273.113281 C 250.648438 273.113281 250.714844 273.136719 250.722656 273.1875 C 253.574219 289.039062 256.5 304.855469 259.316406 320.679688 C 259.707031 322.808594 259.992188 324.140625 259.523438 326.59375 C 258.386719 332.039062 253.886719 336.675781 249.527344 337.011719 Z M 249.527344 337.011719 " fill-opacity="1" fill-rule="nonzero"/><path fill="#000000" d="M 326.847656 224.554688 C 332.394531 225.035156 334.867188 230.882812 332.324219 237.324219 C 329.804688 243.5625 323.5625 248.097656 318.273438 247.542969 C 316.816406 247.40625 315.464844 246.871094 314.523438 246.054688 C 314.695312 263.558594 314.945312 280.980469 315.109375 298.28125 C 315.109375 298.332031 315.097656 298.375 315.023438 298.386719 C 314.171875 298.476562 313.394531 298.578125 312.625 298.679688 C 312.625 298.679688 312.546875 298.65625 312.554688 298.601562 C 310.035156 282.75 294.289062 275.167969 298.871094 259.652344 C 299.355469 258.019531 300.386719 255.304688 301.855469 252.898438 C 301.976562 252.703125 302.191406 252.601562 302.410156 252.714844 C 302.558594 252.8125 302.617188 253.085938 302.601562 253.3125 C 301.882812 255.640625 300.90625 258.304688 300.722656 259.730469 C 300.335938 262.71875 300.277344 265.074219 300.703125 267.039062 C 302.5 275.332031 309.898438 275.644531 312.367188 280.433594 C 312.214844 267.621094 312.066406 254.765625 311.992188 241.824219 C 311.957031 239.273438 311.855469 237.621094 312.839844 234.875 C 315.265625 228.671875 321.527344 224.085938 326.847656 224.554688 Z M 326.847656 224.554688 " fill-opacity="1" fill-rule="nonzero"/><path fill="#000000" d="M 607.53125 384.015625 C 597.367188 381.738281 593.367188 371.519531 598.804688 361.429688 C 604.277344 351.410156 616.859375 344.945312 627.117188 347.035156 C 629.855469 347.605469 632.230469 348.675781 634.074219 350.167969 C 634.117188 350.203125 634.09375 350.25 634.152344 350.226562 C 634.214844 350.203125 634.359375 350.085938 634.363281 350.027344 C 635.554688 334.609375 636.753906 318.957031 637.949219 303.121094 C 639.15625 287.121094 640.300781 270.835938 641.5 254.328125 C 641.507812 254.246094 641.585938 254.144531 641.652344 254.140625 C 643.382812 254.011719 645.097656 253.820312 646.933594 253.59375 C 646.996094 253.585938 647.0625 253.722656 647.054688 253.808594 C 645.601562 271.941406 644.144531 289.78125 642.90625 307.253906 C 641.683594 324.476562 640.273438 341.5625 639.019531 358.328125 C 638.625 362.808594 638.53125 365.703125 635.957031 370.210938 C 630.277344 380.164062 617.601562 386.242188 607.53125 384.015625 Z M 607.53125 384.015625 " fill-opacity="1" fill-rule="nonzero"/><g clip-path="url(#364f5e5af8)"><path fill="#000000" d="M 366.230469 259.128906 C 360.582031 258.296875 358.175781 252.207031 360.9375 245.707031 C 363.691406 239.351562 370.507812 234.816406 376.261719 235.519531 C 377.777344 235.738281 379.050781 236.296875 380.0625 237.082031 C 380.117188 237.121094 380.160156 237.101562 380.195312 237.070312 C 380.238281 237.046875 380.207031 237.027344 380.207031 236.980469 C 380.457031 226.128906 380.699219 215.1875 381.015625 204.191406 C 381.109375 200.886719 381.207031 197.585938 381.304688 194.234375 C 381.316406 192.570312 381.398438 190.90625 381.417969 189.242188 C 381.464844 186.410156 381.519531 183.574219 381.574219 180.691406 C 381.550781 180.210938 381.59375 179.726562 381.640625 179.238281 C 399.078125 176.160156 416.941406 172.964844 435.433594 169.660156 C 435.445312 170.214844 435.394531 170.722656 435.414062 171.21875 C 435.25 174.203125 435.160156 177.179688 435.070312 180.132812 C 435.03125 181.859375 434.925781 183.617188 434.886719 185.34375 C 434.746094 188.804688 434.597656 192.292969 434.597656 195.722656 C 434.074219 209 433.632812 222.222656 433.191406 235.351562 C 433.105469 238.171875 433.195312 239.972656 431.832031 242.96875 C 428.699219 249.640625 421.316406 254.308594 415.144531 253.441406 C 408.96875 252.613281 406.511719 246.304688 409.550781 239.542969 C 412.523438 232.90625 420.003906 228.15625 426.082031 228.882812 C 427.734375 229.058594 429.074219 229.652344 430.203125 230.464844 C 430.257812 230.503906 430.292969 230.496094 430.335938 230.480469 C 430.378906 230.460938 430.347656 230.40625 430.347656 230.359375 C 430.738281 219.035156 431.128906 207.648438 431.519531 196.203125 C 415.136719 198.792969 399.367188 201.304688 383.882812 203.734375 C 383.53125 216.480469 383.1875 229.15625 382.914062 241.78125 C 382.867188 244.496094 382.976562 246.230469 381.644531 249.113281 C 378.800781 255.523438 372.019531 259.9375 366.230469 259.128906 Z M 431.808594 185.84375 C 431.90625 184.117188 431.945312 182.367188 432.050781 180.644531 C 415.53125 183.449219 399.769531 186.136719 384.226562 188.746094 C 384.207031 190.433594 384.121094 192.101562 384.105469 193.765625 C 399.636719 191.210938 415.371094 188.589844 431.808594 185.84375 Z M 431.808594 185.84375 " fill-opacity="1" fill-rule="nonzero"/></g><path fill="#000000" d="M 5.875 360.242188 C 4.597656 359.113281 5.289062 356.972656 6.65625 355.164062 C 9.101562 351.929688 12.964844 350.960938 16.136719 351.882812 C 20.894531 353.257812 22.851562 361.273438 21.402344 370.300781 C 18.609375 387.382812 9.84375 399.253906 0.71875 405.5 C 0.792969 405.761719 0.867188 406.027344 0.941406 406.273438 C 10.949219 401.429688 25.792969 386.457031 27.101562 372.148438 C 28.207031 360.148438 23.859375 351.863281 16.152344 350.269531 C 9.195312 348.828125 3.109375 354.191406 2.695312 362.292969 C 2.371094 367.488281 4.6875 371.796875 7.691406 372.125 C 9.796875 372.339844 12.210938 371.742188 12.691406 367.433594 C 13.09375 363.863281 12.210938 361.367188 9.871094 360.582031 C 8.519531 360.128906 7.300781 361.640625 5.875 360.242188 Z M 32.238281 376.402344 C 33.703125 376.667969 34.765625 378.660156 34.585938 380.808594 C 34.480469 382.976562 33.109375 384.515625 31.683594 384.246094 C 30.191406 383.972656 29.164062 382.007812 29.339844 379.847656 C 29.515625 377.6875 30.777344 376.140625 32.238281 376.402344 Z M 33.445312 359.394531 C 34.953125 359.640625 35.984375 361.628906 35.800781 363.804688 C 35.695312 365.996094 34.351562 367.570312 32.886719 367.308594 C 31.421875 367.050781 30.390625 365.09375 30.53125 362.902344 C 30.675781 360.707031 31.9375 359.140625 33.445312 359.394531 Z M 33.445312 359.394531 " fill-opacity="1" fill-rule="evenodd"/><path fill="#000000" d="M 431.277344 340.601562 C 425.34375 336.765625 424.980469 328.8125 430.269531 323.078125 C 435.558594 317.449219 444.496094 315.832031 450.449219 319.570312 C 452.027344 320.542969 453.171875 321.820312 454.042969 323.214844 C 454.089844 323.289062 454.152344 323.269531 454.1875 323.269531 C 454.226562 323.269531 454.265625 323.210938 454.277344 323.1875 C 461.417969 302.671875 468.652344 281.886719 476.066406 260.734375 C 476.09375 260.652344 476.152344 260.621094 476.226562 260.640625 C 477.273438 260.933594 478.316406 261.25 479.367188 261.496094 C 479.445312 261.515625 479.445312 261.609375 479.429688 261.660156 C 471.257812 284.789062 463.292969 307.527344 455.417969 329.894531 C 454.425781 332.847656 453.921875 334.800781 451.464844 337.320312 C 446.023438 342.921875 437.058594 344.390625 431.277344 340.601562 Z M 431.277344 340.601562 " fill-opacity="1" fill-rule="nonzero"/><path fill="#000000" d="M 170.449219 339.730469 C 167.554688 338.308594 166.6875 334.246094 168.609375 330.765625 C 170.453125 327.363281 174.199219 325.699219 177.023438 327.078125 C 177.84375 327.421875 178.441406 327.96875 178.851562 328.605469 C 178.863281 328.625 178.921875 328.628906 178.925781 328.628906 C 178.925781 328.628906 178.921875 328.628906 178.929688 328.578125 C 180.339844 317.46875 181.695312 306.273438 183.125 295.035156 C 183.128906 294.988281 183.128906 294.949219 183.207031 294.960938 C 183.664062 295.027344 184.121094 295.097656 184.652344 295.152344 C 184.652344 295.152344 184.65625 295.175781 184.652344 295.222656 C 183.085938 307.527344 181.523438 319.761719 180.050781 331.882812 C 179.8125 333.515625 179.757812 334.585938 178.921875 336.097656 C 177.070312 339.507812 173.339844 341.089844 170.449219 339.730469 Z M 170.769531 337.855469 C 173.007812 338.800781 176.5 337.320312 178.078125 334.699219 C 179.582031 332.117188 179.089844 329.882812 176.851562 328.960938 C 174.535156 328.015625 171.109375 329.488281 169.53125 332.148438 C 167.957031 334.730469 168.464844 336.890625 170.769531 337.855469 Z M 170.769531 337.855469 " fill-opacity="1" fill-rule="nonzero"/><path fill="#000000" d="M 708.273438 378.226562 C 714.523438 378.203125 721.296875 383.421875 721.953125 389.6875 C 722.609375 395.945312 717.679688 400.882812 710.835938 400.804688 C 710.835938 402.996094 716.855469 405.542969 721.984375 405.523438 C 737.933594 405.460938 741.488281 393.273438 737.367188 381.195312 C 735.054688 374.269531 732.742188 367.363281 730.425781 360.457031 C 726.859375 361.359375 722.65625 361.761719 718.683594 361.785156 C 695.722656 361.933594 676.332031 345.085938 672.730469 320.472656 C 671.011719 308.660156 677.902344 295.171875 683.355469 287.792969 C 685.371094 285.050781 697.574219 271.15625 699.792969 268.683594 C 695.488281 259.082031 692.429688 243.144531 693.621094 228.796875 C 694.644531 216.402344 701.515625 205.039062 707.820312 204.253906 C 710.300781 203.945312 715.492188 209.503906 719.214844 216.949219 C 722.65625 223.820312 724.613281 232.671875 724.964844 237.519531 C 725.917969 257.882812 720.964844 271.664062 708.792969 284.199219 C 711.046875 290.796875 713.296875 297.394531 715.542969 303.949219 C 717.1875 303.609375 718.851562 303.359375 720.816406 303.308594 C 737.105469 302.851562 750.207031 315.605469 751.859375 331.476562 C 753.449219 346.78125 745.382812 355.539062 734.253906 359.304688 C 736.503906 365.746094 738.488281 372.140625 740.714844 378.492188 C 747.0625 396.625 739.863281 409.359375 721.636719 409.511719 C 709.359375 409.410156 695.21875 401.25 697.421875 386.957031 C 697.410156 386.863281 697.378906 386.628906 697.363281 386.492188 C 697.363281 386.492188 697.363281 386.492188 697.355469 386.445312 C 698.480469 381.765625 702.027344 378.238281 708.273438 378.226562 Z M 729.511719 357.773438 C 724.964844 344.382812 720.433594 331.160156 716.191406 317.855469 C 708.851562 320.15625 704.121094 326.394531 704.746094 332.339844 C 705.515625 339.695312 709.789062 345.035156 715.933594 346.886719 C 717.730469 347.429688 717.609375 348.996094 715.882812 348.753906 C 706.371094 347.445312 697.914062 338.738281 697 329.238281 C 696.042969 319.273438 702.101562 309.179688 712.03125 305.136719 C 709.859375 299.1875 707.957031 293.085938 706.0625 287.070312 C 693.78125 299.101562 680.503906 311.027344 682.144531 330.335938 C 683.558594 347.125 701.066406 359.304688 718.078125 359.226562 C 722.324219 359.210938 725.941406 358.65625 729.511719 357.773438 Z M 720.066406 317.257812 C 724.550781 330.195312 728.777344 343.242188 733.582031 356.316406 C 740.464844 352.589844 744.808594 345.78125 743.605469 335.359375 C 742.542969 326.195312 731.316406 316.90625 721.191406 317.222656 C 720.910156 317.230469 720.351562 317.269531 720.066406 317.257812 Z M 703.351562 265.796875 C 697.601562 253.609375 699.003906 222.703125 712.054688 222.066406 C 722.054688 221.578125 719.082031 237.457031 717.679688 241.820312 C 715.441406 250.542969 707.398438 262.210938 703.351562 265.796875 Z M 703.351562 265.796875 " fill-opacity="1" fill-rule="evenodd"/><path fill="#a96656" d="M 380.75 199.214844 C 334.535156 198.195312 335.15625 178.1875 335.15625 178.1875 C 335.15625 178.1875 351.070312 175.558594 354.25 150.347656 C 354.519531 148.246094 354.695312 145.988281 354.765625 143.558594 L 401.070312 143.558594 C 401.070312 143.628906 401.074219 145.757812 401.523438 148.933594 C 402.78125 157.921875 407.679688 175.675781 426.613281 178.1875 C 426.613281 178.1875 426.960938 200.238281 380.75 199.214844 " fill-opacity="1" fill-rule="nonzero"/><path fill="#9c503f" d="M 401.523438 148.933594 C 389.777344 163.664062 372.949219 162.140625 372.949219 162.140625 C 365.128906 160.722656 358.964844 155.949219 354.25 150.347656 C 354.519531 148.246094 354.695312 145.988281 354.765625 143.558594 L 401.070312 143.558594 C 401.070312 143.628906 401.074219 145.757812 401.523438 148.933594 " fill-opacity="1" fill-rule="nonzero"/><path fill="#a96656" d="M 341.773438 120.371094 C 341.773438 120.371094 350.640625 151.707031 372.949219 155.761719 C 372.949219 155.761719 402.09375 158.402344 410.445312 123.152344 C 418.796875 87.90625 423.4375 65.855469 410.445312 55.082031 C 397.449219 44.308594 350.125 30.394531 341.773438 56.832031 C 333.421875 83.269531 332.496094 96.253906 341.773438 120.371094 " fill-opacity="1" fill-rule="nonzero"/><path fill="#231c1e" d="M 427.941406 65.199219 C 427.941406 65.199219 436.210938 67.632812 432.804688 77.847656 C 431.347656 82.226562 428.472656 83.605469 425.503906 84.171875 C 431.347656 92.929688 423.5625 99.734375 423.5625 99.734375 C 423.5625 99.734375 418.199219 99.574219 415.164062 91.472656 C 412.238281 87.023438 411.210938 78.085938 411.210938 78.085938 C 399.527344 78.570312 399.035156 64.753906 399.035156 64.753906 C 383.9375 68.9375 380.550781 59.113281 380.550781 59.113281 C 367.890625 75.652344 348.425781 67.863281 348.425781 67.863281 C 348.664062 89.316406 340.734375 101.671875 333.417969 100.65625 C 318.085938 98.527344 326.527344 85.867188 326.941406 83.847656 C 316.988281 77.175781 316.214844 56.40625 332.261719 50.0625 C 332.261719 50.0625 321.046875 33.296875 333.242188 25.175781 C 345.4375 17.0625 352.804688 25.058594 352.804688 25.058594 C 352.804688 25.058594 357.25 12.976562 372.414062 11.941406 C 386.871094 10.953125 389.6875 23.257812 389.6875 23.257812 C 389.6875 23.257812 396.875 12.117188 408.4375 20.667969 C 419.996094 29.214844 417.554688 36.886719 417.554688 36.886719 C 417.554688 36.886719 429.101562 38.167969 431.605469 51.941406 C 432.554688 57.140625 427.941406 65.199219 427.941406 65.199219 " fill-opacity="1" fill-rule="nonzero"/><path fill="#231c1e" d="M 395.828125 81.339844 C 400.066406 81.496094 403.472656 82.367188 403.441406 83.28125 C 403.40625 84.195312 399.941406 84.8125 395.710938 84.652344 C 391.472656 84.5 388.0625 83.628906 388.097656 82.710938 C 388.132812 81.792969 391.59375 81.179688 395.828125 81.339844 " fill-opacity="1" fill-rule="nonzero"/><path fill="#231c1e" d="M 403.125 94.285156 C 403.375 94.734375 403.214844 95.304688 402.761719 95.554688 C 399.804688 97.199219 397.417969 97.753906 395.539062 97.753906 C 391.699219 97.753906 389.996094 95.421875 389.894531 95.273438 C 389.601562 94.851562 389.703125 94.273438 390.121094 93.976562 C 390.542969 93.683594 391.121094 93.78125 391.417969 94.195312 C 391.546875 94.371094 394.394531 98.070312 401.863281 93.925781 C 402.308594 93.679688 402.875 93.839844 403.125 94.285156 " fill-opacity="1" fill-rule="nonzero"/><path fill="#231c1e" d="M 388.65625 133.914062 C 389.042969 134.378906 388.976562 135.066406 388.511719 135.449219 C 384.304688 138.929688 380.195312 139.960938 376.636719 139.828125 C 370.058594 139.585938 365.332031 135.375 365.265625 135.316406 C 364.820312 134.90625 364.789062 134.21875 365.195312 133.769531 C 365.597656 133.332031 366.285156 133.296875 366.730469 133.703125 C 366.996094 133.9375 371.242188 137.695312 377.125 137.695312 C 380.132812 137.695312 383.570312 136.707031 387.125 133.769531 C 387.585938 133.386719 388.277344 133.457031 388.65625 133.914062 " fill-opacity="1" fill-rule="nonzero"/><path fill="#231c1e" d="M 383.523438 117.101562 C 383.558594 117.539062 383.402344 117.957031 383.089844 118.28125 C 382.574219 118.808594 380.828125 119.628906 374.835938 119.40625 C 374.550781 119.394531 374.261719 119.378906 373.960938 119.363281 C 373.359375 119.332031 372.902344 118.824219 372.929688 118.222656 C 372.960938 117.628906 373.464844 117.171875 374.054688 117.191406 L 374.074219 117.191406 C 377.191406 117.351562 380.292969 117.195312 381.304688 116.855469 C 380.914062 113.988281 378.628906 103.214844 377.414062 97.625 C 377.289062 97.035156 377.65625 96.460938 378.246094 96.328125 C 378.832031 96.203125 379.410156 96.578125 379.535156 97.160156 C 379.691406 97.867188 383.304688 114.464844 383.523438 117.101562 " fill-opacity="1" fill-rule="nonzero"/><path fill="#231c1e" d="M 359.574219 80.304688 C 363.8125 80.460938 367.222656 81.332031 367.183594 82.246094 C 367.15625 83.160156 363.6875 83.777344 359.457031 83.617188 C 355.21875 83.464844 351.8125 82.59375 351.847656 81.675781 C 351.882812 80.757812 355.34375 80.144531 359.574219 80.304688 " fill-opacity="1" fill-rule="nonzero"/><path fill="#231c1e" d="M 366.898438 94.640625 C 367.148438 95.089844 366.984375 95.660156 366.539062 95.910156 C 363.578125 97.550781 361.1875 98.109375 359.3125 98.109375 C 355.472656 98.109375 353.769531 95.773438 353.667969 95.628906 C 353.375 95.207031 353.472656 94.628906 353.894531 94.335938 C 354.316406 94.035156 354.894531 94.136719 355.191406 94.550781 C 355.320312 94.730469 358.164062 98.421875 365.632812 94.277344 C 366.085938 94.03125 366.648438 94.191406 366.898438 94.640625 " fill-opacity="1" fill-rule="nonzero"/><path fill="#5e3f30" d="M 314.878906 441.449219 C 314.878906 441.449219 197.167969 428.644531 173.914062 441.425781 C 150.160156 454.488281 135.917969 517.769531 257.097656 543.714844 C 389.867188 572.144531 572.550781 537.277344 591.121094 517.769531 C 609.695312 498.253906 631.972656 440.101562 555.621094 443.46875 C 479.273438 446.828125 467.578125 447.5 467.578125 447.5 L 314.878906 441.449219 " fill-opacity="1" fill-rule="nonzero"/><path fill="#a96656" d="M 422.253906 521.746094 L 380.585938 533.566406 C 380.585938 533.566406 373.875 522.308594 360.902344 521.746094 C 347.929688 521.183594 341.730469 538.070312 319.210938 539.757812 C 296.683594 541.445312 273.519531 542.625 279.164062 556.503906 C 286.980469 575.722656 440.273438 552.140625 440.273438 552.140625 L 422.253906 521.746094 " fill-opacity="1" fill-rule="nonzero"/><path fill="#a96656" d="M 349.59375 504.472656 L 390.878906 500.675781 C 390.878906 500.675781 398.289062 491.695312 411.148438 487.554688 C 424.011719 483.414062 434.886719 498.644531 457.949219 494.128906 C 481.011719 489.613281 513.824219 486.890625 503.730469 498.777344 C 493.632812 510.664062 339.90625 539.9375 339.90625 539.9375 L 349.59375 504.472656 " fill-opacity="1" fill-rule="nonzero"/><path fill="#5e3f30" d="M 418.617188 523.839844 L 440.273438 562.582031 C 441.226562 563.757812 627.601562 539.792969 613.917969 475.230469 C 601.851562 418.277344 558.835938 475.71875 517.105469 486.523438 C 446.945312 504.691406 418.617188 523.839844 418.617188 523.839844 " fill-opacity="1" fill-rule="nonzero"/><path fill="#5e3f30" d="M 380.585938 534.761719 C 380.238281 534.761719 379.902344 534.609375 379.675781 534.335938 C 379.582031 534.234375 370.835938 523.996094 360.777344 522.9375 C 350.832031 521.890625 340.203125 533.636719 340.097656 533.753906 C 339.660156 534.246094 338.902344 534.289062 338.410156 533.851562 C 337.917969 533.410156 337.875 532.65625 338.316406 532.167969 C 338.78125 531.640625 349.871094 519.386719 361.027344 520.558594 C 370.707031 521.582031 378.875 529.894531 380.980469 532.210938 L 417.410156 521.878906 C 418.046875 521.703125 418.707031 522.070312 418.886719 522.703125 C 419.0625 523.335938 418.695312 523.996094 418.0625 524.179688 L 380.914062 534.714844 C 380.804688 534.746094 380.691406 534.761719 380.585938 534.761719 " fill-opacity="1" fill-rule="nonzero"/><path fill="#37241e" d="M 497.488281 494.03125 C 496.929688 494.03125 496.398438 493.695312 496.167969 493.148438 C 495.867188 492.425781 496.210938 491.585938 496.9375 491.285156 C 497.089844 491.222656 512.253906 484.949219 536.035156 478.773438 C 536.796875 478.574219 537.574219 479.03125 537.773438 479.792969 C 537.972656 480.554688 537.515625 481.335938 536.75 481.53125 C 513.183594 487.65625 498.183594 493.855469 498.039062 493.917969 C 497.855469 493.996094 497.671875 494.03125 497.488281 494.03125 " fill-opacity="1" fill-rule="nonzero"/><path fill="#37241e" d="M 344.726562 502.082031 C 344.457031 502.082031 344.191406 502.003906 343.949219 501.851562 C 313.253906 481.867188 227.769531 462.730469 226.910156 462.539062 C 226.140625 462.367188 225.660156 461.601562 225.828125 460.835938 C 226 460.066406 226.757812 459.585938 227.53125 459.753906 C 227.746094 459.800781 249.425781 464.636719 274.648438 471.894531 C 308.582031 481.667969 332.421875 490.941406 345.507812 499.460938 C 346.167969 499.886719 346.351562 500.773438 345.925781 501.433594 C 345.648438 501.855469 345.191406 502.082031 344.726562 502.082031 " fill-opacity="1" fill-rule="nonzero"/><g clip-path="url(#b9303c9a14)"><path fill="#a96656" d="M 469.714844 319.167969 L 509.832031 299.28125 L 525.601562 346.113281 C 525.601562 346.113281 541.023438 367.269531 545.519531 372.519531 C 548.9375 376.515625 559.625 389.714844 569.484375 401.957031 C 576.71875 408.898438 584.863281 417.5 591.242188 426.382812 C 596.65625 433.917969 607.441406 433.789062 612.460938 439.222656 C 616.078125 443.136719 619.617188 449.960938 620.621094 455.195312 C 621.363281 459.078125 622.519531 468.367188 619.511719 473.421875 C 619.511719 473.421875 613.972656 480.097656 606.46875 464.09375 C 606.46875 464.09375 601.726562 456.71875 600.445312 452.976562 C 600.445312 452.976562 598.863281 452.859375 596.5625 452.359375 L 600.347656 458.332031 C 601.472656 460.109375 600.945312 462.460938 599.167969 463.582031 C 598.671875 463.902344 598.128906 464.082031 597.582031 464.148438 C 596.167969 464.316406 594.726562 463.683594 593.917969 462.40625 L 583.035156 445.242188 C 582.273438 444.378906 581.597656 443.410156 581.035156 442.347656 C 579.699219 441.421875 578.226562 440.402344 576.640625 439.300781 C 564.015625 431.511719 526.269531 408.09375 518.84375 402.027344 C 512.863281 397.136719 509.039062 393.03125 506.796875 389.570312 C 490.242188 370.6875 469.714844 319.167969 469.714844 319.167969 " fill-opacity="1" fill-rule="nonzero"/></g><path fill="#9c503f" d="M 509.484375 354.910156 C 509.824219 354.871094 510.140625 354.671875 510.316406 354.347656 C 513.210938 348.976562 520.914062 346.511719 520.988281 346.484375 C 521.5625 346.308594 521.882812 345.695312 521.707031 345.128906 C 521.527344 344.554688 520.914062 344.230469 520.347656 344.410156 C 519.992188 344.523438 511.71875 347.15625 508.398438 353.316406 C 508.113281 353.84375 508.3125 354.503906 508.839844 354.789062 C 509.046875 354.898438 509.265625 354.9375 509.484375 354.910156 " fill-opacity="1" fill-rule="nonzero"/><path fill="#a96656" d="M 288.539062 315.261719 L 247.421875 297.523438 L 234.152344 345.128906 C 234.152344 345.128906 219.871094 367.066406 215.660156 372.546875 C 212.457031 376.710938 202.484375 390.460938 193.28125 403.207031 C 186.429688 410.519531 178.746094 419.539062 172.847656 428.75 C 167.839844 436.558594 157.058594 437 152.335938 442.691406 C 148.929688 446.789062 145.757812 453.789062 145.03125 459.074219 C 144.492188 462.992188 143.832031 472.328125 147.097656 477.21875 C 147.097656 477.21875 152.992188 483.585938 159.632812 467.210938 C 159.632812 467.210938 163.976562 459.597656 165.0625 455.789062 C 165.0625 455.789062 166.640625 455.589844 168.910156 454.96875 L 165.441406 461.136719 C 164.414062 462.96875 165.066406 465.285156 166.894531 466.316406 C 167.410156 466.605469 167.960938 466.761719 168.515625 466.796875 C 169.929688 466.886719 171.339844 466.183594 172.078125 464.863281 L 182.039062 447.148438 C 182.75 446.242188 183.378906 445.246094 183.886719 444.152344 C 185.167969 443.15625 186.582031 442.0625 188.113281 440.878906 C 200.308594 432.433594 236.757812 407.054688 243.859375 400.601562 C 249.570312 395.402344 253.175781 391.097656 255.226562 387.527344 C 270.757812 367.792969 288.539062 315.261719 288.539062 315.261719 " fill-opacity="1" fill-rule="nonzero"/><path fill="#9c503f" d="M 250.710938 353.058594 C 250.371094 353.039062 250.046875 352.851562 249.851562 352.539062 C 246.675781 347.328125 238.855469 345.273438 238.777344 345.257812 C 238.195312 345.105469 237.84375 344.515625 237.992188 343.933594 C 238.140625 343.351562 238.730469 343 239.3125 343.148438 C 239.667969 343.238281 248.070312 345.429688 251.710938 351.40625 C 252.023438 351.921875 251.859375 352.589844 251.347656 352.90625 C 251.152344 353.019531 250.925781 353.074219 250.710938 353.058594 " fill-opacity="1" fill-rule="nonzero"/><path fill="#5d82b9" d="M 336.507812 177.746094 C 336.507812 177.746094 277.113281 187.945312 268.765625 211.136719 C 260.414062 234.328125 234.429688 302.96875 234.429688 302.96875 L 289.175781 335.433594 C 289.175781 335.433594 287.855469 431.121094 288.300781 442.664062 C 288.964844 459.816406 417.03125 477.1875 473.640625 445.652344 L 466.429688 338.652344 L 522.105469 300.1875 C 522.105469 300.1875 503.847656 220.335938 482.503906 199 C 461.160156 177.664062 425.890625 177.746094 425.890625 177.746094 C 425.890625 177.746094 375.484375 216.703125 336.507812 177.746094 " fill-opacity="1" fill-rule="nonzero"/><path fill="#a96656" d="M 340.457031 100.097656 C 340.457031 100.097656 333.257812 83.59375 328.285156 93.808594 C 323.3125 104.023438 329.945312 113.542969 340.457031 113.570312 C 350.964844 113.589844 340.457031 100.097656 340.457031 100.097656 " fill-opacity="1" fill-rule="nonzero"/><path fill="#a96656" d="M 409.984375 100.097656 C 409.984375 100.097656 417.183594 83.59375 422.152344 93.808594 C 427.125 104.023438 420.492188 113.542969 409.984375 113.570312 C 399.46875 113.589844 409.984375 100.097656 409.984375 100.097656 " fill-opacity="1" fill-rule="nonzero"/><path fill="#3e66a3" d="M 466.425781 339.535156 C 465.992188 339.535156 465.617188 339.222656 465.554688 338.78125 C 456 274.945312 474.574219 224.527344 474.757812 224.027344 C 474.929688 223.570312 475.445312 223.335938 475.902344 223.507812 C 476.359375 223.679688 476.59375 224.191406 476.421875 224.648438 C 476.234375 225.148438 457.824219 275.164062 467.304688 338.519531 C 467.375 339.007812 467.042969 339.453125 466.558594 339.527344 C 466.515625 339.53125 466.472656 339.535156 466.425781 339.535156 " fill-opacity="1" fill-rule="nonzero"/><path fill="#3e66a3" d="M 289.175781 336.320312 C 289.117188 336.320312 289.050781 336.3125 288.988281 336.296875 C 288.507812 336.195312 288.207031 335.71875 288.316406 335.238281 C 302.871094 269.675781 284.007812 221.472656 283.816406 220.996094 C 283.632812 220.539062 283.855469 220.023438 284.308594 219.84375 C 284.761719 219.660156 285.28125 219.882812 285.460938 220.335938 C 285.65625 220.816406 304.726562 269.492188 290.046875 335.625 C 289.953125 336.039062 289.585938 336.320312 289.175781 336.320312 " fill-opacity="1" fill-rule="nonzero"/><g clip-path="url(#678be0ac92)"><path fill="#f49e09" d="M 376.121094 3.757812 C 338.015625 3.761719 307.125 34.535156 307.125 72.5 C 307.152344 78.492188 307.066406 90.230469 307.066406 90.230469 L 314.128906 90.230469 C 314.128906 90.230469 313.96875 78.507812 313.953125 72.5 C 313.953125 38.292969 341.785156 10.5625 376.121094 10.5625 C 410.453125 10.5625 438.289062 38.292969 438.289062 72.5 C 438.277344 78.507812 438.136719 90.230469 438.136719 90.230469 L 445.226562 90.230469 C 445.226562 90.230469 445.105469 78.488281 445.113281 72.5 C 445.113281 34.535156 414.222656 3.757812 376.121094 3.757812 Z M 376.121094 3.757812 " fill-opacity="1" fill-rule="evenodd"/></g><g clip-path="url(#b2e6618ec3)"><path fill="#aed581" d="M 315.675781 86.53125 C 316.460938 86.53125 317.234375 86.609375 318.003906 86.761719 C 318.773438 86.914062 319.519531 87.136719 320.242188 87.4375 C 320.964844 87.734375 321.652344 88.101562 322.304688 88.535156 C 322.953125 88.96875 323.554688 89.460938 324.109375 90.011719 C 324.664062 90.5625 325.160156 91.164062 325.59375 91.8125 C 326.027344 92.460938 326.394531 93.148438 326.695312 93.867188 C 326.996094 94.589844 327.222656 95.332031 327.375 96.097656 C 327.527344 96.863281 327.605469 97.632812 327.605469 98.414062 L 327.605469 112.457031 C 327.605469 113.238281 327.527344 114.011719 327.375 114.777344 C 327.222656 115.539062 326.996094 116.285156 326.695312 117.003906 C 326.394531 117.726562 326.027344 118.410156 325.59375 119.058594 C 325.160156 119.707031 324.664062 120.308594 324.109375 120.859375 C 323.558594 121.410156 322.953125 121.902344 322.304688 122.335938 C 321.652344 122.769531 320.964844 123.136719 320.242188 123.4375 C 319.519531 123.734375 318.773438 123.960938 318.003906 124.113281 C 317.234375 124.265625 316.460938 124.339844 315.675781 124.339844 C 314.894531 124.339844 314.117188 124.265625 313.351562 124.113281 C 312.582031 123.960938 311.835938 123.734375 311.113281 123.4375 C 310.390625 123.136719 309.703125 122.769531 309.050781 122.335938 C 308.398438 121.902344 307.796875 121.410156 307.242188 120.859375 C 306.691406 120.308594 306.195312 119.707031 305.761719 119.058594 C 305.324219 118.410156 304.957031 117.726562 304.660156 117.003906 C 304.359375 116.285156 304.132812 115.539062 303.980469 114.777344 C 303.828125 114.011719 303.75 113.238281 303.75 112.457031 L 303.75 98.414062 C 303.75 97.632812 303.828125 96.863281 303.980469 96.097656 C 304.132812 95.332031 304.359375 94.589844 304.660156 93.867188 C 304.957031 93.148438 305.324219 92.460938 305.761719 91.8125 C 306.195312 91.164062 306.691406 90.5625 307.242188 90.011719 C 307.796875 89.460938 308.398438 88.96875 309.050781 88.535156 C 309.703125 88.101562 310.390625 87.734375 311.113281 87.4375 C 311.835938 87.136719 312.582031 86.914062 313.351562 86.761719 C 314.117188 86.609375 314.894531 86.53125 315.675781 86.53125 Z M 315.675781 86.53125 " fill-opacity="1" fill-rule="evenodd"/></g><g clip-path="url(#5fbcc69dd3)"><path fill="#fc7100" d="M 319.472656 81.132812 L 334.109375 81.132812 C 334.429688 81.132812 334.746094 81.164062 335.058594 81.226562 C 335.375 81.289062 335.679688 81.382812 335.976562 81.503906 C 336.273438 81.625 336.554688 81.773438 336.820312 81.953125 C 337.085938 82.128906 337.332031 82.332031 337.558594 82.558594 C 337.785156 82.78125 337.988281 83.027344 338.164062 83.292969 C 338.34375 83.558594 338.492188 83.839844 338.617188 84.132812 C 338.738281 84.429688 338.832031 84.734375 338.894531 85.046875 C 338.957031 85.359375 338.988281 85.675781 338.988281 85.992188 L 338.988281 124.882812 C 338.988281 125.199219 338.957031 125.515625 338.894531 125.832031 C 338.832031 126.144531 338.738281 126.445312 338.617188 126.742188 C 338.492188 127.035156 338.34375 127.316406 338.164062 127.582031 C 337.988281 127.847656 337.785156 128.09375 337.558594 128.320312 C 337.332031 128.542969 337.085938 128.746094 336.820312 128.921875 C 336.554688 129.101562 336.273438 129.25 335.976562 129.371094 C 335.679688 129.496094 335.375 129.585938 335.058594 129.648438 C 334.746094 129.710938 334.429688 129.742188 334.109375 129.742188 L 319.472656 129.742188 C 319.152344 129.742188 318.832031 129.710938 318.519531 129.648438 C 318.207031 129.585938 317.898438 129.496094 317.605469 129.371094 C 317.308594 129.25 317.027344 129.101562 316.761719 128.921875 C 316.496094 128.746094 316.246094 128.542969 316.019531 128.320312 C 315.792969 128.09375 315.59375 127.847656 315.414062 127.582031 C 315.238281 127.316406 315.085938 127.035156 314.964844 126.742188 C 314.839844 126.445312 314.75 126.144531 314.6875 125.832031 C 314.625 125.515625 314.59375 125.199219 314.59375 124.882812 L 314.59375 85.992188 C 314.59375 85.675781 314.625 85.359375 314.6875 85.046875 C 314.75 84.734375 314.839844 84.429688 314.964844 84.132812 C 315.085938 83.839844 315.238281 83.558594 315.414062 83.292969 C 315.59375 83.027344 315.792969 82.78125 316.019531 82.558594 C 316.246094 82.332031 316.496094 82.128906 316.761719 81.953125 C 317.027344 81.773438 317.308594 81.625 317.605469 81.503906 C 317.898438 81.382812 318.207031 81.289062 318.519531 81.226562 C 318.832031 81.164062 319.152344 81.132812 319.472656 81.132812 Z M 319.472656 81.132812 " fill-opacity="1" fill-rule="evenodd"/></g><g clip-path="url(#1c29cb8552)"><path fill="#aed581" d="M 436.570312 86.53125 C 435.785156 86.53125 435.011719 86.609375 434.242188 86.761719 C 433.472656 86.914062 432.730469 87.136719 432.003906 87.4375 C 431.28125 87.734375 430.59375 88.101562 429.941406 88.535156 C 429.292969 88.96875 428.691406 89.460938 428.136719 90.011719 C 427.582031 90.5625 427.085938 91.164062 426.652344 91.8125 C 426.21875 92.460938 425.851562 93.148438 425.550781 93.867188 C 425.25 94.589844 425.023438 95.332031 424.871094 96.097656 C 424.71875 96.863281 424.644531 97.632812 424.644531 98.414062 L 424.644531 112.457031 C 424.644531 113.238281 424.71875 114.011719 424.871094 114.777344 C 425.023438 115.539062 425.25 116.285156 425.550781 117.003906 C 425.851562 117.726562 426.21875 118.410156 426.652344 119.058594 C 427.085938 119.707031 427.582031 120.308594 428.136719 120.859375 C 428.691406 121.410156 429.292969 121.902344 429.941406 122.335938 C 430.59375 122.769531 431.28125 123.136719 432.003906 123.4375 C 432.730469 123.734375 433.472656 123.960938 434.242188 124.113281 C 435.011719 124.265625 435.785156 124.339844 436.570312 124.339844 C 437.351562 124.339844 438.128906 124.265625 438.894531 124.113281 C 439.664062 123.960938 440.410156 123.734375 441.132812 123.4375 C 441.855469 123.136719 442.542969 122.769531 443.195312 122.335938 C 443.847656 121.902344 444.449219 121.410156 445.003906 120.859375 C 445.554688 120.308594 446.050781 119.707031 446.484375 119.058594 C 446.921875 118.410156 447.289062 117.726562 447.585938 117.003906 C 447.886719 116.285156 448.113281 115.539062 448.265625 114.777344 C 448.417969 114.011719 448.496094 113.238281 448.496094 112.457031 L 448.496094 98.414062 C 448.496094 97.632812 448.417969 96.863281 448.265625 96.097656 C 448.113281 95.332031 447.886719 94.589844 447.585938 93.867188 C 447.289062 93.148438 446.921875 92.460938 446.484375 91.8125 C 446.050781 91.164062 445.554688 90.5625 445.003906 90.011719 C 444.449219 89.460938 443.847656 88.96875 443.195312 88.535156 C 442.542969 88.101562 441.855469 87.734375 441.132812 87.4375 C 440.410156 87.136719 439.664062 86.914062 438.894531 86.761719 C 438.128906 86.609375 437.351562 86.53125 436.570312 86.53125 Z M 436.570312 86.53125 " fill-opacity="1" fill-rule="evenodd"/></g><g clip-path="url(#fe9d1a7706)"><path fill="#fc7100" d="M 432.773438 81.132812 L 418.136719 81.132812 C 417.816406 81.132812 417.5 81.164062 417.1875 81.226562 C 416.871094 81.289062 416.566406 81.382812 416.269531 81.503906 C 415.972656 81.625 415.695312 81.773438 415.425781 81.953125 C 415.160156 82.128906 414.914062 82.332031 414.6875 82.558594 C 414.460938 82.78125 414.257812 83.027344 414.082031 83.292969 C 413.902344 83.558594 413.753906 83.839844 413.628906 84.132812 C 413.507812 84.429688 413.414062 84.734375 413.351562 85.046875 C 413.289062 85.359375 413.257812 85.675781 413.257812 85.992188 L 413.257812 124.882812 C 413.257812 125.199219 413.289062 125.515625 413.351562 125.832031 C 413.414062 126.144531 413.507812 126.445312 413.628906 126.742188 C 413.753906 127.035156 413.902344 127.316406 414.082031 127.582031 C 414.257812 127.847656 414.460938 128.09375 414.6875 128.320312 C 414.914062 128.542969 415.160156 128.746094 415.425781 128.921875 C 415.695312 129.101562 415.976562 129.25 416.269531 129.371094 C 416.566406 129.496094 416.871094 129.585938 417.1875 129.648438 C 417.5 129.710938 417.816406 129.742188 418.136719 129.742188 L 432.773438 129.742188 C 433.09375 129.742188 433.414062 129.710938 433.726562 129.648438 C 434.039062 129.585938 434.347656 129.496094 434.640625 129.371094 C 434.9375 129.25 435.21875 129.101562 435.484375 128.921875 C 435.75 128.746094 436 128.542969 436.226562 128.320312 C 436.453125 128.09375 436.652344 127.847656 436.832031 127.582031 C 437.007812 127.316406 437.160156 127.035156 437.28125 126.742188 C 437.40625 126.445312 437.496094 126.144531 437.558594 125.832031 C 437.621094 125.515625 437.652344 125.199219 437.652344 124.882812 L 437.652344 85.992188 C 437.652344 85.675781 437.621094 85.359375 437.558594 85.046875 C 437.496094 84.734375 437.40625 84.429688 437.28125 84.132812 C 437.160156 83.839844 437.007812 83.558594 436.832031 83.292969 C 436.652344 83.027344 436.453125 82.78125 436.226562 82.558594 C 436 82.332031 435.75 82.128906 435.484375 81.953125 C 435.21875 81.773438 434.9375 81.625 434.640625 81.503906 C 434.347656 81.382812 434.039062 81.289062 433.726562 81.226562 C 433.414062 81.164062 433.09375 81.132812 432.773438 81.132812 Z M 432.773438 81.132812 " fill-opacity="1" fill-rule="evenodd"/></g><g clip-path="url(#38128e846a)"><path fill="#e93015" d="M 210.210938 98.492188 C 209.679688 98.492188 209.246094 98.925781 209.246094 99.460938 L 209.246094 107.191406 C 209.246094 107.726562 209.679688 108.160156 210.210938 108.160156 C 210.742188 108.160156 211.171875 107.726562 211.171875 107.191406 L 211.171875 99.460938 C 211.171875 98.925781 210.742188 98.492188 210.210938 98.492188 Z M 210.210938 98.492188 " fill-opacity="1" fill-rule="nonzero"/></g><path fill="#e93015" d="M 217.917969 90.757812 C 217.386719 90.757812 216.953125 91.191406 216.953125 91.726562 L 216.953125 114.925781 C 216.953125 115.460938 217.386719 115.890625 217.917969 115.890625 C 218.449219 115.890625 218.882812 115.460938 218.882812 114.925781 L 218.882812 91.726562 C 218.882812 91.191406 218.449219 90.757812 217.917969 90.757812 Z M 217.917969 90.757812 " fill-opacity="1" fill-rule="nonzero"/><path fill="#e93015" d="M 225.625 94.625 C 225.09375 94.625 224.660156 95.058594 224.660156 95.59375 L 224.660156 111.058594 C 224.660156 111.59375 225.09375 112.027344 225.625 112.027344 C 226.15625 112.027344 226.589844 111.59375 226.589844 111.058594 L 226.589844 95.59375 C 226.589844 95.058594 226.15625 94.625 225.625 94.625 Z M 225.625 94.625 " fill-opacity="1" fill-rule="nonzero"/><path fill="#e93015" d="M 233.332031 79.160156 C 232.800781 79.160156 232.371094 79.59375 232.371094 80.125 L 232.371094 126.527344 C 232.371094 127.058594 232.800781 127.492188 233.332031 127.492188 C 233.863281 127.492188 234.296875 127.058594 234.296875 126.527344 L 234.296875 80.125 C 234.296875 79.59375 233.863281 79.160156 233.332031 79.160156 Z M 233.332031 79.160156 " fill-opacity="1" fill-rule="nonzero"/><path fill="#e93015" d="M 241.039062 94.625 C 240.507812 94.625 240.078125 95.058594 240.078125 95.59375 L 240.078125 111.058594 C 240.078125 111.59375 240.507812 112.027344 241.039062 112.027344 C 241.570312 112.027344 242.003906 111.59375 242.003906 111.058594 L 242.003906 95.59375 C 242.003906 95.058594 241.570312 94.625 241.039062 94.625 Z M 241.039062 94.625 " fill-opacity="1" fill-rule="nonzero"/><g clip-path="url(#da98ae0dff)"><path fill="#e93015" d="M 248.746094 59.824219 C 248.214844 59.824219 247.785156 60.257812 247.785156 60.792969 L 247.785156 145.859375 C 247.785156 146.394531 248.214844 146.824219 248.746094 146.824219 C 249.28125 146.824219 249.710938 146.394531 249.710938 145.859375 L 249.710938 60.792969 C 249.710938 60.257812 249.28125 59.824219 248.746094 59.824219 Z M 248.746094 59.824219 " fill-opacity="1" fill-rule="nonzero"/></g><path fill="#e93015" d="M 256.457031 75.292969 C 255.921875 75.292969 255.492188 75.726562 255.492188 76.257812 L 255.492188 130.390625 C 255.492188 130.925781 255.921875 131.359375 256.457031 131.359375 C 256.988281 131.359375 257.417969 130.925781 257.417969 130.390625 L 257.417969 76.257812 C 257.417969 75.726562 256.988281 75.292969 256.457031 75.292969 Z M 256.457031 75.292969 " fill-opacity="1" fill-rule="nonzero"/><path fill="#e93015" d="M 264.164062 83.027344 C 263.632812 83.027344 263.199219 83.457031 263.199219 83.992188 L 263.199219 122.660156 C 263.199219 123.191406 263.632812 123.625 264.164062 123.625 C 264.695312 123.625 265.125 123.191406 265.125 122.660156 L 265.125 83.992188 C 265.125 83.457031 264.695312 83.027344 264.164062 83.027344 Z M 264.164062 83.027344 " fill-opacity="1" fill-rule="nonzero"/><path fill="#e93015" d="M 271.871094 94.625 C 271.339844 94.625 270.90625 95.058594 270.90625 95.59375 L 270.90625 111.058594 C 270.90625 111.59375 271.339844 112.027344 271.871094 112.027344 C 272.402344 112.027344 272.832031 111.59375 272.832031 111.058594 L 272.832031 95.59375 C 272.832031 95.058594 272.402344 94.625 271.871094 94.625 Z M 271.871094 94.625 " fill-opacity="1" fill-rule="nonzero"/><path fill="#e93015" d="M 279.578125 98.492188 C 279.046875 98.492188 278.613281 98.925781 278.613281 99.460938 L 278.613281 107.191406 C 278.613281 107.726562 279.046875 108.160156 279.578125 108.160156 C 280.109375 108.160156 280.542969 107.726562 280.542969 107.191406 L 280.542969 99.460938 C 280.542969 98.925781 280.109375 98.492188 279.578125 98.492188 Z M 279.578125 98.492188 " fill-opacity="1" fill-rule="nonzero"/><path fill="#e93015" d="M 287.285156 83.027344 C 286.753906 83.027344 286.320312 83.457031 286.320312 83.992188 L 286.320312 118.792969 C 286.320312 119.324219 286.753906 119.757812 287.285156 119.757812 C 287.816406 119.757812 288.25 119.324219 288.25 118.792969 L 288.25 83.992188 C 288.25 83.457031 287.816406 83.027344 287.285156 83.027344 Z M 287.285156 83.027344 " fill-opacity="1" fill-rule="nonzero"/><path fill="#e93015" d="M 294.992188 94.625 C 294.460938 94.625 294.03125 95.058594 294.03125 95.59375 L 294.03125 111.058594 C 294.03125 111.59375 294.460938 112.027344 294.992188 112.027344 C 295.523438 112.027344 295.957031 111.59375 295.957031 111.058594 L 295.957031 95.59375 C 295.957031 95.058594 295.523438 94.625 294.992188 94.625 Z M 294.992188 94.625 " fill-opacity="1" fill-rule="nonzero"/><g clip-path="url(#48c370dcc2)"><path fill="#e93015" d="M 302.699219 98.492188 C 302.167969 98.492188 301.738281 98.925781 301.738281 99.460938 L 301.738281 107.191406 C 301.738281 107.726562 302.167969 108.160156 302.699219 108.160156 C 303.234375 108.160156 303.664062 107.726562 303.664062 107.191406 L 303.664062 99.460938 C 303.664062 98.925781 303.234375 98.492188 302.699219 98.492188 Z M 302.699219 98.492188 " fill-opacity="1" fill-rule="nonzero"/></g><g clip-path="url(#adba34b53a)"><path fill="#008037" d="M 449.972656 95.703125 C 449.132812 95.703125 448.453125 96.386719 448.453125 97.226562 L 448.453125 109.425781 C 448.453125 110.269531 449.132812 110.953125 449.972656 110.953125 C 450.8125 110.953125 451.496094 110.269531 451.496094 109.425781 L 451.496094 97.226562 C 451.496094 96.386719 450.8125 95.703125 449.972656 95.703125 Z M 449.972656 95.703125 " fill-opacity="1" fill-rule="nonzero"/></g><path fill="#008037" d="M 462.144531 83.5 C 461.304688 83.5 460.625 84.183594 460.625 85.027344 L 460.625 121.625 C 460.625 122.46875 461.304688 123.152344 462.144531 123.152344 C 462.984375 123.152344 463.667969 122.46875 463.667969 121.625 L 463.667969 85.027344 C 463.667969 84.183594 462.984375 83.5 462.144531 83.5 Z M 462.144531 83.5 " fill-opacity="1" fill-rule="nonzero"/><path fill="#008037" d="M 474.320312 89.601562 C 473.480469 89.601562 472.796875 90.285156 472.796875 91.125 L 472.796875 115.527344 C 472.796875 116.367188 473.480469 117.050781 474.320312 117.050781 C 475.160156 117.050781 475.839844 116.367188 475.839844 115.527344 L 475.839844 91.125 C 475.839844 90.285156 475.160156 89.601562 474.320312 89.601562 Z M 474.320312 89.601562 " fill-opacity="1" fill-rule="nonzero"/><path fill="#008037" d="M 486.492188 65.203125 C 485.652344 65.203125 484.96875 65.886719 484.96875 66.726562 L 484.96875 139.925781 C 484.96875 140.769531 485.652344 141.453125 486.492188 141.453125 C 487.332031 141.453125 488.011719 140.769531 488.011719 139.925781 L 488.011719 66.726562 C 488.011719 65.886719 487.332031 65.203125 486.492188 65.203125 Z M 486.492188 65.203125 " fill-opacity="1" fill-rule="nonzero"/><path fill="#008037" d="M 498.664062 89.601562 C 497.824219 89.601562 497.140625 90.285156 497.140625 91.125 L 497.140625 115.527344 C 497.140625 116.367188 497.824219 117.050781 498.664062 117.050781 C 499.503906 117.050781 500.183594 116.367188 500.183594 115.527344 L 500.183594 91.125 C 500.183594 90.285156 499.503906 89.601562 498.664062 89.601562 Z M 498.664062 89.601562 " fill-opacity="1" fill-rule="nonzero"/><g clip-path="url(#a96b89093b)"><path fill="#008037" d="M 510.835938 34.703125 C 509.996094 34.703125 509.3125 35.386719 509.3125 36.226562 L 509.3125 170.425781 C 509.3125 171.269531 509.996094 171.953125 510.835938 171.953125 C 511.675781 171.953125 512.355469 171.269531 512.355469 170.425781 L 512.355469 36.226562 C 512.355469 35.386719 511.675781 34.703125 510.835938 34.703125 Z M 510.835938 34.703125 " fill-opacity="1" fill-rule="nonzero"/></g><path fill="#008037" d="M 523.007812 59.101562 C 522.167969 59.101562 521.488281 59.785156 521.488281 60.625 L 521.488281 146.027344 C 521.488281 146.867188 522.167969 147.550781 523.007812 147.550781 C 523.847656 147.550781 524.53125 146.867188 524.53125 146.027344 L 524.53125 60.625 C 524.53125 59.785156 523.847656 59.101562 523.007812 59.101562 Z M 523.007812 59.101562 " fill-opacity="1" fill-rule="nonzero"/><path fill="#008037" d="M 535.179688 71.300781 C 534.339844 71.300781 533.660156 71.984375 533.660156 72.828125 L 533.660156 133.828125 C 533.660156 134.667969 534.339844 135.351562 535.179688 135.351562 C 536.019531 135.351562 536.703125 134.667969 536.703125 133.828125 L 536.703125 72.828125 C 536.703125 71.984375 536.019531 71.300781 535.179688 71.300781 Z M 535.179688 71.300781 " fill-opacity="1" fill-rule="nonzero"/><path fill="#008037" d="M 547.351562 89.601562 C 546.511719 89.601562 545.832031 90.285156 545.832031 91.125 L 545.832031 115.527344 C 545.832031 116.367188 546.511719 117.050781 547.351562 117.050781 C 548.191406 117.050781 548.875 116.367188 548.875 115.527344 L 548.875 91.125 C 548.875 90.285156 548.191406 89.601562 547.351562 89.601562 Z M 547.351562 89.601562 " fill-opacity="1" fill-rule="nonzero"/><path fill="#008037" d="M 559.523438 95.703125 C 558.683594 95.703125 558.003906 96.386719 558.003906 97.226562 L 558.003906 109.425781 C 558.003906 110.269531 558.683594 110.953125 559.523438 110.953125 C 560.363281 110.953125 561.046875 110.269531 561.046875 109.425781 L 561.046875 97.226562 C 561.046875 96.386719 560.363281 95.703125 559.523438 95.703125 Z M 559.523438 95.703125 " fill-opacity="1" fill-rule="nonzero"/><path fill="#008037" d="M 571.695312 71.300781 C 570.855469 71.300781 570.175781 71.984375 570.175781 72.828125 L 570.175781 127.726562 C 570.175781 128.570312 570.855469 129.25 571.695312 129.25 C 572.535156 129.25 573.21875 128.570312 573.21875 127.726562 L 573.21875 72.828125 C 573.21875 71.984375 572.535156 71.300781 571.695312 71.300781 Z M 571.695312 71.300781 " fill-opacity="1" fill-rule="nonzero"/><path fill="#008037" d="M 583.871094 89.601562 C 583.03125 89.601562 582.347656 90.285156 582.347656 91.125 L 582.347656 115.527344 C 582.347656 116.367188 583.03125 117.050781 583.871094 117.050781 C 584.710938 117.050781 585.390625 116.367188 585.390625 115.527344 L 585.390625 91.125 C 585.390625 90.285156 584.710938 89.601562 583.871094 89.601562 Z M 583.871094 89.601562 " fill-opacity="1" fill-rule="nonzero"/><g clip-path="url(#f699302dd2)"><path fill="#008037" d="M 596.042969 95.703125 C 595.203125 95.703125 594.519531 96.386719 594.519531 97.226562 L 594.519531 109.425781 C 594.519531 110.269531 595.203125 110.953125 596.042969 110.953125 C 596.882812 110.953125 597.5625 110.269531 597.5625 109.425781 L 597.5625 97.226562 C 597.5625 96.386719 596.882812 95.703125 596.042969 95.703125 Z M 596.042969 95.703125 " fill-opacity="1" fill-rule="nonzero"/></g></svg>