<svg width="247" height="139" viewBox="0 0 247 139" fill="none" xmlns="http://www.w3.org/2000/svg">
<g filter="url(#filter0_d_204_26)">
<path d="M195.171 130.998C201.466 131.05 207.709 129.866 213.536 127.516C219.362 125.166 224.655 121.696 229.107 117.309C233.559 112.922 237.08 107.706 239.465 101.964C241.85 96.2226 243.051 90.0705 242.998 83.8667C242.979 72.0734 238.501 60.7104 230.438 51.9956C222.375 43.2809 211.306 37.84 199.391 36.735C199.326 27.0119 195.378 17.7051 188.401 10.8297C181.424 3.95427 171.98 0.0635814 162.113 0C154.833 0.127387 147.737 2.27626 141.641 6.19969C135.544 10.1231 130.695 15.6619 127.649 22.1796C122.257 19.0894 116.295 17.0855 110.11 16.2844C103.924 15.4833 97.6395 15.9009 91.6196 17.513C85.5996 19.125 79.9646 21.8994 75.0415 25.6751C70.1185 29.4508 66.0056 34.1526 62.9415 39.5075C59.4647 45.961 57.3136 53.027 56.6114 60.3008C47.6575 56.2567 37.4401 55.8833 28.2069 59.2629C18.9737 62.6425 11.481 69.4982 7.37714 78.3218C3.27328 87.1454 2.89441 97.2141 6.32389 106.313C9.75338 115.412 16.7103 122.796 25.6642 126.84C30.5203 129.046 35.7911 130.226 41.1378 130.305L195.171 130.998Z" fill="#FEFEFE"/>
</g>
<defs>
<filter id="filter0_d_204_26" x="0" y="0" width="247" height="139" filterUnits="userSpaceOnUse" color-interpolation-filters="sRGB">
<feFlood flood-opacity="0" result="BackgroundImageFix"/>
<feColorMatrix in="SourceAlpha" type="matrix" values="0 0 0 0 0 0 0 0 0 0 0 0 0 0 0 0 0 0 127 0" result="hardAlpha"/>
<feOffset dy="4"/>
<feGaussianBlur stdDeviation="2"/>
<feComposite in2="hardAlpha" operator="out"/>
<feColorMatrix type="matrix" values="0 0 0 0 0 0 0 0 0 0 0 0 0 0 0 0 0 0 0.25 0"/>
<feBlend mode="normal" in2="BackgroundImageFix" result="effect1_dropShadow_204_26"/>
<feBlend mode="normal" in="SourceGraphic" in2="effect1_dropShadow_204_26" result="shape"/>
</filter>
</defs>
</svg>
