<svg xmlns="http://www.w3.org/2000/svg" xmlns:xlink="http://www.w3.org/1999/xlink" width="1024" zoomAndPan="magnify" viewBox="0 0 768 576" height="768" preserveAspectRatio="xMidYMid meet" version="1.0"><defs><clipPath id="e51fed4e6a"><path d="M 59.035156 264 L 238 264 L 238 446 L 59.035156 446 Z M 59.035156 264 " clip-rule="nonzero"/></clipPath><clipPath id="0f031db169"><path d="M 531 264 L 709.285156 264 L 709.285156 446 L 531 446 Z M 531 264 " clip-rule="nonzero"/></clipPath></defs><g clip-path="url(#e51fed4e6a)"><path fill="#fb2415" d="M 206.097656 445.929688 C 207.140625 410.8125 218.402344 378.21875 237.007812 351.019531 L 117.964844 264.570312 C 104.777344 283.324219 93.613281 303.433594 84.59375 324.746094 C 68.308594 363.230469 59.730469 403.96875 59.054688 445.929688 L 206.097656 445.929688 " fill-opacity="1" fill-rule="nonzero"/></g><g clip-path="url(#0f031db169)"><path fill="#1da600" d="M 650.425781 264.570312 L 531.378906 351.019531 C 549.984375 378.21875 561.246094 410.8125 562.289062 445.929688 L 709.328125 445.929688 C 708.65625 403.96875 700.078125 363.230469 683.796875 324.746094 C 674.773438 303.433594 663.613281 283.324219 650.425781 264.570312 " fill-opacity="1" fill-rule="nonzero"/></g><path fill="#bad600" d="M 489.785156 143.796875 L 444.324219 283.632812 C 476.53125 295.210938 504.46875 315.804688 525.066406 342.363281 L 644.117188 255.910156 C 634.988281 243.804688 624.988281 232.304688 614.136719 221.457031 C 584.296875 191.628906 549.523438 168.207031 510.792969 151.832031 C 503.863281 148.902344 496.859375 146.226562 489.785156 143.796875 " fill-opacity="1" fill-rule="nonzero"/><path fill="#ff7300" d="M 243.320312 342.363281 C 263.917969 315.804688 291.855469 295.210938 324.058594 283.632812 L 278.601562 143.796875 C 271.53125 146.226562 264.527344 148.902344 257.59375 151.832031 C 218.863281 168.207031 184.09375 191.628906 154.25 221.457031 C 143.398438 232.304688 133.394531 243.804688 124.269531 255.910156 L 243.320312 342.363281 " fill-opacity="1" fill-rule="nonzero"/><path fill="#ffaf00" d="M 334.25 280.316406 C 350.105469 275.683594 366.863281 273.195312 384.195312 273.195312 C 401.523438 273.195312 418.285156 275.683594 434.136719 280.316406 L 479.597656 140.480469 C 448.828125 131.035156 416.863281 126.261719 384.195312 126.261719 C 351.523438 126.261719 319.5625 131.035156 288.789062 140.480469 L 334.25 280.316406 " fill-opacity="1" fill-rule="nonzero"/><path fill="#000000" d="M 381.355469 441.496094 L 612.539062 414.753906 L 385.835938 467.347656 Z M 381.355469 441.496094 " fill-opacity="1" fill-rule="nonzero"/><path fill="#262222" d="M 388.324219 453.601562 C 387.433594 448.488281 390.984375 443.5625 396.402344 442.386719 L 396.660156 442.335938 C 396.734375 442.320312 396.800781 442.304688 396.875 442.292969 C 397.40625 442.199219 397.949219 442.144531 398.488281 442.132812 L 398.640625 442.128906 L 566.828125 422.671875 L 401.902344 460.933594 L 401.757812 460.980469 C 401.246094 461.148438 400.714844 461.28125 400.183594 461.375 C 400.117188 461.386719 400.046875 461.394531 399.980469 461.402344 L 399.703125 461.445312 C 394.203125 462.15625 389.207031 458.714844 388.324219 453.601562 " fill-opacity="1" fill-rule="nonzero"/><path fill="#000000" d="M 386.433594 467.242188 C 378.929688 468.542969 371.839844 463.8125 370.601562 456.671875 C 369.363281 449.535156 374.445312 442.691406 381.953125 441.390625 C 389.460938 440.089844 396.546875 444.824219 397.789062 451.960938 C 399.023438 459.101562 393.941406 465.941406 386.433594 467.242188 " fill-opacity="1" fill-rule="nonzero"/><path fill="#ffaf00" d="M 432.488281 48.292969 C 432.488281 74.953125 410.867188 96.570312 384.195312 96.570312 C 357.519531 96.570312 335.898438 74.953125 335.898438 48.292969 C 335.898438 21.632812 357.519531 0.0273438 384.195312 0.0273438 C 410.867188 0.0273438 432.488281 21.632812 432.488281 48.292969 " fill-opacity="1" fill-rule="nonzero"/><path fill="#bf8300" d="M 374.84375 35.484375 C 374.84375 40.230469 370.996094 44.074219 366.246094 44.074219 C 361.503906 44.074219 357.652344 40.230469 357.652344 35.484375 C 357.652344 30.742188 361.503906 26.898438 366.246094 26.898438 C 370.996094 26.898438 374.84375 30.742188 374.84375 35.484375 " fill-opacity="1" fill-rule="nonzero"/><path fill="#bf8300" d="M 410.730469 35.484375 C 410.730469 40.230469 406.882812 44.074219 402.136719 44.074219 C 397.390625 44.074219 393.542969 40.230469 393.542969 35.484375 C 393.542969 30.742188 397.390625 26.898438 402.136719 26.898438 C 406.882812 26.898438 410.730469 30.742188 410.730469 35.484375 " fill-opacity="1" fill-rule="nonzero"/><path fill="#bf8300" d="M 407.011719 69.785156 L 361.375 69.785156 C 360.027344 69.785156 358.9375 68.695312 358.9375 67.351562 C 358.9375 66.003906 360.027344 64.917969 361.375 64.917969 L 407.011719 64.917969 C 408.359375 64.917969 409.449219 66.003906 409.449219 67.351562 C 409.449219 68.695312 408.359375 69.785156 407.011719 69.785156 " fill-opacity="1" fill-rule="nonzero"/><path fill="#fb2415" d="M 167.71875 527.683594 C 167.71875 554.34375 146.097656 575.957031 119.421875 575.957031 C 92.75 575.957031 71.128906 554.34375 71.128906 527.683594 C 71.128906 501.027344 92.75 479.414062 119.421875 479.414062 C 146.097656 479.414062 167.71875 501.027344 167.71875 527.683594 " fill-opacity="1" fill-rule="nonzero"/><path fill="#7e120b" d="M 110.074219 514.875 C 110.074219 519.621094 106.226562 523.464844 101.480469 523.464844 C 96.734375 523.464844 92.886719 519.621094 92.886719 514.875 C 92.886719 510.132812 96.734375 506.285156 101.480469 506.285156 C 106.226562 506.285156 110.074219 510.132812 110.074219 514.875 " fill-opacity="1" fill-rule="nonzero"/><path fill="#7e120b" d="M 145.964844 514.875 C 145.964844 519.621094 142.113281 523.464844 137.371094 523.464844 C 132.621094 523.464844 128.773438 519.621094 128.773438 514.875 C 128.773438 510.132812 132.621094 506.285156 137.371094 506.285156 C 142.113281 506.285156 145.964844 510.132812 145.964844 514.875 " fill-opacity="1" fill-rule="nonzero"/><path fill="#7e120b" d="M 142.636719 547.164062 C 129.488281 535.277344 109.359375 535.277344 96.214844 547.164062 C 95.046875 548.214844 94.167969 548.082031 94.167969 546.734375 C 94.167969 545.394531 95.046875 543.34375 96.214844 542.296875 C 109.359375 530.40625 129.488281 530.40625 142.636719 542.296875 C 143.800781 543.34375 144.679688 545.394531 144.679688 546.734375 C 144.679688 548.082031 143.800781 548.214844 142.636719 547.164062 " fill-opacity="1" fill-rule="nonzero"/><path fill="#1da600" d="M 697.253906 527.683594 C 697.253906 554.34375 675.636719 575.957031 648.964844 575.957031 C 622.289062 575.957031 600.667969 554.34375 600.667969 527.683594 C 600.667969 501.027344 622.289062 479.414062 648.964844 479.414062 C 675.636719 479.414062 697.253906 501.027344 697.253906 527.683594 " fill-opacity="1" fill-rule="nonzero"/><path fill="#105e00" d="M 639.613281 514.875 C 639.613281 519.621094 635.765625 523.464844 631.019531 523.464844 C 626.269531 523.464844 622.421875 519.621094 622.421875 514.875 C 622.421875 510.132812 626.269531 506.285156 631.019531 506.285156 C 635.765625 506.285156 639.613281 510.132812 639.613281 514.875 " fill-opacity="1" fill-rule="nonzero"/><path fill="#105e00" d="M 675.503906 514.875 C 675.503906 519.621094 671.65625 523.464844 666.910156 523.464844 C 662.15625 523.464844 658.3125 519.621094 658.3125 514.875 C 658.3125 510.132812 662.15625 506.285156 666.910156 506.285156 C 671.65625 506.285156 675.503906 510.132812 675.503906 514.875 " fill-opacity="1" fill-rule="nonzero"/><path fill="#105e00" d="M 649.074219 559.628906 C 661.980469 559.628906 672.445312 549.519531 672.445312 537.050781 L 625.703125 537.050781 C 625.703125 549.519531 636.164062 559.628906 649.074219 559.628906 " fill-opacity="1" fill-rule="nonzero"/></svg>