<svg xmlns="http://www.w3.org/2000/svg" xmlns:xlink="http://www.w3.org/1999/xlink" width="1024" zoomAndPan="magnify" viewBox="0 0 768 576" height="768" preserveAspectRatio="xMidYMid meet" version="1.0"><defs><clipPath id="cfb37139c9"><path d="M 116.421875 0 L 651.921875 0 L 651.921875 576 L 116.421875 576 Z M 116.421875 0 " clip-rule="nonzero"/></clipPath></defs><g clip-path="url(#cfb37139c9)"><path fill="#8e2de2" d="M 404.757812 555.429688 L 404.757812 20.570312 C 404.757812 9.214844 395.535156 0 384.171875 0 C 372.808594 0 363.585938 9.214844 363.585938 20.570312 L 363.585938 555.429688 C 363.585938 566.785156 372.808594 576 384.171875 576 C 395.535156 576 404.757812 566.785156 404.757812 555.429688 Z M 487.097656 452.570312 L 487.097656 123.429688 C 487.097656 112.074219 477.875 102.855469 466.511719 102.855469 C 455.148438 102.855469 445.925781 112.074219 445.925781 123.429688 L 445.925781 452.570312 C 445.925781 463.925781 455.148438 473.144531 466.511719 473.144531 C 477.875 473.144531 487.097656 463.925781 487.097656 452.570312 Z M 322.417969 452.570312 L 322.417969 123.429688 C 322.417969 112.074219 313.195312 102.855469 301.832031 102.855469 C 290.46875 102.855469 281.246094 112.074219 281.246094 123.429688 L 281.246094 452.570312 C 281.246094 463.925781 290.46875 473.144531 301.832031 473.144531 C 313.195312 473.144531 322.417969 463.925781 322.417969 452.570312 Z M 569.4375 390.855469 L 569.4375 185.144531 C 569.4375 173.789062 560.214844 164.570312 548.851562 164.570312 C 537.488281 164.570312 528.265625 173.789062 528.265625 185.144531 L 528.265625 390.855469 C 528.265625 402.210938 537.488281 411.429688 548.851562 411.429688 C 560.214844 411.429688 569.4375 402.210938 569.4375 390.855469 Z M 240.078125 390.855469 L 240.078125 185.144531 C 240.078125 173.789062 230.855469 164.570312 219.492188 164.570312 C 208.128906 164.570312 198.90625 173.789062 198.90625 185.144531 L 198.90625 390.855469 C 198.90625 402.210938 208.128906 411.429688 219.492188 411.429688 C 230.855469 411.429688 240.078125 402.210938 240.078125 390.855469 Z M 157.738281 349.714844 L 157.738281 226.285156 C 157.738281 214.929688 148.515625 205.714844 137.152344 205.714844 C 125.789062 205.714844 116.566406 214.929688 116.566406 226.285156 L 116.566406 349.714844 C 116.566406 361.070312 125.789062 370.285156 137.152344 370.285156 C 148.515625 370.285156 157.738281 361.070312 157.738281 349.714844 Z M 651.777344 349.714844 L 651.777344 226.285156 C 651.777344 214.929688 642.554688 205.714844 631.191406 205.714844 C 619.828125 205.714844 610.605469 214.929688 610.605469 226.285156 L 610.605469 349.714844 C 610.605469 361.070312 619.828125 370.285156 631.191406 370.285156 C 642.554688 370.285156 651.777344 361.070312 651.777344 349.714844 Z M 651.777344 349.714844 " fill-opacity="1" fill-rule="evenodd"/></g></svg>