<svg xmlns="http://www.w3.org/2000/svg" xmlns:xlink="http://www.w3.org/1999/xlink" width="1024" zoomAndPan="magnify" viewBox="0 0 768 576" height="768" preserveAspectRatio="xMidYMid meet" version="1.0"><defs><clipPath id="658a662ff2"><path d="M 95.425781 209 L 107 209 L 107 220.984375 L 95.425781 220.984375 Z M 95.425781 209 " clip-rule="nonzero"/></clipPath><clipPath id="aef7381f11"><path d="M 276 109.234375 L 288.175781 109.234375 L 288.175781 121 L 276 121 Z M 276 109.234375 " clip-rule="nonzero"/></clipPath><clipPath id="30ae49c4f6"><path d="M 544 415 L 575 415 L 575 431.417969 L 544 431.417969 Z M 544 415 " clip-rule="nonzero"/></clipPath><clipPath id="401d48891b"><path d="M 572 415 L 603 415 L 603 431.417969 L 572 431.417969 Z M 572 415 " clip-rule="nonzero"/></clipPath><clipPath id="cc659d9ad1"><path d="M 509.875 366 L 524 366 L 524 381 L 509.875 381 Z M 509.875 366 " clip-rule="nonzero"/></clipPath><clipPath id="a26237c17d"><path d="M 682 335.417969 L 695.875 335.417969 L 695.875 349 L 682 349 Z M 682 335.417969 " clip-rule="nonzero"/></clipPath><clipPath id="8bb976df18"><path d="M 119 383.546875 L 131 383.546875 L 131 395 L 119 395 Z M 119 383.546875 " clip-rule="nonzero"/></clipPath><clipPath id="d196af10f8"><path d="M 74.554688 406 L 86 406 L 86 418 L 74.554688 418 Z M 74.554688 406 " clip-rule="nonzero"/></clipPath><clipPath id="002e4c26c9"><path d="M 160 475 L 172 475 L 172 486.296875 L 160 486.296875 Z M 160 475 " clip-rule="nonzero"/></clipPath><clipPath id="a046d5b1e2"><path d="M 226 437 L 237.304688 437 L 237.304688 449 L 226 449 Z M 226 437 " clip-rule="nonzero"/></clipPath></defs><path fill="#a25224" d="M 226.332031 302.867188 C 209.984375 322.898438 186.019531 342.027344 175.054688 365.6875 C 165.574219 387.527344 184.097656 403.542969 197.59375 406.039062 C 211.09375 408.53125 250.332031 396.101562 267.183594 381.03125 C 287.839844 362.234375 304.894531 344.175781 318.261719 319.4375 C 319.003906 318.527344 318.917969 317.699219 319.664062 316.789062 " fill-opacity="1" fill-rule="nonzero"/><path fill="#57708c" d="M 347.246094 201.664062 C 287.585938 181.648438 261.972656 225.371094 250.125 239.042969 C 238.273438 252.714844 236.257812 259.714844 221.171875 269.855469 C 205.867188 280.734375 175.382812 286.566406 183.132812 307.210938 C 188.726562 323.4375 213.777344 344.855469 229.523438 353.027344 C 240.023438 358.472656 252.144531 364.273438 264.765625 365.445312 C 269.855469 365.765625 293.097656 366.09375 291.753906 361.851562 " fill-opacity="1" fill-rule="nonzero"/><path fill="#57708c" d="M 417.140625 194.417969 C 426.28125 198.570312 439.585938 195.246094 448.730469 192.753906 C 466.1875 187.769531 481.152344 184.449219 499.4375 186.941406 C 534.355469 191.09375 578.414062 218.511719 590.886719 251.746094 C 602.523438 282.488281 582.574219 315.722656 549.320312 317.386719 C 519.390625 319.046875 481.980469 330.679688 481.980469 330.679688 " fill-opacity="1" fill-rule="nonzero"/><path fill="#7d00ff" d="M 430.164062 54.554688 C 446.789062 46.800781 476.71875 45.691406 485.585938 66.742188 C 495.5625 92.222656 465.632812 105.515625 449.007812 115.484375 L 443.464844 102.191406 C 452.332031 96.652344 478.800781 83.25 469.761719 68.957031 C 461.617188 56.078125 441.773438 62.128906 434.597656 66.742188 Z M 430.164062 54.554688 " fill-opacity="1" fill-rule="nonzero"/><path fill="#a25224" d="M 354.789062 150.933594 C 354.789062 162.011719 357.003906 177.523438 350.355469 186.386719 C 340.378906 200.785156 314.886719 201.894531 299.367188 206.328125 C 288.28125 209.648438 273.871094 212.972656 272.765625 227.375 C 271.65625 239.5625 283.847656 253.960938 290.5 265.039062 C 303.800781 287.199219 320.425781 310.460938 328.1875 335.941406 C 337.054688 369.175781 340.378906 467.769531 391.367188 461.125 C 417.96875 457.800781 474.5 329.570312 481.152344 314.0625 C 499.996094 265.316406 516.621094 227.375 464.523438 204.109375 C 455.65625 199.679688 423.722656 194.695312 418.179688 190.261719 C 405.984375 182.507812 411.320312 155.367188 412.429688 144.289062 " fill-opacity="1" fill-rule="nonzero"/><path fill="#7d00ff" d="M 320.851562 82.769531 C 320.28125 82.863281 319.710938 82.976562 319.148438 83.113281 C 309.664062 85.402344 301.863281 104.417969 302.707031 113.640625 C 303.570312 123.097656 310.199219 134.039062 319.265625 138.667969 C 332.742188 145.554688 354.632812 132.496094 354.632812 111.5 C 354.632812 85.6875 340.65625 79.566406 320.851562 82.769531 Z M 320.851562 82.769531 " fill-opacity="1" fill-rule="nonzero"/><path fill="#1d0e07" d="M 336.5 38.214844 C 321.535156 44.863281 314.054688 76.433594 324.03125 89.726562 C 334.007812 103.023438 338.992188 79.757812 341.488281 71.449219 C 344.8125 61.480469 346.476562 48.183594 356.453125 42.371094 " fill-opacity="1" fill-rule="nonzero"/><path fill="#a25224" d="M 413.082031 154.71875 C 385.714844 172.5 345.363281 167.53125 334.007812 139.347656 C 333.957031 139.246094 333.921875 139.132812 333.875 139.015625 C 331.195312 132.136719 329.484375 119.472656 328.867188 106.378906 C 328.203125 91.441406 328.96875 75.9375 331.460938 67.828125 C 333.742188 60.382812 340.339844 31.152344 386.761719 31.152344 C 433.183594 31.152344 436.957031 62.644531 439.367188 77.632812 C 443.292969 102.058594 433.351562 141.558594 413.082031 154.71875 Z M 413.082031 154.71875 " fill-opacity="1" fill-rule="nonzero"/><path fill="#1d0e07" d="M 337.605469 85.296875 C 339.519531 86.589844 359.125 87.808594 361.269531 87.511719 C 363.414062 87.214844 362.917969 77.449219 358.691406 75.789062 C 354.460938 74.128906 340.769531 75.789062 337.605469 78.003906 C 334.4375 80.21875 335.691406 84.003906 337.605469 85.296875 Z M 337.605469 85.296875 " fill-opacity="1" fill-rule="nonzero"/><path fill="#1d0e07" d="M 416.246094 85.296875 C 414.328125 86.589844 394.726562 87.808594 392.582031 87.511719 C 390.4375 87.214844 390.929688 77.449219 395.160156 75.789062 C 399.386719 74.128906 413.078125 75.789062 416.246094 78.003906 C 419.410156 80.21875 418.160156 84.003906 416.246094 85.296875 Z M 416.246094 85.296875 " fill-opacity="1" fill-rule="nonzero"/><path fill="#7d00ff" d="M 369.390625 96.011719 C 367.78125 102.382812 365.113281 108.175781 362.566406 114.203125 C 361.140625 117.574219 359.816406 121.140625 361.421875 124.636719 C 363.378906 128.914062 373.371094 128.910156 376.566406 126.421875 C 377.398438 125.773438 376.898438 124.292969 375.949219 124.078125 C 372 123.199219 362.636719 127.222656 364.324219 119.355469 C 366.046875 111.34375 371.667969 104.800781 372.070312 96.375 C 372.144531 94.824219 369.765625 94.53125 369.390625 96.011719 Z M 369.390625 96.011719 " fill-opacity="1" fill-rule="nonzero"/><path fill="#1d0e07" d="M 386.441406 132.910156 C 380.53125 133.933594 374.9375 136.292969 368.839844 135 C 365.214844 134.230469 362.144531 132.359375 358.371094 132.132812 C 357.152344 132.058594 356.90625 133.976562 358.085938 134.25 C 362.082031 135.167969 366.167969 137.242188 370.273438 137.488281 C 375.894531 137.828125 381.625 136.375 386.832031 134.339844 C 387.722656 133.992188 387.390625 132.746094 386.441406 132.910156 Z M 386.441406 132.910156 " fill-opacity="1" fill-rule="nonzero"/><path fill="#c46731" d="M 422.125 112.992188 C 414.644531 112.992188 410.488281 112.992188 405.5 118.808594 C 401.34375 124.625 395.523438 140.410156 402.175781 144.566406 C 414.644531 152.042969 439.585938 118.808594 424.621094 115.484375 Z M 422.125 112.992188 " fill-opacity="0.8" fill-rule="nonzero"/><path fill="#c46731" d="M 343.648438 140.3125 C 340.273438 141.757812 336.898438 141.027344 333.871094 139.015625 C 331.195312 132.136719 329.484375 119.472656 328.867188 106.378906 C 329.882812 106.03125 330.960938 105.847656 332.058594 105.796875 C 338.195312 105.5 345.144531 109.351562 347.007812 113.941406 C 349.636719 120.355469 351.3125 137.019531 343.648438 140.3125 Z M 343.648438 140.3125 " fill-opacity="0.8" fill-rule="nonzero"/><path fill="#1d0e07" d="M 356.636719 54.476562 C 351.558594 56.355469 346.359375 57.980469 341.019531 57.09375 C 333.117188 55.789062 326.421875 49.328125 322.933594 42.367188 C 321.128906 38.777344 320.128906 35.019531 319.976562 31.003906 C 319.886719 28.609375 320.148438 21.242188 321.535156 19.898438 C 322.921875 18.550781 324.859375 23.222656 326.523438 24.882812 C 325.691406 18.234375 327.90625 9.332031 329.847656 7.433594 C 331.789062 5.535156 334.835938 9.925781 336.5 11.589844 C 336.5 8.265625 337.050781 3.242188 339.824219 1.617188 C 342.59375 -0.00390625 350.632812 13.25 358.113281 16.574219 C 365.59375 20.726562 373.90625 19.894531 382.222656 19.894531 C 401.34375 19.894531 416.308594 19.066406 428.777344 36.515625 C 438.753906 49.808594 446.234375 69.75 445.402344 86.367188 C 445.402344 90.925781 445.078125 103.132812 438.402344 100.234375 C 432.734375 97.773438 432.378906 86.472656 431.265625 81.6875 C 429.226562 72.941406 425.789062 67.289062 418.875 61.386719 C 403.550781 48.308594 384.199219 45.816406 365.101562 51.457031 C 362.3125 52.277344 359.496094 53.417969 356.636719 54.476562 Z M 356.636719 54.476562 " fill-opacity="1" fill-rule="nonzero"/><path fill="#7d00ff" d="M 432.425781 82.769531 C 431.855469 82.863281 431.285156 82.976562 430.722656 83.113281 C 421.238281 85.402344 413.433594 104.417969 414.28125 113.640625 C 415.144531 123.097656 421.773438 134.039062 430.839844 138.667969 C 444.316406 145.554688 466.207031 132.496094 466.207031 111.5 C 466.203125 85.6875 452.230469 79.566406 432.425781 82.769531 Z M 432.425781 82.769531 " fill-opacity="1" fill-rule="nonzero"/><path fill="#a25224" d="M 325.253906 209.144531 C 323.675781 206.757812 322.160156 204.339844 320.996094 201.722656 C 320.835938 201.367188 320.285156 201.625 320.378906 201.984375 C 321.132812 204.808594 322.855469 207.203125 324.46875 209.601562 C 324.792969 210.085938 325.578125 209.636719 325.253906 209.144531 Z M 325.253906 209.144531 " fill-opacity="1" fill-rule="nonzero"/><path fill="#57708c" d="M 306.53125 202.726562 C 317.339844 207.710938 320.664062 222.667969 329.808594 236.792969 C 341.449219 255.070312 358.074219 267.535156 379.691406 259.226562 C 400.472656 250.917969 417.101562 235.128906 431.230469 216.851562 C 435.390625 211.035156 442.039062 195.25 449.519531 192.753906 C 456.171875 191.09375 471.964844 199.402344 478.617188 201.0625 C 496.90625 207.710938 504.566406 219.847656 507.058594 238.957031 C 510.386719 258.898438 508.585938 290.796875 504.429688 311.566406 C 497.773438 344.832031 486.75 376.929688 479.511719 410.042969 C 471.683594 445.871094 475.351562 476.859375 479.394531 512.796875 C 481.433594 530.941406 480.542969 552.511719 459.890625 558.152344 C 442.792969 562.824219 375.113281 575.992188 358.113281 568.511719 C 337.664062 559.511719 315.632812 555.65625 293.847656 551.394531 C 278.273438 548.347656 252.660156 546.792969 246.839844 528.609375 C 244.089844 520.011719 250.753906 510.980469 254.195312 503.707031 C 272.699219 464.59375 279.242188 421.867188 286.582031 379.699219 C 289.90625 360.589844 289.90625 341.480469 285.75 323.199219 C 281.589844 306.582031 274.109375 290.796875 270.785156 274.179688 C 265.796875 251.746094 263.675781 246.457031 270.160156 227.914062 C 276.644531 209.371094 295.722656 197.742188 306.53125 202.726562 Z M 306.53125 202.726562 " fill-opacity="1" fill-rule="nonzero"/><path fill="#a25224" d="M 568.996094 232.082031 C 558.894531 215.164062 505.496094 191.1875 490.734375 167.914062 C 481.871094 153.945312 479.933594 137.898438 470.484375 124.746094 C 466.433594 118.671875 459.6875 112.941406 453.277344 109.90625 C 450.914062 108.554688 433.367188 103.832031 438.089844 110.578125 C 435.726562 110.242188 431.847656 109.398438 431.003906 111.253906 C 430.160156 113.109375 440.203125 118.328125 442.226562 121.363281 C 444.25 124.398438 447.34375 131.824219 447.34375 131.824219 C 447.34375 131.824219 434.90625 122.578125 433.367188 126.09375 C 431.824219 129.609375 441.722656 134.320312 443.488281 138.234375 C 445.257812 142.152344 447.875 149.363281 449.226562 155.097656 C 451.679688 163.066406 463.339844 168.792969 469.511719 177.800781 C 475.6875 186.804688 505.332031 266.421875 516.378906 277.1875 C 545.738281 305.792969 576.507812 296.503906 582.089844 286.21875 C 587.671875 275.9375 579.097656 249 568.996094 232.082031 Z M 568.996094 232.082031 " fill-opacity="1" fill-rule="nonzero"/><path fill="#57708c" d="M 449.558594 89.039062 C 441.753906 88.519531 433.421875 91.007812 428.027344 96.859375 C 423.570312 101.695312 421.625 111.285156 425.871094 116.730469 C 426.214844 117.171875 426.835938 116.761719 426.867188 116.316406 C 427.085938 113.390625 426.183594 110.578125 426.242188 107.628906 C 426.316406 103.882812 428.125 100.476562 430.601562 97.78125 C 435.417969 92.539062 442.816406 91.117188 449.558594 90.414062 C 450.433594 90.324219 450.457031 89.101562 449.558594 89.039062 Z M 449.558594 89.039062 " fill-opacity="1" fill-rule="nonzero"/><path fill="#57708c" d="M 318.554688 95.890625 C 308.746094 104.199219 314.648438 117.609375 320.324219 126.507812 C 320.59375 126.933594 321.253906 126.660156 321.132812 126.167969 C 320.054688 121.835938 318.226562 117.847656 316.804688 113.632812 C 314.609375 107.136719 316.441406 102.40625 319.636719 96.722656 C 320.035156 96.011719 319.136719 95.394531 318.554688 95.890625 Z M 318.554688 95.890625 " fill-opacity="1" fill-rule="nonzero"/><path fill="#7d00ff" d="M 360.195312 161.890625 C 371.28125 168.207031 390.917969 171.066406 400.074219 159.914062 C 400.464844 159.441406 399.980469 158.710938 399.398438 159.039062 C 392.71875 162.800781 387.25 165.304688 379.355469 165.210938 C 372.792969 165.136719 366.832031 162.703125 360.828125 160.394531 C 359.945312 160.054688 359.40625 161.4375 360.195312 161.890625 Z M 360.195312 161.890625 " fill-opacity="1" fill-rule="nonzero"/><path fill="#a25224" d="M 197.59375 406.039062 C 221.609375 417.261719 293.261719 377.847656 326.261719 365.476562 C 371.949219 348.351562 404.90625 323.445312 404.09375 320.542969 C 403.28125 317.636719 391.480469 325.039062 385.664062 326.664062 C 385.664062 326.664062 418.054688 296.246094 416.367188 294.316406 C 412.132812 289.484375 378.921875 316.808594 381.355469 319.492188 C 383.792969 322.175781 421.351562 286.921875 419.878906 284.460938 C 418.410156 282.003906 382.777344 306.828125 379.871094 307.640625 C 380.917969 305.78125 416.277344 279.988281 413.703125 277.3125 C 411.128906 274.636719 385.210938 293.097656 371.484375 300.0625 C 373.582031 296.34375 385.136719 281.632812 382.5625 278.960938 C 379.988281 276.285156 354.410156 306.988281 340.648438 318.472656 C 326.886719 329.953125 236.097656 321.855469 208.550781 345.175781 C 181.003906 368.5 173.582031 394.8125 197.59375 406.039062 Z M 197.59375 406.039062 " fill-opacity="1" fill-rule="nonzero"/><path fill="#c46731" d="M 259.453125 298.734375 C 264.648438 296.140625 269.78125 295.09375 273.238281 300.625 C 276.078125 305.175781 275.285156 310.761719 277.554688 315.332031 C 277.882812 315.992188 278.996094 315.847656 279.144531 315.125 C 279.777344 312.027344 278.542969 308.414062 277.699219 305.433594 C 276.871094 302.519531 275.609375 299.746094 273.65625 297.417969 C 269.636719 292.632812 263.207031 294.8125 258.914062 297.816406 C 258.355469 298.207031 258.835938 299.042969 259.453125 298.734375 Z M 259.453125 298.734375 " fill-opacity="1" fill-rule="nonzero"/><path fill="#c46731" d="M 506.34375 293.542969 C 501.289062 299.589844 498.363281 309.632812 497.933594 317.386719 C 497.894531 318.066406 498.871094 318.292969 499.191406 317.726562 C 501.203125 314.191406 502.074219 310.160156 503.226562 306.289062 C 504.441406 302.191406 506.160156 298.308594 507.710938 294.335938 C 508.007812 293.582031 506.855469 292.925781 506.34375 293.542969 Z M 506.34375 293.542969 " fill-opacity="1" fill-rule="nonzero"/><path fill="#c46731" d="M 186.640625 363.941406 C 175.996094 367.53125 175.261719 382.5625 183.765625 388.613281 C 191.0625 393.804688 200.480469 389.125 198.578125 380.050781 C 198.414062 379.257812 197.601562 378.738281 196.835938 378.722656 C 189.386719 378.59375 186.269531 385.515625 189.46875 391.941406 C 193.652344 400.339844 205.070312 399.179688 212.414062 395.707031 C 213.589844 395.152344 212.914062 393.496094 211.796875 393.433594 C 206.746094 393.148438 201.765625 394.898438 196.71875 394.027344 C 191.050781 393.046875 189.609375 382.238281 196.832031 382.335938 C 196.253906 381.894531 195.671875 381.453125 195.089844 381.007812 C 196.507812 387.640625 189.941406 388.113281 185.515625 385.617188 C 177.636719 381.164062 181.46875 369.796875 187.277344 365.460938 C 187.980469 364.9375 187.605469 363.617188 186.640625 363.941406 Z M 186.640625 363.941406 " fill-opacity="1" fill-rule="nonzero"/><path fill="#c46731" d="M 539.984375 261.121094 C 536.898438 266.605469 541.164062 273.96875 544.433594 278.414062 C 547.816406 283.019531 552.210938 286.589844 558.210938 286.011719 C 568.429688 285.03125 569.421875 273.507812 561.90625 268.402344 C 560.859375 267.691406 559.496094 268.4375 559.144531 269.527344 C 556.769531 276.917969 564.851562 283.875 571.351562 278.832031 C 575.828125 275.355469 574.675781 267.171875 573.707031 262.492188 C 572.394531 256.136719 568.523438 250.011719 562.070312 248.238281 C 561.117188 247.976562 560.191406 249.308594 561.046875 250 C 567.1875 254.960938 570.464844 261.273438 570.675781 269.195312 C 570.746094 271.996094 570 277.375 566.039062 276.808594 C 562.976562 276.367188 561.949219 273.101562 562.773438 270.527344 C 561.851562 270.902344 560.929688 271.277344 560.011719 271.648438 C 567.335938 276.605469 560.988281 283.886719 553.890625 281.914062 C 546.449219 279.847656 542.160156 268.476562 542.1875 261.71875 C 542.195312 260.550781 540.566406 260.089844 539.984375 261.121094 Z M 539.984375 261.121094 " fill-opacity="1" fill-rule="nonzero"/><path fill="#7d00ff" d="M 340.683594 28.1875 C 342.414062 36.859375 356.742188 46.9375 365.285156 40.488281 C 370.796875 36.324219 370.660156 22.324219 362.03125 21.753906 C 359.375 21.582031 355.703125 22.671875 355.746094 26.074219 C 355.816406 32.082031 361.003906 35.832031 366.140625 37.902344 C 372.433594 40.441406 380.53125 37.546875 386.695312 36.085938 C 397.804688 33.453125 408.730469 38.257812 415.617188 46.933594 C 416.355469 47.863281 417.582031 46.683594 417.148438 45.753906 C 412.011719 34.738281 396.976562 31.335938 386.015625 33.621094 C 381.6875 34.519531 377.589844 35.746094 373.160156 36.15625 C 371.011719 36.304688 368.894531 36.078125 366.808594 35.476562 C 364.863281 34.273438 362.921875 33.074219 360.980469 31.871094 C 365.40625 27.277344 367.355469 27.316406 366.824219 32 C 367.292969 47.277344 344.683594 37.609375 342.289062 27.746094 C 342.035156 26.699219 340.476562 27.148438 340.683594 28.1875 Z M 340.683594 28.1875 " fill-opacity="1" fill-rule="nonzero"/><path fill="#7d00ff" d="M 421.027344 500.308594 C 437.96875 491.757812 452.652344 476.882812 463.648438 461.582031 C 464.269531 460.714844 462.941406 459.800781 462.21875 460.480469 C 448.230469 473.679688 437.164062 488.941406 419.898438 498.378906 C 418.628906 499.074219 419.75 500.953125 421.027344 500.308594 Z M 421.027344 500.308594 " fill-opacity="1" fill-rule="nonzero"/><path fill="#1d0e07" d="M 343.882812 7.570312 C 349.71875 13.875 357.074219 17.089844 365.492188 18.355469 C 375.585938 19.871094 385.648438 15.914062 395.695312 15.78125 C 406.707031 15.640625 417.476562 20.574219 425.472656 27.898438 C 436.003906 37.539062 434.597656 49.429688 436.871094 62.183594 C 437.054688 63.226562 438.792969 63.234375 438.972656 62.183594 C 442.414062 42.402344 431.980469 25.015625 414.0625 17.023438 C 391.191406 6.816406 364.640625 26.03125 344.910156 6.542969 C 344.242188 5.882812 343.246094 6.886719 343.882812 7.570312 Z M 343.882812 7.570312 " fill-opacity="1" fill-rule="nonzero"/><path fill="#1d0e07" d="M 326.902344 41.59375 C 320.523438 44.445312 316.855469 50.613281 315.234375 57.1875 C 313.996094 62.21875 314.296875 70.652344 319.785156 73.140625 C 320.730469 73.570312 321.566406 72.714844 321.152344 71.773438 C 318.773438 66.367188 317.242188 62.742188 318.660156 56.660156 C 319.902344 51.335938 323.171875 46.101562 327.808594 43.140625 C 328.800781 42.507812 327.941406 41.132812 326.902344 41.59375 Z M 326.902344 41.59375 " fill-opacity="1" fill-rule="nonzero"/><path fill="#1d0e07" d="M 337.964844 97.128906 C 341.9375 104.78125 353.371094 107.046875 360.371094 102.113281 C 361.195312 101.535156 361.046875 99.792969 359.789062 99.960938 C 356.554688 100.390625 353.679688 101.648438 350.339844 101.714844 C 345.628906 101.808594 342.4375 99.234375 339.351562 96.0625 C 338.628906 95.320312 337.511719 96.257812 337.964844 97.128906 Z M 337.964844 97.128906 " fill-opacity="1" fill-rule="nonzero"/><path fill="#1d0e07" d="M 388.902344 101.183594 C 393.734375 103.59375 398.304688 105.035156 403.6875 104.140625 C 407.199219 103.554688 414.199219 101.417969 414.789062 97.285156 C 414.867188 96.738281 414.488281 96.289062 413.910156 96.40625 C 412.113281 96.773438 412.121094 97.148438 410.394531 98.382812 C 408.195312 99.953125 405.507812 100.738281 402.914062 101.339844 C 397.921875 102.5 393.828125 99.304688 389.0625 99.949219 C 388.480469 100.027344 388.414062 100.9375 388.902344 101.183594 Z M 388.902344 101.183594 " fill-opacity="1" fill-rule="nonzero"/><path fill="#7d00ff" d="M 127.710938 177.972656 L 127.800781 202.195312 C 127.804688 202.878906 127.25 203.4375 126.566406 203.4375 C 125.882812 203.441406 125.328125 202.890625 125.324219 202.207031 L 125.234375 177.984375 C 125.234375 177.300781 125.785156 176.742188 126.46875 176.742188 C 127.152344 176.738281 127.710938 177.289062 127.710938 177.972656 Z M 127.710938 177.972656 " fill-opacity="0.9882" fill-rule="nonzero"/><path fill="#7d00ff" d="M 125.917969 176.875 L 150.105469 164.671875 C 150.714844 164.363281 151.460938 164.609375 151.769531 165.21875 C 152.078125 165.832031 151.832031 166.574219 151.222656 166.882812 L 127.03125 179.082031 C 126.421875 179.390625 125.675781 179.144531 125.367188 178.535156 C 125.0625 177.925781 125.304688 177.179688 125.917969 176.875 Z M 125.917969 176.875 " fill-opacity="0.9882" fill-rule="nonzero"/><path fill="#7d00ff" d="M 151.214844 164.667969 L 175.492188 176.691406 C 176.105469 176.996094 176.355469 177.738281 176.050781 178.351562 C 175.746094 178.960938 175.003906 179.210938 174.390625 178.910156 L 150.113281 166.886719 C 149.5 166.582031 149.25 165.839844 149.554688 165.226562 C 149.855469 164.617188 150.601562 164.363281 151.214844 164.667969 Z M 151.214844 164.667969 " fill-opacity="0.9882" fill-rule="nonzero"/><path fill="#7d00ff" d="M 176.179688 177.796875 L 176.269531 202.019531 C 176.269531 202.703125 175.71875 203.257812 175.035156 203.261719 C 174.351562 203.265625 173.792969 202.710938 173.792969 202.027344 L 173.703125 177.804688 C 173.699219 177.121094 174.253906 176.566406 174.9375 176.5625 C 175.621094 176.558594 176.175781 177.113281 176.179688 177.796875 Z M 176.179688 177.796875 " fill-opacity="0.9882" fill-rule="nonzero"/><path fill="#7d00ff" d="M 127.113281 201.09375 L 151.390625 213.117188 C 152.003906 213.417969 152.253906 214.160156 151.949219 214.773438 C 151.648438 215.386719 150.902344 215.636719 150.292969 215.332031 L 126.011719 203.308594 C 125.402344 203.007812 125.148438 202.265625 125.453125 201.652344 C 125.757812 201.039062 126.5 200.789062 127.113281 201.09375 Z M 127.113281 201.09375 " fill-opacity="0.9882" fill-rule="nonzero"/><path fill="#7d00ff" d="M 150.285156 213.121094 L 174.472656 200.917969 C 175.082031 200.609375 175.828125 200.855469 176.136719 201.464844 C 176.445312 202.078125 176.199219 202.820312 175.589844 203.128906 L 151.398438 215.328125 C 150.789062 215.636719 150.042969 215.390625 149.734375 214.78125 C 149.425781 214.171875 149.671875 213.425781 150.285156 213.121094 Z M 150.285156 213.121094 " fill-opacity="0.9882" fill-rule="nonzero"/><path fill="#7d00ff" d="M 174.382812 176.695312 L 198.574219 164.496094 C 199.183594 164.1875 199.929688 164.433594 200.234375 165.042969 C 200.542969 165.652344 200.300781 166.398438 199.6875 166.703125 L 175.5 178.90625 C 174.890625 179.214844 174.144531 178.96875 173.835938 178.359375 C 173.527344 177.746094 173.773438 177.003906 174.382812 176.695312 Z M 174.382812 176.695312 " fill-opacity="0.9882" fill-rule="nonzero"/><path fill="#7d00ff" d="M 199.679688 164.492188 L 223.957031 176.515625 C 224.570312 176.816406 224.820312 177.558594 224.519531 178.171875 C 224.214844 178.785156 223.472656 179.035156 222.859375 178.730469 L 198.582031 166.707031 C 197.96875 166.40625 197.71875 165.664062 198.019531 165.050781 C 198.324219 164.4375 199.066406 164.1875 199.679688 164.492188 Z M 199.679688 164.492188 " fill-opacity="0.9882" fill-rule="nonzero"/><path fill="#7d00ff" d="M 224.648438 177.617188 L 224.734375 201.839844 C 224.738281 202.523438 224.1875 203.082031 223.503906 203.082031 C 222.816406 203.085938 222.261719 202.535156 222.257812 201.851562 L 222.171875 177.628906 C 222.167969 176.945312 222.71875 176.386719 223.402344 176.386719 C 224.089844 176.382812 224.644531 176.933594 224.648438 177.617188 Z M 224.648438 177.617188 " fill-opacity="0.9882" fill-rule="nonzero"/><path fill="#7d00ff" d="M 224.054688 202.953125 L 199.867188 215.152344 C 199.253906 215.460938 198.511719 215.214844 198.203125 214.605469 C 197.894531 213.996094 198.140625 213.25 198.75 212.941406 L 222.941406 200.742188 C 223.550781 200.433594 224.296875 200.679688 224.601562 201.289062 C 224.910156 201.898438 224.664062 202.644531 224.054688 202.953125 Z M 224.054688 202.953125 " fill-opacity="0.9882" fill-rule="nonzero"/><path fill="#7d00ff" d="M 175.578125 200.914062 L 199.859375 212.9375 C 200.472656 213.242188 200.722656 213.984375 200.417969 214.597656 C 200.113281 215.207031 199.371094 215.460938 198.757812 215.15625 L 174.480469 203.132812 C 173.867188 202.828125 173.617188 202.085938 173.921875 201.472656 C 174.222656 200.863281 174.96875 200.613281 175.578125 200.914062 Z M 175.578125 200.914062 " fill-opacity="0.9882" fill-rule="nonzero"/><path fill="#7d00ff" d="M 200.28125 141.371094 L 200.367188 165.59375 C 200.371094 166.277344 199.820312 166.835938 199.136719 166.835938 C 198.453125 166.839844 197.894531 166.289062 197.890625 165.605469 L 197.804688 141.382812 C 197.800781 140.699219 198.355469 140.140625 199.039062 140.140625 C 199.722656 140.136719 200.277344 140.6875 200.28125 141.371094 Z M 200.28125 141.371094 " fill-opacity="0.9882" fill-rule="nonzero"/><path fill="#7d00ff" d="M 198.484375 140.269531 L 222.671875 128.070312 C 223.285156 127.761719 224.027344 128.007812 224.335938 128.617188 C 224.644531 129.230469 224.398438 129.972656 223.789062 130.28125 L 199.601562 142.480469 C 198.988281 142.789062 198.246094 142.542969 197.9375 141.933594 C 197.628906 141.324219 197.875 140.578125 198.484375 140.269531 Z M 198.484375 140.269531 " fill-opacity="0.9882" fill-rule="nonzero"/><path fill="#7d00ff" d="M 223.78125 128.066406 L 248.058594 140.089844 C 248.671875 140.394531 248.921875 141.136719 248.617188 141.75 C 248.316406 142.359375 247.574219 142.609375 246.960938 142.308594 L 222.679688 130.285156 C 222.070312 129.980469 221.816406 129.238281 222.121094 128.625 C 222.425781 128.015625 223.167969 127.761719 223.78125 128.066406 Z M 223.78125 128.066406 " fill-opacity="0.9882" fill-rule="nonzero"/><path fill="#7d00ff" d="M 248.746094 141.195312 L 248.835938 165.417969 C 248.839844 166.101562 248.285156 166.65625 247.601562 166.660156 C 246.917969 166.664062 246.363281 166.109375 246.359375 165.425781 L 246.269531 141.203125 C 246.269531 140.519531 246.820312 139.964844 247.503906 139.960938 C 248.1875 139.957031 248.746094 140.511719 248.746094 141.195312 Z M 248.746094 141.195312 " fill-opacity="0.9882" fill-rule="nonzero"/><path fill="#7d00ff" d="M 248.15625 166.527344 L 223.964844 178.726562 C 223.355469 179.035156 222.613281 178.789062 222.304688 178.179688 C 221.996094 177.570312 222.242188 176.824219 222.851562 176.519531 L 247.039062 164.316406 C 247.652344 164.007812 248.394531 164.253906 248.703125 164.863281 C 249.011719 165.476562 248.765625 166.21875 248.15625 166.527344 Z M 248.15625 166.527344 " fill-opacity="0.9882" fill-rule="nonzero"/><path fill="#7d00ff" d="M 248.351562 164.128906 L 267.421875 173.558594 C 267.957031 173.824219 268.179688 174.476562 267.914062 175.011719 C 267.644531 175.550781 266.996094 175.773438 266.457031 175.503906 L 247.386719 166.078125 C 246.847656 165.8125 246.628906 165.160156 246.894531 164.621094 C 247.160156 164.085938 247.8125 163.863281 248.351562 164.128906 Z M 248.351562 164.128906 " fill-opacity="0.9882" fill-rule="nonzero"/><path fill="#7d00ff" d="M 246.78125 165.109375 L 246.675781 141.332031 C 246.675781 140.734375 247.160156 140.246094 247.757812 140.242188 C 248.359375 140.238281 248.847656 140.722656 248.851562 141.324219 L 248.953125 165.101562 C 248.957031 165.699219 248.472656 166.1875 247.871094 166.191406 C 247.273438 166.195312 246.785156 165.710938 246.78125 165.109375 Z M 246.78125 165.109375 " fill-opacity="0.9882" fill-rule="nonzero"/><path fill="#7d00ff" d="M 247.757812 140.242188 L 271.546875 140.136719 C 272.144531 140.136719 272.632812 140.621094 272.636719 141.21875 C 272.640625 141.820312 272.15625 142.308594 271.554688 142.3125 L 247.769531 142.414062 C 247.167969 142.417969 246.679688 141.933594 246.675781 141.332031 C 246.675781 140.734375 247.160156 140.246094 247.757812 140.242188 Z M 247.757812 140.242188 " fill-opacity="0.9882" fill-rule="nonzero"/><path fill="#7d00ff" d="M 272.417969 140.570312 L 286.769531 159.527344 C 287.132812 160.003906 287.039062 160.6875 286.558594 161.050781 C 286.082031 161.410156 285.398438 161.316406 285.039062 160.839844 L 270.683594 141.878906 C 270.320312 141.402344 270.414062 140.71875 270.894531 140.359375 C 271.371094 139.996094 272.054688 140.089844 272.417969 140.570312 Z M 272.417969 140.570312 " fill-opacity="0.9882" fill-rule="nonzero"/><path fill="#7d00ff" d="M 286.558594 161.050781 L 267.59375 175.398438 C 267.117188 175.761719 266.433594 175.664062 266.070312 175.1875 C 265.710938 174.707031 265.804688 174.027344 266.28125 173.664062 L 285.25 159.316406 C 285.726562 158.953125 286.410156 159.046875 286.769531 159.527344 C 287.132812 160.003906 287.039062 160.6875 286.558594 161.050781 Z M 286.558594 161.050781 " fill-opacity="0.9882" fill-rule="nonzero"/><path fill="#7d00ff" d="M 126.683594 200.890625 C 126.496094 200.890625 126.304688 200.933594 126.125 201.023438 L 125.320312 201.429688 L 105.484375 211.433594 L 103.128906 212.621094 L 103.136719 212.621094 C 103.792969 213.136719 104.238281 213.910156 104.332031 214.789062 L 106.644531 213.621094 L 106.648438 213.621094 L 126.554688 203.578125 L 127.242188 203.234375 C 127.851562 202.925781 128.097656 202.179688 127.789062 201.570312 C 127.570312 201.140625 127.136719 200.890625 126.683594 200.890625 Z M 126.085938 203.34375 L 126.082031 203.34375 L 126.085938 203.34375 L 126.082031 203.34375 Z M 126.085938 203.34375 " fill-opacity="0.9882" fill-rule="nonzero"/><path fill="#7d00ff" d="M 248.660156 116.972656 L 248.746094 141.195312 C 248.75 141.878906 248.199219 142.433594 247.515625 142.4375 C 246.828125 142.4375 246.273438 141.886719 246.269531 141.203125 L 246.183594 116.980469 C 246.179688 116.296875 246.730469 115.742188 247.414062 115.738281 C 248.101562 115.734375 248.65625 116.289062 248.660156 116.972656 Z M 248.660156 116.972656 " fill-opacity="0.9882" fill-rule="nonzero"/><path fill="#7d00ff" d="M 281.136719 120.835938 L 272.894531 140.832031 C 272.660156 141.394531 272.015625 141.664062 271.449219 141.429688 C 270.886719 141.199219 270.617188 140.550781 270.851562 139.988281 L 279.09375 119.992188 C 279.328125 119.429688 279.972656 119.160156 280.535156 119.394531 C 281.101562 119.625 281.371094 120.269531 281.136719 120.835938 Z M 281.136719 120.835938 " fill-opacity="0.9882" fill-rule="nonzero"/><g clip-path="url(#658a662ff2)"><path fill="#7d00ff" d="M 106.847656 214.976562 C 106.925781 218.113281 104.449219 220.71875 101.308594 220.796875 C 98.171875 220.878906 95.566406 218.398438 95.484375 215.265625 L 95.488281 215.296875 L 95.484375 215.265625 C 95.40625 212.128906 97.886719 209.523438 101.023438 209.441406 L 101.015625 209.441406 L 101.023438 209.441406 C 104.160156 209.363281 106.769531 211.839844 106.847656 214.976562 M 104.347656 215.039062 L 104.347656 215.070312 L 104.347656 215.039062 C 104.304688 213.285156 102.84375 211.898438 101.085938 211.941406 C 99.328125 211.984375 97.941406 213.445312 97.984375 215.203125 L 97.984375 215.199219 C 98.03125 216.957031 99.492188 218.34375 101.246094 218.300781 L 101.238281 218.300781 L 101.246094 218.300781 C 103.003906 218.253906 104.390625 216.796875 104.347656 215.039062 Z M 104.347656 215.039062 " fill-opacity="0.9882" fill-rule="nonzero"/></g><g clip-path="url(#aef7381f11)"><path fill="#7d00ff" d="M 288.078125 114.941406 C 288.15625 118.078125 285.675781 120.683594 282.539062 120.765625 C 279.402344 120.84375 276.796875 118.367188 276.714844 115.230469 L 276.714844 115.261719 L 276.714844 115.230469 C 276.636719 112.09375 279.113281 109.488281 282.253906 109.410156 C 285.390625 109.328125 287.996094 111.804688 288.078125 114.941406 M 285.578125 115.003906 L 285.578125 115.035156 L 285.578125 115.003906 C 285.53125 113.25 284.074219 111.863281 282.316406 111.90625 L 282.324219 111.90625 L 282.316406 111.90625 C 280.558594 111.953125 279.171875 113.410156 279.214844 115.167969 C 279.257812 116.921875 280.71875 118.308594 282.476562 118.265625 C 284.234375 118.222656 285.621094 116.761719 285.578125 115.003906 Z M 285.578125 115.003906 " fill-opacity="0.9882" fill-rule="nonzero"/></g><path fill="#7d00ff" d="M 134.015625 181.730469 L 134.015625 198.8125 C 134.015625 199.5625 133.40625 200.167969 132.660156 200.167969 C 131.910156 200.167969 131.304688 199.5625 131.304688 198.8125 L 131.304688 181.730469 C 131.304688 180.984375 131.910156 180.378906 132.660156 180.378906 C 133.40625 180.378906 134.015625 180.984375 134.015625 181.730469 Z M 134.015625 181.730469 " fill-opacity="0.9961" fill-rule="nonzero"/><path fill="#7d00ff" d="M 153.199219 171.929688 L 167.910156 179.328125 C 168.578125 179.664062 168.847656 180.480469 168.511719 181.148438 C 168.175781 181.816406 167.363281 182.082031 166.695312 181.746094 L 151.980469 174.347656 C 151.3125 174.011719 151.042969 173.199219 151.378906 172.53125 C 151.714844 171.863281 152.53125 171.59375 153.199219 171.929688 Z M 153.199219 171.929688 " fill-opacity="0.9961" fill-rule="nonzero"/><path fill="#7d00ff" d="M 151.773438 205.710938 L 166.480469 198.558594 C 167.152344 198.230469 167.960938 198.507812 168.289062 199.183594 C 168.617188 199.855469 168.335938 200.664062 167.664062 200.992188 L 152.957031 208.144531 C 152.285156 208.472656 151.476562 208.195312 151.148438 207.519531 C 150.820312 206.847656 151.101562 206.039062 151.773438 205.710938 Z M 151.773438 205.710938 " fill-opacity="0.9961" fill-rule="nonzero"/><path fill="#7d00ff" d="M 547.125 388.496094 L 547.125 416.15625 C 547.125 416.789062 546.609375 417.304688 545.972656 417.304688 C 545.339844 417.304688 544.824219 416.789062 544.824219 416.15625 L 544.824219 388.496094 C 544.824219 387.859375 545.339844 387.347656 545.972656 387.347656 C 546.609375 387.347656 547.125 387.859375 547.125 388.496094 Z M 547.125 388.496094 " fill-opacity="0.9882" fill-rule="nonzero"/><g clip-path="url(#30ae49c4f6)"><path fill="#7d00ff" d="M 546.488281 415.128906 L 574.222656 428.960938 C 574.792969 429.242188 575.023438 429.933594 574.738281 430.5 C 574.453125 431.066406 573.761719 431.296875 573.195312 431.011719 L 545.460938 417.183594 C 544.890625 416.898438 544.660156 416.210938 544.945312 415.644531 C 545.230469 415.074219 545.921875 414.847656 546.488281 415.128906 Z M 546.488281 415.128906 " fill-opacity="0.9882" fill-rule="nonzero"/></g><g clip-path="url(#401d48891b)"><path fill="#7d00ff" d="M 573.195312 428.960938 L 600.929688 415.128906 C 601.5 414.847656 602.191406 415.074219 602.472656 415.644531 C 602.757812 416.210938 602.527344 416.898438 601.960938 417.183594 L 574.222656 431.011719 C 573.65625 431.296875 572.964844 431.066406 572.679688 430.5 C 572.394531 429.933594 572.625 429.242188 573.195312 428.960938 Z M 573.195312 428.960938 " fill-opacity="0.9882" fill-rule="nonzero"/></g><path fill="#7d00ff" d="M 602.59375 388.496094 L 602.59375 416.15625 C 602.59375 416.789062 602.082031 417.304688 601.445312 417.304688 C 600.808594 417.304688 600.292969 416.789062 600.292969 416.15625 L 600.292969 388.496094 C 600.292969 387.859375 600.808594 387.347656 601.445312 387.347656 C 602.082031 387.347656 602.59375 387.859375 602.59375 388.496094 Z M 602.59375 388.496094 " fill-opacity="0.9882" fill-rule="nonzero"/><path fill="#7d00ff" d="M 545.460938 387.46875 L 573.195312 373.636719 C 573.761719 373.355469 574.453125 373.585938 574.738281 374.152344 C 575.023438 374.71875 574.792969 375.40625 574.222656 375.691406 L 546.488281 389.519531 C 545.921875 389.804688 545.230469 389.574219 544.945312 389.007812 C 544.660156 388.441406 544.890625 387.753906 545.460938 387.46875 Z M 545.460938 387.46875 " fill-opacity="0.9882" fill-rule="nonzero"/><path fill="#7d00ff" d="M 574.222656 373.636719 L 601.960938 387.46875 C 602.527344 387.753906 602.757812 388.441406 602.472656 389.007812 C 602.191406 389.574219 601.5 389.804688 600.929688 389.519531 L 573.195312 375.691406 C 572.625 375.40625 572.394531 374.71875 572.679688 374.152344 C 572.964844 373.585938 573.65625 373.355469 574.222656 373.636719 Z M 574.222656 373.636719 " fill-opacity="0.9882" fill-rule="nonzero"/><path fill="#7d00ff" d="M 521.125 374.824219 C 520.894531 375.578125 520.480469 376.253906 519.9375 376.796875 L 519.941406 376.796875 L 521.691406 377.667969 C 521.691406 377.671875 521.691406 377.671875 521.691406 377.671875 L 521.695312 377.671875 L 544.824219 389.203125 L 545.460938 389.519531 C 545.625 389.605469 545.800781 389.644531 545.972656 389.644531 C 546.394531 389.644531 546.800781 389.410156 547.003906 389.007812 C 547.289062 388.441406 547.058594 387.753906 546.488281 387.46875 L 545.972656 387.210938 L 522.835938 375.675781 L 522.832031 375.675781 L 522.835938 375.675781 L 521.128906 374.824219 Z M 544.828125 388.605469 L 544.824219 388.605469 L 544.828125 388.605469 L 544.824219 388.605469 Z M 544.828125 388.605469 " fill-opacity="0.9882" fill-rule="nonzero"/><path fill="#7d00ff" d="M 600.929688 387.46875 L 628.664062 373.636719 C 629.234375 373.355469 629.925781 373.585938 630.210938 374.152344 C 630.492188 374.71875 630.261719 375.40625 629.695312 375.691406 L 601.960938 389.519531 C 601.390625 389.804688 600.699219 389.574219 600.414062 389.007812 C 600.132812 388.441406 600.363281 387.753906 600.929688 387.46875 Z M 600.929688 387.46875 " fill-opacity="0.9882" fill-rule="nonzero"/><path fill="#7d00ff" d="M 630.210938 374.152344 L 644.078125 401.8125 C 644.359375 402.378906 644.128906 403.070312 643.5625 403.351562 C 642.992188 403.636719 642.300781 403.40625 642.019531 402.839844 L 628.152344 375.175781 C 627.867188 374.609375 628.097656 373.921875 628.664062 373.636719 C 629.234375 373.355469 629.925781 373.585938 630.210938 374.152344 Z M 630.210938 374.152344 " fill-opacity="0.9882" fill-rule="nonzero"/><path fill="#7d00ff" d="M 601.445312 415.007812 C 601.023438 415.007812 600.617188 415.242188 600.414062 415.644531 C 600.132812 416.210938 600.363281 416.898438 600.929688 417.183594 L 601.445312 417.4375 L 612.9375 423.171875 C 612.9375 423.171875 612.9375 423.171875 612.9375 423.175781 L 612.945312 423.175781 L 614.730469 424.0625 C 614.78125 423.257812 615.035156 422.503906 615.441406 421.855469 L 613.753906 421.011719 L 613.746094 421.011719 L 602.59375 415.445312 L 601.960938 415.128906 C 601.792969 415.046875 601.617188 415.007812 601.445312 415.007812 Z M 601.890625 417.214844 L 601.472656 417.425781 Z M 601.890625 417.214844 " fill-opacity="0.9882" fill-rule="nonzero"/><path fill="#7d00ff" d="M 643.046875 401.179688 C 642.753906 401.179688 642.457031 401.289062 642.234375 401.515625 L 641.648438 402.097656 L 642.019531 402.839844 L 641.648438 402.097656 L 624.082031 419.617188 L 622.746094 420.949219 L 622.753906 420.949219 C 623.320312 421.492188 623.753906 422.175781 624 422.945312 L 625.445312 421.503906 L 625.449219 421.503906 L 625.445312 421.503906 L 625.453125 421.503906 C 625.453125 421.5 625.449219 421.5 625.449219 421.5 L 643.789062 403.207031 L 643.78125 403.207031 C 643.808594 403.1875 643.835938 403.160156 643.863281 403.136719 C 644.3125 402.6875 644.3125 401.960938 643.859375 401.515625 C 643.636719 401.289062 643.34375 401.179688 643.046875 401.179688 Z M 643.046875 401.179688 " fill-opacity="0.9882" fill-rule="nonzero"/><path fill="#7d00ff" d="M 628.152344 374.152344 L 642.019531 346.492188 C 642.300781 345.921875 642.992188 345.695312 643.5625 345.976562 C 644.128906 346.261719 644.359375 346.949219 644.078125 347.515625 L 630.210938 375.175781 C 629.925781 375.746094 629.234375 375.972656 628.664062 375.691406 C 628.097656 375.40625 627.867188 374.71875 628.152344 374.152344 Z M 628.152344 374.152344 " fill-opacity="0.9882" fill-rule="nonzero"/><path fill="#7d00ff" d="M 643.5625 345.976562 L 671.296875 359.808594 C 671.867188 360.089844 672.097656 360.78125 671.8125 361.347656 C 671.527344 361.914062 670.835938 362.144531 670.269531 361.859375 L 642.53125 348.03125 C 641.964844 347.746094 641.734375 347.058594 642.019531 346.492188 C 642.300781 345.921875 642.992188 345.695312 643.5625 345.976562 Z M 643.5625 345.976562 " fill-opacity="0.9882" fill-rule="nonzero"/><path fill="#7d00ff" d="M 685.464844 347.816406 L 671.597656 361.644531 C 671.148438 362.09375 670.417969 362.09375 669.96875 361.644531 C 669.519531 361.199219 669.519531 360.472656 669.96875 360.023438 L 683.835938 346.191406 C 684.285156 345.742188 685.015625 345.742188 685.464844 346.191406 C 685.914062 346.640625 685.914062 347.367188 685.464844 347.816406 Z M 685.464844 347.816406 " fill-opacity="0.9882" fill-rule="nonzero"/><g clip-path="url(#cc659d9ad1)"><path fill="#7d00ff" d="M 523.21875 373.304688 C 523.292969 376.960938 520.386719 379.984375 516.722656 380.0625 C 513.054688 380.140625 510.023438 377.238281 509.945312 373.585938 C 509.871094 369.929688 512.777344 366.90625 516.441406 366.828125 C 520.105469 366.75 523.140625 369.652344 523.21875 373.304688 M 521.328125 373.347656 C 521.273438 370.730469 519.105469 368.65625 516.480469 368.710938 C 513.859375 368.765625 511.78125 370.929688 511.835938 373.542969 C 511.890625 376.160156 514.058594 378.234375 516.679688 378.179688 C 519.304688 378.125 521.382812 375.960938 521.328125 373.347656 Z M 521.328125 373.347656 " fill-opacity="0.9882" fill-rule="nonzero"/></g><g clip-path="url(#a26237c17d)"><path fill="#7d00ff" d="M 695.78125 342.101562 C 695.859375 345.757812 692.949219 348.78125 689.285156 348.859375 C 685.621094 348.933594 682.589844 346.035156 682.511719 342.378906 C 682.433594 338.726562 685.34375 335.699219 689.007812 335.625 C 692.671875 335.546875 695.707031 338.449219 695.78125 342.101562 M 693.894531 342.140625 C 693.839844 339.527344 691.667969 337.453125 689.046875 337.507812 C 686.425781 337.5625 684.34375 339.726562 684.398438 342.339844 C 684.453125 344.953125 686.625 347.03125 689.246094 346.976562 C 691.867188 346.921875 693.949219 344.757812 693.894531 342.140625 Z M 693.894531 342.140625 " fill-opacity="0.9882" fill-rule="nonzero"/></g><path fill="#7d00ff" d="M 554.546875 395.179688 L 554.546875 413.175781 C 554.546875 413.808594 554.035156 414.324219 553.398438 414.324219 C 552.761719 414.324219 552.246094 413.808594 552.246094 413.175781 L 552.246094 395.179688 C 552.246094 394.542969 552.761719 394.03125 553.398438 394.03125 C 554.035156 394.03125 554.546875 394.542969 554.546875 395.179688 Z M 554.546875 395.179688 " fill-opacity="0.9882" fill-rule="nonzero"/><path fill="#7d00ff" d="M 576.769531 382.097656 L 594.234375 391.097656 C 594.800781 391.386719 595.023438 392.078125 594.730469 392.640625 C 594.4375 393.207031 593.746094 393.425781 593.179688 393.136719 L 575.710938 384.136719 C 575.148438 383.847656 574.925781 383.15625 575.21875 382.589844 C 575.507812 382.027344 576.203125 381.808594 576.769531 382.097656 Z M 576.769531 382.097656 " fill-opacity="0.9882" fill-rule="nonzero"/><path fill="#7d00ff" d="M 576.101562 421.148438 L 593.761719 412.152344 C 594.328125 411.863281 595.019531 412.085938 595.308594 412.652344 C 595.597656 413.214844 595.375 413.90625 594.808594 414.195312 L 577.148438 423.191406 C 576.582031 423.480469 575.890625 423.257812 575.601562 422.695312 C 575.308594 422.128906 575.535156 421.4375 576.101562 421.148438 Z M 576.101562 421.148438 " fill-opacity="0.9882" fill-rule="nonzero"/><path fill="#7d00ff" d="M 627.546875 383.730469 L 636.1875 400 C 636.484375 400.5625 636.269531 401.257812 635.707031 401.554688 C 635.144531 401.847656 634.449219 401.636719 634.152344 401.074219 L 625.515625 384.804688 C 625.21875 384.242188 625.433594 383.550781 625.992188 383.253906 C 626.554688 382.957031 627.25 383.167969 627.546875 383.730469 Z M 627.546875 383.730469 " fill-opacity="0.9882" fill-rule="nonzero"/><path fill="#7d00ff" d="M 626.105469 424.230469 C 626.179688 427.882812 623.273438 430.910156 619.609375 430.984375 L 619.605469 430.984375 L 619.609375 430.984375 C 615.941406 431.0625 612.910156 428.160156 612.832031 424.507812 C 612.753906 420.851562 615.664062 417.828125 619.328125 417.75 C 622.992188 417.675781 626.027344 420.574219 626.105469 424.230469 M 624.214844 424.269531 C 624.160156 421.652344 621.992188 419.578125 619.367188 419.632812 C 616.746094 419.6875 614.667969 421.851562 614.722656 424.46875 C 614.777344 427.082031 616.945312 429.15625 619.566406 429.101562 C 622.191406 429.046875 624.269531 426.882812 624.214844 424.269531 Z M 624.214844 424.269531 " fill-opacity="0.9882" fill-rule="nonzero"/><path fill="#7d00ff" d="M 104.382812 423.71875 L 124.894531 413.667969 C 125.414062 413.414062 126.039062 413.628906 126.292969 414.144531 C 126.546875 414.664062 126.332031 415.289062 125.816406 415.539062 L 105.304688 425.589844 C 104.785156 425.84375 104.160156 425.628906 103.90625 425.113281 C 103.652344 424.59375 103.867188 423.972656 104.382812 423.71875 Z M 104.382812 423.71875 " fill-opacity="0.9882" fill-rule="nonzero"/><path fill="#7d00ff" d="M 105.886719 424.660156 L 105.734375 445.058594 C 105.730469 445.636719 105.261719 446.097656 104.683594 446.09375 C 104.109375 446.089844 103.644531 445.621094 103.648438 445.042969 L 103.800781 424.644531 C 103.804688 424.070312 104.273438 423.605469 104.851562 423.609375 C 105.429688 423.613281 105.890625 424.085938 105.886719 424.660156 Z M 105.886719 424.660156 " fill-opacity="0.9882" fill-rule="nonzero"/><path fill="#7d00ff" d="M 105.164062 444.121094 L 125.527344 454.472656 C 126.039062 454.734375 126.246094 455.363281 125.984375 455.875 C 125.722656 456.386719 125.09375 456.59375 124.578125 456.332031 L 104.21875 445.980469 C 103.703125 445.71875 103.5 445.089844 103.761719 444.578125 C 104.023438 444.066406 104.652344 443.863281 105.164062 444.121094 Z M 105.164062 444.121094 " fill-opacity="0.9882" fill-rule="nonzero"/><path fill="#7d00ff" d="M 124.59375 454.464844 L 145.105469 444.417969 C 145.621094 444.164062 146.246094 444.378906 146.5 444.894531 C 146.753906 445.410156 146.542969 446.035156 146.023438 446.289062 L 125.511719 456.335938 C 124.996094 456.589844 124.367188 456.378906 124.113281 455.859375 C 123.859375 455.34375 124.074219 454.71875 124.59375 454.464844 Z M 124.59375 454.464844 " fill-opacity="0.9882" fill-rule="nonzero"/><path fill="#7d00ff" d="M 125.828125 413.675781 L 146.191406 424.027344 C 146.703125 424.289062 146.90625 424.914062 146.644531 425.429688 C 146.382812 425.941406 145.757812 426.144531 145.242188 425.882812 L 124.882812 415.535156 C 124.367188 415.273438 124.164062 414.644531 124.425781 414.132812 C 124.6875 413.621094 125.316406 413.414062 125.828125 413.675781 Z M 125.828125 413.675781 " fill-opacity="0.9882" fill-rule="nonzero"/><path fill="#7d00ff" d="M 146.761719 424.964844 L 146.609375 445.363281 C 146.605469 445.9375 146.132812 446.402344 145.554688 446.394531 C 144.980469 446.390625 144.515625 445.921875 144.519531 445.347656 L 144.671875 424.949219 C 144.675781 424.371094 145.148438 423.910156 145.722656 423.914062 C 146.300781 423.917969 146.765625 424.386719 146.761719 424.964844 Z M 146.761719 424.964844 " fill-opacity="0.9882" fill-rule="nonzero"/><path fill="#7d00ff" d="M 104.371094 425.582031 L 84.007812 415.230469 C 83.496094 414.96875 83.289062 414.34375 83.550781 413.828125 C 83.8125 413.316406 84.441406 413.113281 84.957031 413.375 L 105.316406 423.722656 C 105.832031 423.984375 106.035156 424.613281 105.773438 425.125 C 105.511719 425.640625 104.882812 425.84375 104.371094 425.582031 Z M 104.371094 425.582031 " fill-opacity="0.9882" fill-rule="nonzero"/><path fill="#7d00ff" d="M 124.3125 414.597656 L 124.464844 394.199219 C 124.46875 393.625 124.9375 393.160156 125.515625 393.164062 C 126.089844 393.167969 126.554688 393.640625 126.550781 394.214844 L 126.398438 414.613281 C 126.394531 415.1875 125.925781 415.652344 125.347656 415.648438 C 124.769531 415.644531 124.308594 415.171875 124.3125 414.597656 Z M 124.3125 414.597656 " fill-opacity="0.9882" fill-rule="nonzero"/><path fill="#7d00ff" d="M 146.039062 444.425781 L 166.398438 454.777344 C 166.914062 455.039062 167.117188 455.664062 166.855469 456.175781 C 166.59375 456.691406 165.964844 456.894531 165.449219 456.632812 L 145.089844 446.28125 C 144.578125 446.023438 144.371094 445.394531 144.632812 444.882812 C 144.894531 444.367188 145.523438 444.164062 146.039062 444.425781 Z M 146.039062 444.425781 " fill-opacity="0.9882" fill-rule="nonzero"/><path fill="#7d00ff" d="M 166.96875 455.710938 L 166.816406 476.109375 C 166.8125 476.6875 166.34375 477.148438 165.765625 477.144531 C 165.1875 477.140625 164.726562 476.671875 164.730469 476.09375 L 164.878906 455.695312 C 164.886719 455.121094 165.355469 454.660156 165.933594 454.664062 C 166.507812 454.667969 166.972656 455.136719 166.96875 455.710938 Z M 166.96875 455.710938 " fill-opacity="0.9882" fill-rule="nonzero"/><path fill="#7d00ff" d="M 165.464844 454.769531 L 185.976562 444.722656 C 186.496094 444.46875 187.121094 444.679688 187.375 445.199219 C 187.628906 445.714844 187.414062 446.339844 186.898438 446.59375 L 166.386719 456.640625 C 165.867188 456.894531 165.242188 456.679688 164.988281 456.164062 C 164.734375 455.648438 164.945312 455.023438 165.464844 454.769531 Z M 165.464844 454.769531 " fill-opacity="0.9882" fill-rule="nonzero"/><path fill="#7d00ff" d="M 186.4375 444.613281 C 186.054688 444.613281 185.691406 444.824219 185.507812 445.183594 C 185.246094 445.695312 185.449219 446.324219 185.964844 446.585938 L 186.429688 446.820312 L 201.652344 454.5625 L 201.65625 454.566406 L 203.460938 455.480469 C 203.457031 455.371094 203.453125 455.261719 203.457031 455.148438 C 203.480469 454.511719 203.667969 453.917969 203.980469 453.410156 L 203.984375 453.410156 L 203.980469 453.410156 L 203.984375 453.410156 L 202.332031 452.566406 L 202.328125 452.570312 L 202.332031 452.570312 L 202.328125 452.570312 L 202.328125 452.566406 L 202.332031 452.570312 L 186.976562 444.761719 L 186.972656 444.761719 C 186.8125 444.667969 186.628906 444.617188 186.441406 444.613281 Z M 186.4375 444.613281 " fill-opacity="0.9882" fill-rule="nonzero"/><path fill="#7d00ff" d="M 227.308594 444.917969 C 227.152344 444.917969 226.996094 444.953125 226.847656 445.023438 L 226.566406 445.160156 L 211.707031 452.441406 L 210.035156 453.261719 L 210.039062 453.261719 C 210.433594 453.835938 210.660156 454.53125 210.660156 455.273438 L 212.4375 454.40625 L 212.441406 454.40625 C 212.441406 454.40625 212.441406 454.402344 212.441406 454.402344 L 227.671875 446.941406 L 227.671875 446.945312 L 227.671875 446.941406 L 227.675781 446.945312 C 227.675781 446.941406 227.675781 446.941406 227.675781 446.941406 L 227.769531 446.894531 C 228.285156 446.640625 228.5 446.015625 228.246094 445.5 C 228.066406 445.132812 227.695312 444.917969 227.308594 444.917969 Z M 227.308594 444.917969 " fill-opacity="0.9882" fill-rule="nonzero"/><g clip-path="url(#8bb976df18)"><path fill="#7d00ff" d="M 130.851562 389.292969 C 130.746094 392.296875 128.21875 394.648438 125.210938 394.539062 C 122.199219 394.433594 119.847656 391.910156 119.953125 388.90625 C 120.0625 385.902344 122.589844 383.554688 125.597656 383.660156 L 125.589844 383.660156 L 125.597656 383.660156 C 128.605469 383.769531 130.960938 386.289062 130.851562 389.292969 L 130.851562 389.335938 L 130.851562 389.292969 M 129.003906 389.230469 C 129.074219 387.242188 127.519531 385.578125 125.53125 385.507812 C 123.542969 385.4375 121.875 386.988281 121.804688 388.972656 L 121.800781 389.015625 L 121.804688 388.972656 C 121.734375 390.957031 123.289062 392.621094 125.273438 392.695312 L 125.265625 392.691406 L 125.273438 392.695312 C 127.261719 392.765625 128.933594 391.214844 129.003906 389.230469 Z M 129.003906 389.230469 " fill-opacity="0.9882" fill-rule="nonzero"/></g><g clip-path="url(#d196af10f8)"><path fill="#7d00ff" d="M 85.621094 411.867188 C 85.511719 414.875 82.984375 417.222656 79.976562 417.113281 C 76.964844 417.007812 74.613281 414.484375 74.722656 411.480469 L 74.722656 411.460938 L 74.722656 411.480469 C 74.828125 408.476562 77.355469 406.128906 80.363281 406.234375 L 80.355469 406.234375 L 80.363281 406.234375 C 83.375 406.34375 85.726562 408.863281 85.621094 411.867188 M 83.769531 411.804688 L 83.769531 411.785156 L 83.769531 411.804688 C 83.839844 409.820312 82.285156 408.152344 80.300781 408.082031 C 78.3125 408.011719 76.640625 409.5625 76.570312 411.546875 C 76.5 413.53125 78.054688 415.199219 80.042969 415.269531 L 80.03125 415.269531 L 80.042969 415.269531 C 82.03125 415.339844 83.699219 413.789062 83.769531 411.804688 Z M 83.769531 411.804688 " fill-opacity="0.9882" fill-rule="nonzero"/></g><g clip-path="url(#002e4c26c9)"><path fill="#7d00ff" d="M 171.21875 480.96875 C 171.109375 483.972656 168.585938 486.320312 165.574219 486.214844 C 162.566406 486.105469 160.214844 483.582031 160.320312 480.578125 C 160.425781 477.574219 162.953125 475.226562 165.964844 475.335938 C 168.972656 475.441406 171.324219 477.964844 171.21875 480.96875 L 171.21875 480.988281 L 171.21875 480.96875 M 169.371094 480.902344 C 169.441406 478.917969 167.886719 477.25 165.898438 477.179688 L 165.90625 477.179688 L 165.898438 477.179688 C 163.910156 477.109375 162.242188 478.660156 162.167969 480.644531 L 162.167969 480.664062 L 162.167969 480.644531 C 162.097656 482.628906 163.652344 484.296875 165.640625 484.367188 C 167.628906 484.4375 169.296875 482.886719 169.371094 480.902344 Z M 169.371094 480.902344 " fill-opacity="0.9882" fill-rule="nonzero"/></g><g clip-path="url(#a046d5b1e2)"><path fill="#7d00ff" d="M 237.125 443.441406 C 237.019531 446.445312 234.492188 448.792969 231.484375 448.683594 C 228.472656 448.578125 226.121094 446.054688 226.226562 443.050781 L 226.230469 443.007812 L 226.226562 443.050781 C 226.335938 440.046875 228.863281 437.699219 231.871094 437.804688 L 231.867188 437.804688 L 231.871094 437.804688 C 234.882812 437.914062 237.234375 440.433594 237.125 443.441406 L 237.125 443.457031 L 237.125 443.441406 M 235.277344 443.375 C 235.347656 441.390625 233.792969 439.722656 231.804688 439.652344 C 229.816406 439.582031 228.148438 441.132812 228.078125 443.117188 C 228.007812 445.101562 229.5625 446.769531 231.550781 446.839844 C 233.535156 446.910156 235.207031 445.359375 235.277344 443.375 Z M 235.277344 443.375 " fill-opacity="0.9882" fill-rule="nonzero"/></g><path fill="#7d00ff" d="M 212.507812 455.472656 C 212.398438 458.476562 209.875 460.824219 206.863281 460.714844 C 203.855469 460.609375 201.5 458.085938 201.609375 455.082031 C 201.714844 452.078125 204.242188 449.730469 207.253906 449.839844 L 207.242188 449.835938 L 207.253906 449.839844 C 210.261719 449.945312 212.613281 452.46875 212.507812 455.472656 L 212.503906 455.515625 L 212.507812 455.472656 M 210.65625 455.40625 C 210.730469 453.421875 209.175781 451.753906 207.1875 451.683594 C 205.199219 451.613281 203.53125 453.164062 203.457031 455.148438 L 203.457031 455.195312 L 203.457031 455.148438 C 203.386719 457.132812 204.941406 458.800781 206.929688 458.871094 L 206.921875 458.871094 L 206.929688 458.871094 C 208.917969 458.941406 210.585938 457.390625 210.65625 455.40625 Z M 210.65625 455.40625 " fill-opacity="0.9882" fill-rule="nonzero"/></svg>