<svg xmlns="http://www.w3.org/2000/svg" xmlns:xlink="http://www.w3.org/1999/xlink" width="1920" zoomAndPan="magnify" viewBox="0 0 1440 809.999993" height="1080" preserveAspectRatio="xMidYMid meet" version="1.0"><defs><clipPath id="id1"><path d="M 227.765625 173 L 1010 173 L 1010 487 L 227.765625 487 Z M 227.765625 173 " clip-rule="nonzero"/></clipPath><clipPath id="id2"><path d="M 227.765625 186 L 1010 186 L 1010 511 L 227.765625 511 Z M 227.765625 186 " clip-rule="nonzero"/></clipPath><clipPath id="id3"><path d="M 227.765625 199 L 1010 199 L 1010 536 L 227.765625 536 Z M 227.765625 199 " clip-rule="nonzero"/></clipPath><clipPath id="id4"><path d="M 227.765625 212 L 1010 212 L 1010 563 L 227.765625 563 Z M 227.765625 212 " clip-rule="nonzero"/></clipPath><clipPath id="id5"><path d="M 227.765625 225 L 1010 225 L 1010 591 L 227.765625 591 Z M 227.765625 225 " clip-rule="nonzero"/></clipPath><clipPath id="id6"><path d="M 890 57 L 921.4375 57 L 921.4375 102 L 890 102 Z M 890 57 " clip-rule="nonzero"/></clipPath><clipPath id="id7"><path d="M 868 70 L 889 70 L 889 113.597656 L 868 113.597656 Z M 868 70 " clip-rule="nonzero"/></clipPath><clipPath id="id8"><path d="M 881 51.347656 L 895 51.347656 L 895 73 L 881 73 Z M 881 51.347656 " clip-rule="nonzero"/></clipPath><clipPath id="id9"><path d="M 862 686.675781 L 873 686.675781 L 873 758.675781 L 862 758.675781 Z M 862 686.675781 " clip-rule="nonzero"/></clipPath><clipPath id="id10"><path d="M 923 717 L 927.457031 717 L 927.457031 729 L 923 729 Z M 923 717 " clip-rule="nonzero"/></clipPath><clipPath id="id11"><path d="M 807.457031 717 L 812 717 L 812 729 L 807.457031 729 Z M 807.457031 717 " clip-rule="nonzero"/></clipPath><clipPath id="id12"><path d="M 596 93.777344 L 703 93.777344 L 703 214 L 596 214 Z M 596 93.777344 " clip-rule="nonzero"/></clipPath><clipPath id="id13"><path d="M 605 93.777344 L 695 93.777344 L 695 153 L 605 153 Z M 605 93.777344 " clip-rule="nonzero"/></clipPath><clipPath id="id14"><path d="M 447 678 L 560 678 L 560 723.027344 L 447 723.027344 Z M 447 678 " clip-rule="nonzero"/></clipPath></defs><g clip-path="url(#id1)"><path fill="#1bb392" d="M 227.816406 259.871094 C 255.570312 289.488281 282.460938 307.507812 308.121094 318.050781 C 337.425781 330.089844 365.132812 332.375 390.675781 331.039062 C 456.90625 327.578125 513.636719 289.25 569.328125 251.621094 C 609.714844 224.332031 649.558594 197.414062 692.152344 184.355469 C 753.308594 165.609375 799.078125 172.464844 823.839844 190.507812 C 835.238281 198.8125 842.203125 209.488281 844.1875 221.144531 C 846.175781 232.800781 843.1875 245.417969 834.683594 257.601562 C 815.234375 285.46875 766.828125 311.125 682.964844 317.742188 C 624.589844 322.34375 585.789062 346.300781 569.054688 374.757812 C 562.40625 386.066406 559.246094 398.082031 559.738281 409.871094 C 560.226562 421.648438 564.367188 433.207031 572.3125 443.605469 C 591.597656 468.84375 633.277344 487.246094 699.621094 485.5 C 737.519531 484.503906 788.089844 479.203125 844.457031 460.03125 C 896.484375 442.328125 953.449219 412.800781 1009.941406 363.917969 L 1009.941406 365.402344 C 953.5625 414.015625 896.738281 443.429688 844.816406 461.09375 C 788.328125 480.3125 737.632812 485.625 699.644531 486.625 C 632.894531 488.382812 590.898438 469.785156 571.417969 444.285156 C 563.328125 433.703125 559.113281 421.925781 558.613281 409.914062 C 558.117188 397.914062 561.324219 385.683594 568.085938 374.1875 C 584.988281 345.449219 624.097656 321.253906 682.875 316.617188 C 766.359375 310.03125 814.480469 284.585938 833.757812 256.960938 C 842.089844 245.03125 845.015625 232.703125 843.078125 221.332031 C 841.136719 209.96875 834.328125 199.539062 823.175781 191.414062 C 798.667969 173.554688 753.257812 166.800781 692.484375 185.429688 C 650.058594 198.4375 610.277344 225.3125 569.960938 252.554688 C 514.140625 290.269531 457.28125 328.6875 390.730469 332.164062 C 365.046875 333.503906 337.179688 331.207031 307.691406 319.089844 C 282.152344 308.59375 255.402344 290.738281 227.816406 261.511719 Z M 227.816406 259.871094 " fill-opacity="1" fill-rule="nonzero"/></g><g clip-path="url(#id2)"><path fill="#1bb392" d="M 227.816406 276.628906 C 249.585938 301.753906 272.703125 319.910156 296.042969 332.242188 C 329.175781 349.742188 362.761719 355.511719 393.570312 352.84375 L 393.574219 352.84375 C 463.308594 347.097656 518.066406 306.503906 571.03125 267.242188 C 610.558594 237.9375 649.09375 209.371094 692.164062 196.5 C 750.832031 178.925781 794.789062 186.074219 818.636719 204.175781 C 829.679688 212.554688 836.421875 223.285156 838.347656 235.003906 C 840.269531 246.722656 837.363281 259.421875 829.113281 271.738281 C 809.910156 300.410156 761.621094 327.085938 677.570312 334.535156 C 622.953125 339.335938 585.714844 360.730469 568.269531 386.988281 C 560.679688 398.414062 556.835938 410.757812 556.941406 423.046875 C 557.046875 435.335938 561.097656 447.582031 569.292969 458.816406 C 587.839844 484.242188 627.597656 504.480469 690.863281 508.355469 L 690.867188 508.355469 C 734.488281 511.574219 798.394531 506.414062 867.101562 482.773438 C 914.117188 466.59375 963.386719 441.753906 1009.941406 405.019531 L 1009.941406 406.453125 C 963.484375 442.972656 914.359375 467.703125 867.46875 483.835938 C 798.597656 507.539062 734.53125 512.707031 690.789062 509.476562 C 627.152344 505.582031 587.113281 485.152344 568.382812 459.476562 C 560.046875 448.046875 555.925781 435.578125 555.820312 423.058594 C 555.710938 410.539062 559.617188 397.980469 567.332031 386.367188 C 584.953125 359.847656 622.480469 338.246094 677.46875 333.414062 C 761.136719 326 809.140625 299.539062 828.179688 271.113281 C 836.265625 259.042969 839.109375 246.628906 837.234375 235.183594 C 835.363281 223.75 828.761719 213.269531 817.960938 205.070312 C 794.363281 187.15625 750.769531 180.117188 692.484375 197.578125 C 649.597656 210.402344 611.144531 238.902344 571.703125 268.144531 C 518.609375 307.5 463.71875 348.195312 393.667969 353.96875 C 362.65625 356.65625 328.859375 350.847656 295.515625 333.238281 C 272.367188 321.003906 249.433594 303.074219 227.816406 278.347656 Z M 227.816406 276.628906 " fill-opacity="1" fill-rule="nonzero"/></g><g clip-path="url(#id3)"><path fill="#1bb392" d="M 227.816406 294.683594 C 247.394531 318.753906 269.871094 337.648438 293.480469 351.097656 C 327.230469 370.324219 363.289062 378.429688 396.472656 374.65625 L 396.476562 374.65625 C 469.964844 366.636719 523.089844 323.476562 573.640625 282.402344 C 612.011719 251.222656 648.90625 221.246094 692.164062 208.648438 C 748.382812 192.222656 790.542969 199.660156 813.476562 217.8125 C 824.152344 226.257812 830.671875 237.027344 832.523438 248.804688 C 834.378906 260.578125 831.566406 273.339844 823.578125 285.777344 C 804.625 315.28125 756.457031 343.023438 672.179688 351.328125 L 672.175781 351.328125 C 621.382812 356.285156 585.847656 375.199219 567.808594 399.160156 C 559.15625 410.660156 554.535156 423.316406 554.195312 436.140625 C 553.859375 448.964844 557.800781 461.972656 566.273438 474.167969 C 584.097656 499.820312 621.9375 521.882812 682.109375 531.214844 L 682.117188 531.214844 C 724.921875 538.589844 790.511719 535.402344 859.78125 516.152344 C 910.363281 502.089844 962.898438 479.464844 1009.941406 446.132812 L 1009.941406 447.511719 C 962.949219 480.671875 910.542969 503.207031 860.078125 517.234375 C 790.640625 536.53125 724.867188 539.722656 681.929688 532.324219 C 621.421875 522.941406 583.335938 500.691406 565.347656 474.8125 C 556.734375 462.414062 552.726562 449.175781 553.070312 436.113281 C 553.417969 423.054688 558.117188 410.175781 566.910156 398.488281 C 585.125 374.292969 620.9375 355.195312 672.066406 350.207031 C 755.953125 341.949219 803.839844 314.421875 822.628906 285.167969 C 830.464844 272.96875 833.226562 260.480469 831.414062 248.980469 C 829.605469 237.480469 823.226562 226.960938 812.78125 218.691406 C 790.101562 200.742188 748.308594 193.417969 692.480469 209.726562 C 649.4375 222.261719 612.628906 252.171875 574.351562 283.273438 C 523.671875 324.449219 470.417969 367.71875 396.597656 375.773438 C 363.179688 379.574219 326.882812 371.421875 292.921875 352.074219 C 269.546875 338.757812 247.277344 320.132812 227.816406 296.460938 Z M 227.816406 294.683594 " fill-opacity="1" fill-rule="nonzero"/></g><g clip-path="url(#id4)"><path fill="#1bb392" d="M 227.816406 314.066406 C 245.539062 336.757812 267.054688 355.796875 290.3125 369.945312 C 325.082031 391.09375 363.726562 401.304688 399.375 396.460938 L 399.378906 396.460938 C 476.855469 386.171875 528.535156 340.183594 576.886719 297.160156 C 613.882812 264.242188 648.941406 233.046875 692.171875 220.792969 C 745.964844 205.503906 786.347656 213.222656 808.359375 231.414062 C 818.660156 239.921875 824.949219 250.722656 826.734375 262.542969 C 828.515625 274.351562 825.792969 287.167969 818.070312 299.714844 C 799.386719 330.082031 751.324219 358.9375 666.785156 368.121094 C 619.84375 373.183594 586.109375 389.769531 567.65625 411.382812 C 557.832031 422.890625 552.34375 435.824219 551.507812 449.199219 C 550.667969 462.574219 554.480469 476.402344 563.257812 489.699219 C 580.363281 515.601562 616.289062 539.472656 673.355469 554.078125 L 673.363281 554.078125 C 715.011719 565.292969 781.242188 564.210938 850.488281 549.332031 C 905.332031 537.546875 962.058594 517.101562 1009.941406 487.253906 L 1009.941406 488.582031 C 962.0625 518.300781 905.457031 538.671875 850.722656 550.433594 C 781.3125 565.351562 714.886719 566.421875 673.078125 555.167969 C 615.71875 540.492188 579.570312 516.4375 562.320312 490.320312 C 553.402344 476.808594 549.527344 462.746094 550.378906 449.128906 C 551.234375 435.507812 556.8125 422.347656 566.800781 410.652344 C 585.425781 388.832031 619.417969 372.097656 666.667969 367 C 750.808594 357.863281 798.582031 329.238281 817.113281 299.128906 C 824.6875 286.816406 827.359375 274.261719 825.617188 262.710938 C 823.875 251.167969 817.71875 240.609375 807.644531 232.285156 C 785.882812 214.300781 745.875 206.699219 692.472656 221.875 C 649.5 234.0625 614.535156 265.171875 577.636719 298.003906 C 529.160156 341.136719 477.351562 387.238281 399.523438 397.578125 C 363.613281 402.457031 324.707031 392.179688 289.726562 370.90625 C 266.746094 356.925781 245.453125 338.191406 227.816406 315.886719 Z M 227.816406 314.066406 " fill-opacity="1" fill-rule="nonzero"/></g><g clip-path="url(#id5)"><path fill="#1bb392" d="M 227.816406 334.65625 C 244.050781 355.761719 264.320312 374.335938 286.625 388.707031 C 322.683594 411.9375 364.054688 424.160156 402.277344 418.269531 C 483.957031 405.675781 534.300781 356.652344 580.578125 311.578125 C 616.042969 277.03125 649.140625 244.804688 692.171875 232.941406 C 743.574219 218.769531 782.1875 226.765625 803.289062 244.988281 C 813.199219 253.546875 819.253906 264.367188 820.964844 276.214844 C 822.675781 288.050781 820.046875 300.90625 812.601562 313.546875 C 794.1875 344.804688 746.230469 374.820312 661.394531 384.914062 C 618.265625 390.042969 586.429688 404.476562 567.765625 423.753906 C 556.683594 435.199219 550.253906 448.351562 548.871094 462.265625 C 547.484375 476.191406 551.148438 490.894531 560.253906 505.4375 C 576.648438 531.625 610.667969 557.277344 664.601562 576.949219 C 704.707031 591.574219 770.296875 592.742188 838.75 582.148438 C 898.699219 572.871094 960.824219 554.570312 1009.941406 528.390625 L 1009.941406 529.664062 C 960.789062 555.753906 898.769531 574 838.921875 583.261719 C 770.292969 593.878906 704.496094 592.695312 664.21875 578.007812 C 610.03125 558.242188 575.824219 532.417969 559.300781 506.035156 C 550.054688 491.269531 546.339844 476.324219 547.75 462.15625 C 549.160156 447.980469 555.695312 434.597656 566.964844 422.96875 C 585.792969 403.515625 617.863281 388.957031 661.261719 383.792969 C 745.703125 373.75 793.375 343.972656 811.628906 312.976562 C 818.945312 300.566406 821.523438 287.964844 819.851562 276.375 C 818.179688 264.796875 812.253906 254.21875 802.554688 245.839844 C 781.710938 227.832031 743.46875 219.96875 692.472656 234.023438 C 649.71875 245.808594 616.722656 277.945312 581.363281 312.386719 C 534.957031 357.578125 484.480469 406.738281 402.449219 419.382812 C 363.9375 425.320312 322.292969 413.027344 286.011719 389.652344 C 264.011719 375.480469 243.980469 357.222656 227.816406 336.492188 Z M 227.816406 334.65625 " fill-opacity="1" fill-rule="nonzero"/></g><path fill="#1bb392" d="M 342.957031 428.070312 C 335.46875 425.300781 333.050781 417.527344 337.640625 410.996094 C 342.105469 404.628906 351.527344 401.699219 358.816406 404.398438 C 360.835938 405.144531 362.484375 406.25 363.730469 407.585938 L 372.21875 344.859375 L 375.902344 345.355469 C 376.691406 365.453125 398.082031 380.433594 388.566406 397.433594 C 387.582031 399.1875 385.640625 402.117188 383.121094 404.398438 C 382.894531 404.605469 382.554688 404.621094 382.320312 404.425781 C 382.078125 404.234375 382.015625 403.902344 382.167969 403.636719 C 383.601562 401.128906 385.476562 398.3125 386.03125 396.628906 C 387.148438 393.222656 387.675781 390.378906 387.417969 387.90625 C 386.300781 377.207031 375.648438 374.09375 372.917969 367.417969 L 366.667969 413.613281 C 366.253906 416.667969 366.128906 418.636719 364.136719 421.476562 C 359.664062 427.839844 350.25 430.773438 342.957031 428.070312 Z M 342.957031 428.070312 " fill-opacity="1" fill-rule="nonzero"/><path fill="#1bb392" d="M 744.191406 242.746094 C 742.015625 241.964844 740.332031 240.445312 739.664062 238.375 C 738.992188 236.304688 739.46875 234.085938 740.777344 232.179688 C 743.554688 228.148438 749.496094 226.226562 754.105469 227.878906 C 755.796875 228.484375 757.074219 229.488281 757.890625 230.714844 L 763.023438 188.765625 L 764.476562 188.945312 L 758.9375 234.257812 C 758.914062 235.632812 758.457031 237.074219 757.519531 238.445312 C 754.746094 242.476562 748.796875 244.398438 744.191406 242.746094 Z M 744.242188 241.101562 C 748.433594 242.605469 753.914062 240.839844 756.4375 237.164062 C 758.886719 233.597656 758.042969 230.960938 754.167969 229.578125 C 749.976562 228.074219 744.496094 229.84375 741.976562 233.511719 C 739.445312 237.195312 739.820312 239.519531 744.242188 241.101562 Z M 744.242188 241.101562 " fill-opacity="1" fill-rule="nonzero"/><path fill="#1bb392" d="M 621.445312 467.230469 C 623.632812 468.445312 625.167969 470.363281 625.519531 472.6875 C 625.867188 475.019531 624.972656 477.304688 623.242188 479.109375 C 619.578125 482.933594 612.894531 483.945312 608.257812 481.378906 C 606.558594 480.4375 605.367188 479.140625 604.710938 477.6875 L 591.902344 521.589844 L 590.382812 521.144531 L 604.214844 473.722656 C 604.476562 472.257812 605.214844 470.796875 606.460938 469.496094 C 610.125 465.675781 616.808594 464.664062 621.445312 467.230469 Z M 621.445312 467.230469 " fill-opacity="1" fill-rule="nonzero"/><path fill="#1bb392" d="M 611.398438 388.636719 C 606.59375 388.011719 604.105469 383.742188 605.933594 379.257812 C 607.714844 374.882812 612.890625 371.871094 617.570312 372.480469 C 618.863281 372.648438 619.988281 373.074219 620.90625 373.703125 L 617.414062 335.441406 L 619.664062 335.234375 C 622.855469 347.015625 637.546875 352.976562 634.222656 364.324219 C 633.878906 365.496094 633.125 367.488281 631.949219 369.183594 C 631.839844 369.335938 631.640625 369.390625 631.472656 369.308594 C 631.308594 369.230469 631.222656 369.039062 631.277344 368.863281 C 631.789062 367.183594 632.515625 365.261719 632.613281 364.191406 C 632.8125 362.027344 632.742188 360.273438 632.25 358.839844 C 630.136719 352.664062 623.414062 352.269531 620.890625 348.6875 L 623.460938 376.863281 C 623.632812 378.730469 623.828125 379.910156 623.03125 381.863281 C 621.25 386.230469 616.078125 389.246094 611.398438 388.636719 Z M 611.398438 388.636719 " fill-opacity="1" fill-rule="nonzero"/><path fill="#1bb392" d="M 828.1875 536.730469 C 818.679688 535.210938 813.992188 526.578125 817.894531 517.773438 C 821.6875 509.195312 832.140625 503.523438 841.402344 505.003906 C 843.964844 505.417969 846.171875 506.332031 847.960938 507.628906 L 843.296875 431.425781 L 847.777344 431.152344 C 853.414062 454.746094 882.238281 467.457031 874.964844 489.796875 C 874.210938 492.101562 872.597656 496.019531 870.15625 499.3125 C 869.9375 499.613281 869.535156 499.707031 869.210938 499.53125 C 868.882812 499.359375 868.730469 498.980469 868.847656 498.636719 C 869.960938 495.328125 871.515625 491.558594 871.777344 489.4375 C 872.300781 485.144531 872.261719 481.65625 871.375 478.792969 C 867.542969 466.394531 854.207031 465.207031 849.414062 457.953125 L 852.847656 514.066406 C 853.070312 517.78125 853.386719 520.136719 851.695312 523.964844 C 847.894531 532.542969 837.449219 538.21875 828.1875 536.730469 Z M 828.1875 536.730469 " fill-opacity="1" fill-rule="nonzero"/><path fill="#1bb392" d="M 943.488281 524.851562 C 950.238281 525.519531 955.117188 531.328125 954.390625 537.824219 C 953.660156 544.316406 947.59375 549.042969 940.84375 548.371094 C 940.390625 550.671875 945.4375 553.667969 950.464844 554.097656 C 966.398438 555.460938 972.425781 543.222656 971.179688 530.558594 L 969.035156 508.8125 C 965.222656 509.308594 961.242188 509.335938 957.269531 508.964844 C 934.519531 506.832031 918.414062 487.082031 920.625 461.359375 C 921.695312 448.871094 931.742188 435.914062 939.019531 429.183594 C 941.71875 426.691406 956.375 413.996094 959.523438 411.886719 C 957.394531 401.59375 957.625 384.988281 962.023438 370.714844 C 965.824219 358.386719 975.160156 348.128906 981.320312 348.4375 C 983.816406 348.5625 987.730469 354.941406 989.699219 362.953125 C 991.550781 370.476562 991.558594 379.5 990.714844 384.398438 C 987.167969 404.835938 979.417969 417.90625 964.816406 428.957031 L 966.992188 449.867188 C 968.730469 449.660156 970.507812 449.640625 972.308594 449.816406 C 988.207031 451.386719 998.027344 465.855469 996.230469 481.871094 C 994.480469 497.441406 984.925781 505.359375 973.058594 508.089844 L 975.160156 528.25 C 977.132812 547.1875 967.640625 559.65625 949.359375 558.15625 C 937.492188 557.179688 925.03125 547.445312 930.546875 532.800781 C 930.605469 532.636719 930.667969 532.472656 930.734375 532.3125 L 930.75 532.28125 C 932.742188 527.464844 937.878906 524.292969 943.488281 524.851562 Z M 968.75 505.921875 L 964.628906 464.105469 C 957.046875 465.4375 950.710938 471.308594 949.972656 477.390625 C 949.054688 484.980469 952.363281 490.914062 958.015625 493.515625 C 959.523438 494.207031 958.875 495.804688 957.3125 495.386719 C 948.238281 492.960938 941.953125 483.125 943.058594 473.273438 C 944.230469 462.882812 952.667969 453.4375 963.292969 450.578125 L 961.40625 431.445312 C 946.679688 442.023438 930.722656 452.546875 928.109375 472.679688 C 925.835938 490.175781 940.515625 504.65625 957.382812 506.332031 C 961.457031 506.734375 965.285156 506.609375 968.75 505.921875 Z M 968.449219 463.832031 L 972.71875 504.832031 C 980.664062 501.96875 986.078125 495.480469 987.257812 484.816406 C 988.277344 475.621094 979.59375 464.886719 969.550781 463.902344 C 969.183594 463.867188 968.816406 463.84375 968.449219 463.832031 Z M 963.34375 409.460938 C 960.761719 396.390625 968.75 365.285156 981.53125 366.839844 C 991.503906 368.050781 985.046875 383.433594 982.898438 387.625 C 978.574219 396.070312 968.136719 406.554688 963.34375 409.460938 Z M 963.34375 409.460938 " fill-opacity="1" fill-rule="evenodd"/><path fill="#1bb392" d="M 764.558594 588.070312 C 760.679688 587.648438 757.324219 585.820312 755.414062 582.6875 C 753.5 579.554688 753.410156 575.734375 754.8125 572.09375 C 757.765625 564.390625 766.757812 558.90625 774.960938 559.800781 C 777.972656 560.128906 780.464844 561.273438 782.289062 562.960938 L 774.199219 492.175781 L 776.648438 491.890625 L 785.390625 568.359375 C 785.898438 570.621094 785.714844 573.164062 784.710938 575.777344 C 781.753906 583.480469 772.761719 588.96875 764.558594 588.070312 Z M 763.996094 585.359375 C 771.460938 586.175781 779.746094 581.121094 782.4375 574.109375 C 785.054688 567.292969 782.632812 563.308594 775.734375 562.558594 C 768.269531 561.742188 759.984375 566.796875 757.296875 573.8125 C 754.59375 580.839844 756.121094 584.5 763.996094 585.359375 Z M 763.996094 585.359375 " fill-opacity="1" fill-rule="nonzero"/><path fill="#1bb392" d="M 633.609375 531.96875 C 630.746094 529.9375 628.617188 527.074219 627.820312 523.863281 C 627.035156 520.65625 627.742188 517.683594 629.511719 515.484375 C 633.300781 510.78125 641.339844 510.246094 647.601562 514.40625 C 649.9375 515.964844 651.695312 517.945312 652.800781 520.085938 C 654.101562 511.113281 655.390625 502.132812 656.6875 493.179688 C 657.988281 484.214844 659.273438 475.242188 660.578125 466.273438 C 660.863281 464.261719 661.15625 462.242188 661.4375 460.21875 C 662.136719 460.449219 662.828125 460.667969 663.523438 460.875 C 672.914062 463.792969 682.609375 466.816406 692.605469 469.925781 C 702.945312 473.144531 713.617188 476.457031 724.675781 479.894531 C 725.515625 480.171875 726.367188 480.433594 727.226562 480.695312 C 726.902344 482.933594 726.582031 485.15625 726.253906 487.382812 C 724.683594 498.222656 723.125 509.0625 721.574219 519.902344 C 720.023438 530.75 718.46875 541.605469 716.925781 552.464844 C 716.875 554.726562 716.058594 556.871094 714.40625 558.605469 C 709.601562 563.691406 699.585938 563.539062 692.121094 558.382812 C 688.636719 555.984375 686.007812 552.71875 685.003906 549.121094 C 684 545.523438 684.804688 542.277344 686.90625 539.925781 C 691.40625 534.882812 701.113281 534.636719 708.769531 539.542969 C 711.621094 541.367188 713.800781 543.65625 715.179688 546.082031 C 716.59375 536.160156 718.007812 526.238281 719.433594 516.324219 C 720.859375 506.40625 722.273438 496.480469 723.699219 486.566406 C 712.683594 483.019531 702.019531 479.585938 691.707031 476.269531 C 681.714844 473.0625 672.042969 469.953125 662.652344 466.9375 C 661.226562 476.726562 659.804688 486.53125 658.394531 496.335938 C 656.984375 506.136719 655.578125 515.945312 654.15625 525.753906 C 654.09375 527.796875 653.386719 529.742188 652 531.367188 C 647.984375 536.125 639.722656 536.335938 633.609375 531.96875 Z M 633.609375 531.96875 " fill-opacity="1" fill-rule="nonzero"/><path fill="#1bb392" d="M 556.648438 514.394531 C 553.449219 511.777344 553.570312 507.566406 556.914062 505.140625 C 560.171875 502.773438 565.273438 502.917969 568.390625 505.464844 C 569.25 506.167969 569.875 506.984375 570.261719 507.851562 L 584.945312 478.566406 L 586.667969 479.425781 C 583.679688 489.398438 591.636719 500.324219 584.125 507.046875 C 583.347656 507.742188 581.90625 508.851562 580.289062 509.546875 C 580.140625 509.609375 579.972656 509.558594 579.890625 509.421875 C 579.804688 509.289062 579.832031 509.117188 579.949219 509.011719 C 581.074219 508.023438 582.464844 506.960938 583.015625 506.230469 C 584.136719 504.75 584.875 503.445312 585.160156 502.191406 C 586.410156 496.765625 581.71875 493.453125 581.5 489.726562 L 570.6875 511.292969 C 569.972656 512.722656 569.582031 513.660156 568.125 514.71875 C 564.871094 517.082031 559.765625 516.9375 556.648438 514.394531 Z M 556.648438 514.394531 " fill-opacity="1" fill-rule="nonzero"/><path fill="#1bb392" d="M 727.375 364.085938 C 725.519531 364.167969 723.8125 363.546875 722.691406 362.210938 C 721.566406 360.875 721.25 359.089844 721.644531 357.277344 C 722.484375 353.445312 726.3125 350.222656 730.230469 350.058594 C 731.667969 349.996094 732.925781 350.351562 733.902344 351.015625 L 727.128906 326.082031 L 726.679688 324.433594 L 725.855469 321.394531 L 724.957031 318.101562 L 726.089844 317.792969 L 756.171875 309.621094 L 757.300781 309.3125 L 758.199219 312.609375 L 759.023438 315.644531 L 759.46875 317.289062 L 766.988281 344.960938 C 767.390625 345.988281 767.492188 347.195312 767.203125 348.5 C 766.367188 352.328125 762.535156 355.550781 758.617188 355.71875 C 756.765625 355.800781 755.058594 355.183594 753.933594 353.847656 C 752.808594 352.511719 752.492188 350.722656 752.890625 348.914062 C 753.726562 345.082031 757.554688 341.859375 761.476562 341.691406 C 762.914062 341.628906 764.167969 341.984375 765.144531 342.648438 L 758.339844 317.597656 L 728.257812 325.773438 L 735.746094 353.328125 C 736.148438 354.355469 736.246094 355.5625 735.960938 356.863281 C 735.125 360.695312 731.292969 363.917969 727.375 364.085938 Z M 757.890625 315.953125 L 757.066406 312.917969 L 726.984375 321.089844 L 727.8125 324.125 Z M 757.890625 315.953125 " fill-opacity="1" fill-rule="nonzero"/><path fill="#1bb392" d="M 636.089844 243.230469 C 631.207031 243.527344 627.925781 239.761719 628.886719 234.957031 C 629.816406 230.28125 634.382812 226.308594 639.140625 226.019531 C 640.460938 225.941406 641.65625 226.152344 642.6875 226.597656 L 631.941406 189.289062 L 634.128906 188.65625 C 639.542969 199.742188 655.257812 202.863281 654.117188 214.757812 C 654 215.984375 653.632812 218.105469 652.785156 220.015625 C 652.707031 220.183594 652.519531 220.277344 652.339844 220.222656 C 652.15625 220.175781 652.039062 220.007812 652.058594 219.820312 C 652.246094 218.058594 652.601562 216.011719 652.496094 214.929688 C 652.28125 212.742188 651.875 211.015625 651.117188 209.691406 C 647.84375 203.960938 641.09375 204.847656 637.910156 201.777344 L 645.828125 229.25 C 646.351562 231.070312 646.765625 232.207031 646.351562 234.292969 C 645.414062 238.96875 640.851562 242.945312 636.089844 243.230469 Z M 636.089844 243.230469 " fill-opacity="1" fill-rule="nonzero"/><path fill="#1bb392" d="M 262.375 301.5625 C 261.234375 299.710938 263.121094 298.226562 265.851562 297.546875 C 270.71875 296.328125 276.5 298.15625 280.519531 301.246094 C 286.304688 305.695312 285.296875 314.183594 279.195312 321.273438 C 267.558594 334.785156 249.785156 339.738281 233.828125 339.398438 L 233.765625 340.269531 C 250.304688 342.453125 277.878906 338.722656 286.167969 326.777344 C 293.085938 316.8125 290.949219 306.507812 281.21875 299.78125 C 272.375 293.664062 261.398438 294.214844 257.0625 301.242188 C 254.261719 305.777344 255.429688 311.261719 259.425781 313.59375 C 262.210938 315.226562 265.878906 316.332031 268.542969 312.800781 C 270.773438 309.84375 270.667969 306.980469 267.835938 304.679688 C 266.144531 303.304688 263.78125 303.847656 262.375 301.5625 Z M 291.140625 333.925781 C 292.972656 335.113281 293.492188 337.5625 292.308594 339.394531 C 291.117188 341.226562 288.667969 341.746094 286.839844 340.558594 C 285.003906 339.367188 284.484375 336.917969 285.671875 335.089844 C 286.859375 333.257812 289.308594 332.738281 291.140625 333.925781 Z M 300.414062 319.636719 C 302.242188 320.824219 302.765625 323.273438 301.578125 325.101562 C 300.390625 326.933594 297.941406 327.457031 296.109375 326.269531 C 294.277344 325.078125 293.757812 322.632812 294.945312 320.800781 C 296.132812 318.96875 298.582031 318.445312 300.414062 319.636719 Z M 300.414062 319.636719 " fill-opacity="1" fill-rule="evenodd"/><path fill="#1bb392" d="M 293.253906 388.359375 C 290.460938 386.449219 288.640625 383.671875 288.460938 380.496094 C 288.28125 377.316406 289.777344 374.359375 292.335938 372.144531 C 297.75 367.464844 306.871094 366.949219 312.78125 370.992188 C 314.949219 372.472656 316.390625 374.367188 317.089844 376.402344 L 339.871094 318.957031 L 341.863281 319.742188 L 317.253906 381.800781 C 316.71875 383.742188 315.539062 385.613281 313.703125 387.199219 C 308.285156 391.882812 299.164062 392.398438 293.253906 388.359375 Z M 293.9375 386.050781 C 299.308594 389.726562 307.714844 389.253906 312.640625 384.992188 C 317.433594 380.847656 317.214844 376.8125 312.242188 373.414062 C 306.867188 369.738281 298.464844 370.210938 293.539062 374.476562 C 288.59375 378.75 288.261719 382.171875 293.9375 386.050781 Z M 293.9375 386.050781 " fill-opacity="1" fill-rule="nonzero"/><path fill="#1bb392" d="M 425.597656 402.285156 C 421.964844 403.074219 418.746094 402.519531 416.851562 400.363281 C 414.953125 398.214844 414.796875 394.921875 416.03125 391.414062 C 418.617188 384.140625 426.625 377.429688 433.828125 376.226562 C 436.410156 375.789062 438.5625 376.113281 440.167969 377.015625 C 438.898438 370.277344 437.640625 363.621094 436.414062 357.082031 C 435.199219 350.632812 434 344.25 432.816406 337.984375 C 432.660156 337.160156 432.507812 336.339844 432.355469 335.523438 C 432.066406 334.011719 431.78125 332.511719 431.5 331.015625 C 431.199219 329.398438 430.894531 327.792969 430.59375 326.179688 C 431.25 326.019531 431.902344 325.863281 432.554688 325.703125 C 441.015625 323.621094 449.121094 321.628906 456.886719 319.730469 C 464.339844 317.902344 471.488281 316.144531 478.375 314.449219 C 478.878906 314.324219 479.382812 314.195312 479.890625 314.066406 C 480.234375 315.460938 480.574219 316.855469 480.925781 318.246094 C 481.238281 319.546875 481.5625 320.832031 481.886719 322.128906 C 482.0625 322.832031 482.242188 323.539062 482.417969 324.253906 C 483.902344 330.238281 485.410156 336.320312 486.929688 342.460938 C 488.476562 348.699219 490.039062 355.039062 491.636719 361.449219 C 492.160156 362.871094 492.277344 364.621094 491.859375 366.554688 C 490.628906 372.386719 485.128906 378.054688 479.417969 379.15625 C 476.660156 379.695312 474.128906 379.09375 472.527344 377.214844 C 470.914062 375.335938 470.574219 372.582031 471.316406 369.675781 C 472.847656 363.660156 478.621094 358.273438 484.171875 357.488281 C 486.160156 357.21875 487.875 357.554688 489.1875 358.378906 C 487.761719 352.582031 486.351562 346.859375 484.960938 341.203125 C 483.589844 335.621094 482.234375 330.105469 480.890625 324.667969 C 473.984375 326.582031 466.796875 328.582031 459.300781 330.652344 C 451.480469 332.8125 443.320312 335.070312 434.796875 337.441406 C 436.109375 344.339844 437.453125 351.359375 438.808594 358.472656 C 440.1875 365.703125 441.585938 373.050781 443.003906 380.523438 C 443.539062 382.179688 443.511719 384.21875 442.808594 386.554688 C 440.679688 393.546875 433.074219 400.628906 425.597656 402.285156 Z M 480.367188 322.539062 C 480.042969 321.234375 479.722656 319.941406 479.40625 318.644531 C 472.515625 320.421875 465.34375 322.277344 457.878906 324.203125 C 450.097656 326.214844 441.964844 328.3125 433.480469 330.5 C 433.757812 332.003906 434.039062 333.488281 434.328125 334.992188 C 442.84375 332.683594 450.992188 330.480469 458.800781 328.375 C 466.285156 326.355469 473.46875 324.410156 480.367188 322.539062 Z M 480.367188 322.539062 " fill-opacity="1" fill-rule="nonzero"/><path fill="#1bb392" d="M 530.761719 288.328125 C 537.09375 287.175781 541.964844 291.574219 541.464844 297.988281 C 540.980469 304.242188 535.648438 310.136719 529.484375 311.265625 C 527.777344 311.578125 526.179688 311.488281 524.769531 311.070312 L 537.664062 341.539062 C 538.371094 335.773438 546 331.09375 544.601562 322.53125 C 544.28125 320.554688 543.261719 318.453125 541.671875 316.039062 C 540.886719 314.847656 538.835938 313.054688 537.183594 311.410156 C 537.007812 311.234375 536.988281 310.964844 537.132812 310.761719 C 537.277344 310.558594 537.546875 310.496094 537.761719 310.609375 C 540.207031 311.855469 542.339844 313.71875 543.476562 314.878906 C 554.480469 326.082031 541.011719 342.265625 544.65625 358.070312 L 541.894531 359.238281 L 534.898438 342.707031 L 522.464844 313.324219 L 520.253906 308.101562 C 519.285156 305.808594 518.5625 304.394531 518.777344 301.605469 C 519.265625 295.355469 524.59375 289.449219 530.761719 288.328125 Z M 530.761719 288.328125 " fill-opacity="1" fill-rule="nonzero"/><path fill="#1bb392" d="M 583.273438 302.300781 C 581.023438 302.960938 578.746094 302.722656 576.960938 301.425781 C 575.183594 300.132812 574.25 298.039062 574.183594 295.699219 C 574.050781 290.75 577.765625 285.636719 582.515625 284.242188 C 584.261719 283.730469 585.902344 283.789062 587.300781 284.304688 L 566.503906 246.957031 L 567.796875 246.234375 L 590.265625 286.578125 C 591.070312 287.714844 591.554688 289.164062 591.601562 290.847656 C 591.742188 295.792969 588.019531 300.90625 583.273438 302.300781 Z M 582.332031 300.929688 C 586.65625 299.65625 590.078125 294.949219 589.957031 290.445312 C 589.835938 286.066406 587.574219 284.417969 583.578125 285.59375 C 579.257812 286.859375 575.835938 291.570312 575.960938 296.074219 C 576.085938 300.59375 577.773438 302.269531 582.332031 300.929688 Z M 582.332031 300.929688 " fill-opacity="1" fill-rule="nonzero"/><path fill="#1bb392" d="M 621.40625 283.96875 C 619.484375 284.621094 617.5 284.496094 615.910156 283.445312 C 614.320312 282.386719 613.4375 280.609375 613.296875 278.589844 C 612.992188 274.308594 616.015625 269.75 620.078125 268.367188 C 621.566406 267.855469 622.996094 267.847656 624.222656 268.242188 L 604.835938 236.691406 L 605.929688 236.019531 L 626.871094 270.097656 C 627.613281 271.050781 628.082031 272.289062 628.1875 273.742188 C 628.488281 278.019531 625.464844 282.582031 621.40625 283.96875 Z M 621.40625 283.96875 " fill-opacity="1" fill-rule="nonzero"/><path fill="#1bb392" d="M 805.191406 288.324219 C 807.082031 288.410156 808.765625 289.195312 809.789062 290.652344 C 810.8125 292.113281 810.96875 293.964844 810.40625 295.769531 C 809.203125 299.59375 805.011719 302.527344 801.011719 302.339844 C 799.542969 302.273438 798.296875 301.796875 797.363281 301.039062 L 803.441406 335.101562 L 802.261719 335.308594 L 795.695312 298.515625 C 795.378906 297.433594 795.386719 296.195312 795.792969 294.894531 C 796.996094 291.074219 801.183594 288.140625 805.191406 288.324219 Z M 805.191406 288.324219 " fill-opacity="1" fill-rule="nonzero"/><path fill="#1bb392" d="M 778.664062 231.953125 L 792.5625 177.359375 L 793.652344 177.636719 L 779.757812 232.230469 Z M 778.664062 231.953125 " fill-opacity="1" fill-rule="nonzero"/><path fill="#1bb392" d="M 810.152344 197.503906 C 807.707031 192.058594 805.113281 189.390625 802.148438 186.125 C 806.117188 195.628906 803.570312 200.992188 796.683594 203.601562 C 795.984375 207 797.703125 211.582031 801.171875 217.023438 C 787.304688 214.550781 786.671875 226.25 797.117188 234.746094 C 794.859375 224.421875 795.625 218.027344 807.089844 224.226562 C 804.828125 218.105469 801.363281 210.957031 803 208.125 C 809.359375 206.113281 811.648438 200.835938 810.152344 197.503906 Z M 810.152344 197.503906 " fill-opacity="1" fill-rule="evenodd"/><path fill="#1bb392" d="M 810.347656 264.046875 C 809.316406 263.015625 808.761719 261.699219 808.933594 260.34375 C 809.109375 258.980469 809.972656 257.847656 811.230469 257.109375 C 813.890625 255.554688 817.789062 256.050781 819.976562 258.226562 C 820.78125 259.023438 821.238281 259.9375 821.375 260.855469 L 835.53125 238.320312 L 836.308594 238.8125 L 821.023438 263.152344 C 820.640625 263.933594 819.996094 264.632812 819.09375 265.160156 C 816.433594 266.714844 812.535156 266.222656 810.347656 264.046875 Z M 810.347656 264.046875 " fill-opacity="1" fill-rule="nonzero"/><path fill="#1bb392" d="M 683.28125 183.308594 C 685.238281 183.289062 687.019531 184 688.15625 185.449219 C 689.292969 186.898438 689.5625 188.792969 689.078125 190.6875 C 688.0625 194.699219 683.90625 197.960938 679.769531 198 C 678.25 198.015625 676.941406 197.59375 675.933594 196.855469 L 684.140625 231.632812 L 682.933594 231.917969 L 674.070312 194.351562 C 673.683594 193.257812 673.625 191.980469 673.972656 190.617188 C 674.988281 186.605469 679.140625 183.34375 683.28125 183.308594 Z M 683.28125 183.308594 " fill-opacity="1" fill-rule="nonzero"/><path fill="#1bb392" d="M 820.765625 213.273438 C 822.457031 213.925781 823.304688 215.828125 822.65625 217.519531 C 822.414062 218.148438 822.003906 218.65625 821.5 219.019531 C 821.480469 219.03125 821.472656 219.054688 821.480469 219.074219 C 821.480469 219.097656 821.5 219.113281 821.523438 219.117188 C 822.367188 219.261719 823.191406 219.324219 823.972656 219.34375 C 825.328125 219.375 827.667969 219.3125 828.726562 218.332031 C 828.746094 218.3125 828.785156 218.3125 828.804688 218.335938 C 829.121094 218.660156 829.484375 219.03125 829.90625 219.460938 C 829.929688 219.484375 829.929688 219.519531 829.90625 219.539062 L 814.464844 234.6875 C 814.441406 234.710938 814.40625 234.710938 814.382812 234.6875 L 813.277344 233.5625 C 813.257812 233.539062 813.257812 233.503906 813.277344 233.484375 L 826.636719 220.382812 C 826.65625 220.363281 826.660156 220.339844 826.648438 220.316406 C 826.636719 220.292969 826.613281 220.285156 826.589844 220.285156 C 825.761719 220.421875 824.871094 220.492188 823.9375 220.46875 C 822.277344 220.429688 820.425781 220.207031 818.546875 219.460938 L 818.410156 219.414062 C 816.714844 218.761719 815.867188 216.859375 816.519531 215.167969 C 817.167969 213.472656 819.070312 212.625 820.765625 213.273438 Z M 820.765625 213.273438 " fill-opacity="1" fill-rule="evenodd"/><path fill="#1bb392" d="M 676.179688 382.5 C 673.902344 381.847656 672.078125 380.402344 671.261719 378.328125 C 670.441406 376.25 670.785156 373.953125 672 371.917969 C 674.574219 367.613281 680.53125 365.261719 685.351562 366.652344 C 687.121094 367.160156 688.492188 368.105469 689.410156 369.304688 L 689.933594 359.664062 C 687.109375 363.367188 681.679688 365.277344 677.21875 363.996094 C 674.941406 363.335938 673.121094 361.894531 672.300781 359.820312 C 671.484375 357.742188 671.824219 355.445312 673.039062 353.410156 C 675.613281 349.101562 681.570312 346.753906 686.390625 348.144531 C 688.160156 348.652344 689.53125 349.59375 690.449219 350.796875 C 691.128906 339.085938 691.859375 327.503906 692.570312 315.835938 L 694.066406 315.921875 C 692.90625 335.191406 691.828125 353.589844 690.707031 372.863281 C 690.777344 374.269531 690.402344 375.773438 689.53125 377.234375 C 686.957031 381.539062 681 383.890625 676.179688 382.5 Z M 676.179688 382.5 " fill-opacity="1" fill-rule="nonzero"/><path fill="#1bb392" d="M 576.058594 414.644531 C 573.730469 414.417969 571.699219 413.339844 570.53125 411.472656 C 569.367188 409.609375 569.285156 407.316406 570.101562 405.125 C 571.824219 400.480469 577.183594 397.132812 582.109375 397.613281 C 583.917969 397.789062 585.421875 398.457031 586.523438 399.460938 L 581.203125 357.039062 L 582.671875 356.859375 L 588.421875 402.675781 C 588.742188 404.03125 588.648438 405.558594 588.066406 407.132812 C 586.34375 411.777344 580.980469 415.125 576.058594 414.644531 Z M 575.699219 413.019531 C 580.183594 413.457031 585.121094 410.371094 586.691406 406.148438 C 588.214844 402.042969 586.738281 399.664062 582.59375 399.261719 C 578.109375 398.824219 573.171875 401.910156 571.605469 406.136719 C 570.03125 410.371094 570.96875 412.558594 575.699219 413.019531 Z M 575.699219 413.019531 " fill-opacity="1" fill-rule="nonzero"/><g clip-path="url(#id6)"><path fill="#fcba06" d="M 901.070312 57.359375 L 897.953125 83.691406 C 897.621094 83.636719 897.277344 83.613281 896.921875 83.621094 C 896.226562 83.636719 895.511719 83.777344 894.808594 84.03125 C 891.808594 85.113281 889.851562 87.953125 890.351562 90.496094 C 890.730469 92.433594 892.492188 93.738281 894.730469 93.738281 C 894.78125 93.738281 894.828125 93.738281 894.871094 93.734375 C 895.570312 93.71875 896.285156 93.582031 896.992188 93.324219 C 899.40625 92.453125 901.226562 90.390625 901.523438 88.179688 L 903.980469 67.378906 L 916.5625 74.078125 L 914.570312 90.980469 C 914.246094 90.929688 913.902344 90.90625 913.570312 90.917969 C 912.871094 90.933594 912.160156 91.070312 911.453125 91.324219 C 908.457031 92.40625 906.5 95.246094 906.996094 97.792969 C 907.378906 99.730469 909.136719 101.03125 911.378906 101.03125 C 911.425781 101.03125 911.472656 101.03125 911.519531 101.03125 C 912.21875 101.015625 912.929688 100.875 913.636719 100.621094 C 916.050781 99.746094 917.859375 97.695312 918.136719 95.507812 L 921.421875 67.722656 L 901.070312 57.359375 " fill-opacity="1" fill-rule="nonzero"/></g><g clip-path="url(#id7)"><path fill="#fcba06" d="M 883.320312 78.78125 C 882.894531 78.445312 882.433594 78.125 881.910156 77.792969 C 881.671875 77.644531 881.433594 77.5 881.199219 77.371094 C 880.925781 77.214844 880.679688 77.085938 880.449219 76.96875 C 880.160156 76.824219 879.875 76.6875 879.59375 76.550781 C 879.007812 76.269531 878.449219 76 877.96875 75.707031 C 877.332031 75.328125 876.867188 74.910156 876.585938 74.464844 C 876.503906 74.339844 876.335938 73.988281 876.199219 73.707031 L 875.976562 73.25 C 875.769531 72.828125 875.535156 72.347656 875.0625 71.71875 C 874.59375 71.09375 873.882812 70.738281 873.121094 70.738281 C 872.820312 70.738281 872.523438 70.792969 872.242188 70.902344 C 872.132812 70.941406 872.027344 70.992188 871.917969 71.050781 C 870.8125 71.652344 870.210938 72.96875 870.457031 74.253906 L 876.117188 99.199219 C 875.539062 99.265625 874.949219 99.410156 874.367188 99.636719 C 873.503906 99.964844 872.675781 100.453125 871.90625 101.085938 C 868.640625 103.773438 867.433594 108.171875 869.164062 111.09375 C 870.078125 112.640625 871.691406 113.523438 873.585938 113.523438 C 874.402344 113.523438 875.238281 113.363281 876.066406 113.046875 C 876.933594 112.714844 877.761719 112.222656 878.535156 111.589844 C 881.167969 109.417969 882.527344 106.054688 881.914062 103.207031 L 876.917969 81.210938 C 877.179688 81.308594 877.441406 81.394531 877.695312 81.484375 C 877.964844 81.578125 878.226562 81.667969 878.460938 81.753906 L 879.078125 81.992188 C 879.316406 82.09375 879.496094 82.175781 879.65625 82.253906 C 880.035156 82.429688 880.398438 82.628906 880.753906 82.84375 C 882.28125 83.769531 883.367188 84.957031 883.988281 86.390625 C 884.660156 87.894531 884.824219 89.839844 884.453125 91.882812 C 884.316406 92.660156 884.761719 93.417969 885.492188 93.644531 C 885.804688 93.738281 886.140625 93.730469 886.457031 93.609375 C 886.917969 93.433594 887.261719 93.050781 887.402344 92.570312 C 888.214844 89.875 888.265625 87.117188 887.546875 84.8125 C 886.84375 82.507812 885.386719 80.421875 883.320312 78.78125 " fill-opacity="1" fill-rule="nonzero"/></g><g clip-path="url(#id8)"><path fill="#fcba06" d="M 893.679688 57.132812 C 893.527344 56.894531 893.359375 56.660156 893.160156 56.414062 C 893.066406 56.300781 892.972656 56.191406 892.882812 56.089844 C 892.773438 55.96875 892.675781 55.863281 892.582031 55.769531 C 892.464844 55.652344 892.351562 55.539062 892.238281 55.425781 C 891.996094 55.1875 891.769531 54.964844 891.585938 54.742188 C 891.339844 54.449219 891.183594 54.171875 891.117188 53.90625 C 891.097656 53.832031 891.074219 53.632812 891.054688 53.472656 L 891.023438 53.214844 C 890.992188 52.972656 890.957031 52.699219 890.832031 52.316406 C 890.707031 51.933594 890.421875 51.640625 890.050781 51.515625 C 889.902344 51.464844 889.75 51.441406 889.59375 51.445312 C 889.535156 51.449219 889.472656 51.453125 889.414062 51.464844 C 888.773438 51.574219 888.261719 52.117188 888.167969 52.78125 L 886.78125 65.875 C 886.488281 65.8125 886.179688 65.785156 885.855469 65.796875 C 885.378906 65.8125 884.898438 65.914062 884.417969 66.09375 C 882.378906 66.859375 881.0625 68.796875 881.417969 70.511719 C 881.605469 71.414062 882.246094 72.117188 883.167969 72.429688 C 883.566406 72.566406 884 72.628906 884.457031 72.609375 C 884.933594 72.59375 885.417969 72.492188 885.898438 72.3125 C 887.542969 71.695312 888.765625 70.28125 888.9375 68.792969 L 890.160156 57.25 C 890.269531 57.335938 890.382812 57.425781 890.492188 57.507812 C 890.609375 57.601562 890.722656 57.6875 890.820312 57.769531 L 891.082031 57.988281 C 891.179688 58.078125 891.253906 58.144531 891.320312 58.210938 C 891.472656 58.359375 891.621094 58.519531 891.753906 58.679688 C 892.347656 59.386719 892.679688 60.144531 892.742188 60.949219 C 892.820312 61.792969 892.578125 62.765625 892.054688 63.699219 C 891.863281 64.054688 891.953125 64.5 892.269531 64.730469 C 892.40625 64.828125 892.570312 64.878906 892.746094 64.875 C 893 64.863281 893.230469 64.738281 893.378906 64.527344 C 894.222656 63.347656 894.703125 62.015625 894.738281 60.773438 C 894.777344 59.53125 894.414062 58.273438 893.679688 57.132812 " fill-opacity="1" fill-rule="nonzero"/></g><g clip-path="url(#id9)"><path fill="#fcba06" d="M 872.265625 755.1875 C 872.265625 757.113281 870.703125 758.675781 868.777344 758.675781 L 866.113281 758.675781 C 864.183594 758.675781 862.625 757.113281 862.625 755.1875 L 862.625 690.15625 C 862.625 688.226562 864.183594 686.664062 866.113281 686.664062 L 868.777344 686.664062 C 870.703125 686.664062 872.265625 688.226562 872.265625 690.15625 L 872.265625 755.1875 " fill-opacity="1" fill-rule="nonzero"/></g><path fill="#fcba06" d="M 884.058594 746.367188 C 884.058594 748.292969 882.5 749.855469 880.570312 749.855469 L 880.367188 749.855469 C 878.441406 749.855469 876.878906 748.292969 876.878906 746.367188 L 876.878906 698.976562 C 876.878906 697.050781 878.441406 695.488281 880.367188 695.488281 L 880.570312 695.488281 C 882.5 695.488281 884.058594 697.050781 884.058594 698.976562 L 884.058594 746.367188 " fill-opacity="1" fill-rule="nonzero"/><path fill="#fcba06" d="M 894.316406 737.238281 C 894.316406 739.050781 892.847656 740.519531 891.035156 740.519531 C 889.222656 740.519531 887.753906 739.050781 887.753906 737.238281 L 887.753906 708.105469 C 887.753906 706.292969 889.222656 704.824219 891.035156 704.824219 C 892.847656 704.824219 894.316406 706.292969 894.316406 708.105469 L 894.316406 737.238281 " fill-opacity="1" fill-rule="nonzero"/><path fill="#fcba06" d="M 903.960938 745.238281 C 903.960938 746.824219 902.671875 748.109375 901.085938 748.109375 C 899.5 748.109375 898.214844 746.824219 898.214844 745.238281 L 898.214844 700.101562 C 898.214844 698.519531 899.5 697.230469 901.085938 697.230469 C 902.671875 697.230469 903.960938 698.519531 903.960938 700.101562 L 903.960938 745.238281 " fill-opacity="1" fill-rule="nonzero"/><path fill="#fcba06" d="M 912.984375 732.519531 C 912.984375 733.992188 911.789062 735.1875 910.316406 735.1875 C 908.84375 735.1875 907.652344 733.992188 907.652344 732.519531 L 907.652344 712.824219 C 907.652344 711.351562 908.84375 710.15625 910.316406 710.15625 C 911.789062 710.15625 912.984375 711.351562 912.984375 712.824219 L 912.984375 732.519531 " fill-opacity="1" fill-rule="nonzero"/><path fill="#fcba06" d="M 920.984375 729.238281 C 920.984375 730.480469 919.976562 731.492188 918.730469 731.492188 C 917.484375 731.492188 916.472656 730.480469 916.472656 729.238281 L 916.472656 716.105469 C 916.472656 714.859375 917.484375 713.847656 918.730469 713.847656 C 919.976562 713.847656 920.984375 714.859375 920.984375 716.105469 L 920.984375 729.238281 " fill-opacity="1" fill-rule="nonzero"/><g clip-path="url(#id10)"><path fill="#fcba06" d="M 927.34375 726.261719 C 927.34375 727.28125 926.519531 728.109375 925.5 728.109375 C 924.480469 728.109375 923.652344 727.28125 923.652344 726.261719 L 923.652344 719.082031 C 923.652344 718.058594 924.480469 717.234375 925.5 717.234375 C 926.519531 717.234375 927.34375 718.058594 927.34375 719.082031 L 927.34375 726.261719 " fill-opacity="1" fill-rule="nonzero"/></g><path fill="#fcba06" d="M 850.828125 746.367188 C 850.828125 748.292969 852.390625 749.855469 854.316406 749.855469 L 854.519531 749.855469 C 856.445312 749.855469 858.007812 748.292969 858.007812 746.367188 L 858.007812 698.976562 C 858.007812 697.050781 856.445312 695.488281 854.519531 695.488281 L 854.316406 695.488281 C 852.390625 695.488281 850.828125 697.050781 850.828125 698.976562 L 850.828125 746.367188 " fill-opacity="1" fill-rule="nonzero"/><path fill="#fcba06" d="M 840.570312 737.238281 C 840.570312 739.050781 842.039062 740.519531 843.851562 740.519531 C 845.664062 740.519531 847.136719 739.050781 847.136719 737.238281 L 847.136719 708.105469 C 847.136719 706.292969 845.664062 704.824219 843.851562 704.824219 C 842.039062 704.824219 840.570312 706.292969 840.570312 708.105469 L 840.570312 737.238281 " fill-opacity="1" fill-rule="nonzero"/><path fill="#fcba06" d="M 830.929688 745.238281 C 830.929688 746.824219 832.214844 748.109375 833.800781 748.109375 C 835.386719 748.109375 836.675781 746.824219 836.675781 745.238281 L 836.675781 700.101562 C 836.675781 698.519531 835.386719 697.230469 833.800781 697.230469 C 832.214844 697.230469 830.929688 698.519531 830.929688 700.101562 L 830.929688 745.238281 " fill-opacity="1" fill-rule="nonzero"/><path fill="#fcba06" d="M 821.902344 732.519531 C 821.902344 733.992188 823.097656 735.1875 824.570312 735.1875 C 826.042969 735.1875 827.234375 733.992188 827.234375 732.519531 L 827.234375 712.824219 C 827.234375 711.351562 826.042969 710.15625 824.570312 710.15625 C 823.097656 710.15625 821.902344 711.351562 821.902344 712.824219 L 821.902344 732.519531 " fill-opacity="1" fill-rule="nonzero"/><path fill="#fcba06" d="M 813.902344 729.238281 C 813.902344 730.480469 814.914062 731.492188 816.160156 731.492188 C 817.40625 731.492188 818.417969 730.480469 818.417969 729.238281 L 818.417969 716.105469 C 818.417969 714.859375 817.40625 713.847656 816.160156 713.847656 C 814.914062 713.847656 813.902344 714.859375 813.902344 716.105469 L 813.902344 729.238281 " fill-opacity="1" fill-rule="nonzero"/><g clip-path="url(#id11)"><path fill="#fcba06" d="M 807.542969 726.261719 C 807.542969 727.28125 808.371094 728.109375 809.390625 728.109375 C 810.410156 728.109375 811.234375 727.28125 811.234375 726.261719 L 811.234375 719.082031 C 811.234375 718.058594 810.410156 717.234375 809.390625 717.234375 C 808.371094 717.234375 807.542969 718.058594 807.542969 719.082031 L 807.542969 726.261719 " fill-opacity="1" fill-rule="nonzero"/></g><path fill="#774441" d="M 665.109375 621.03125 C 658.8125 618.890625 652.511719 616.621094 646.339844 614.351562 C 623.03125 629.480469 619.125 646.878906 634.496094 666.796875 C 657.171875 667.429688 681.238281 667.554688 706.433594 667.175781 C 706.558594 667.175781 706.558594 667.175781 706.683594 667.175781 C 698.75 649.273438 684.890625 633.765625 665.109375 621.03125 Z M 665.109375 621.03125 " fill-opacity="1" fill-rule="nonzero"/><path fill="#afafaf" d="M 694.714844 601.363281 C 687.285156 604.515625 680.984375 607.792969 676.070312 611.074219 C 671.285156 614.351562 667.628906 617.628906 665.109375 620.90625 C 684.890625 633.640625 698.75 649.019531 706.683594 667.050781 C 747.125 676.507812 786.9375 679.53125 826.367188 676.128906 C 799.660156 656.207031 775.21875 640.070312 753.171875 627.460938 C 731.503906 615.484375 711.976562 606.660156 694.714844 601.363281 Z M 694.714844 601.363281 " fill-opacity="1" fill-rule="nonzero"/><path fill="#006b69" d="M 937.109375 509.203125 C 926.273438 503.78125 914.808594 500.882812 902.589844 500.503906 C 890.621094 500.125 878.777344 500.882812 866.9375 502.898438 C 856.730469 504.664062 846.527344 506.679688 836.449219 509.074219 C 824.480469 511.851562 812.890625 515.507812 801.550781 520.171875 C 797.769531 521.683594 793.992188 523.324219 790.210938 525.085938 C 743.976562 529.5 695.722656 530.507812 645.582031 528.238281 C 583.726562 531.011719 524.765625 528.742188 468.953125 521.429688 C 455.222656 519.667969 441.742188 517.523438 428.386719 515.128906 C 382.402344 507.6875 354.4375 513.742188 344.609375 533.15625 C 330.625 562.28125 339.695312 588.125 371.949219 610.820312 L 378.246094 614.980469 C 429.269531 646.246094 514.6875 663.644531 634.621094 666.925781 C 633.363281 648.265625 637.269531 630.742188 646.464844 614.476562 C 652.636719 616.746094 658.8125 618.890625 665.109375 621.03125 C 667.628906 617.628906 671.285156 614.351562 676.070312 611.199219 C 680.984375 607.921875 687.285156 604.640625 694.714844 601.492188 C 711.976562 606.785156 731.503906 615.484375 753.171875 627.839844 C 829.140625 625.695312 892.761719 606.910156 943.910156 571.359375 C 951.09375 564.296875 954.871094 555.472656 955.125 545.007812 C 955.25 539.710938 954.621094 534.542969 953.234375 529.375 C 950.589844 519.917969 945.171875 513.238281 937.109375 509.203125 Z M 937.109375 509.203125 " fill-opacity="1" fill-rule="nonzero"/><path fill="#774441" d="M 667 575.769531 C 659.441406 577.285156 651.882812 578.671875 644.574219 579.679688 C 644.449219 579.679688 644.324219 579.679688 644.199219 579.679688 C 644.070312 579.679688 644.070312 579.679688 643.945312 579.679688 C 629.078125 585.351562 617.992188 590.773438 610.9375 595.941406 C 609.425781 597.078125 608.039062 598.210938 606.78125 599.347656 C 619.757812 604.390625 632.859375 609.308594 646.214844 614.097656 C 652.386719 616.367188 658.558594 618.511719 664.859375 620.652344 C 667.378906 617.25 671.03125 613.972656 675.820312 610.820312 C 675.691406 607.667969 675.316406 604.640625 674.9375 601.742188 C 673.804688 592.285156 671.03125 583.585938 667 575.769531 Z M 667 575.769531 " fill-opacity="1" fill-rule="nonzero"/><path fill="#afafaf" d="M 620.386719 559.632812 C 598.085938 562.910156 577.550781 567.324219 558.65625 572.996094 C 562.433594 576.527344 565.960938 580.4375 569.617188 584.597656 C 581.835938 589.765625 594.308594 594.808594 606.90625 599.726562 C 608.039062 598.589844 609.425781 597.457031 611.0625 596.320312 C 618.117188 591.027344 629.207031 585.605469 644.070312 580.058594 C 637.519531 570.347656 629.710938 563.667969 620.386719 559.632812 Z M 620.386719 559.632812 " fill-opacity="1" fill-rule="nonzero"/><path fill="#5d3533" d="M 611.0625 596.195312 C 609.550781 597.328125 608.167969 598.464844 606.90625 599.597656 C 619.882812 604.640625 632.984375 609.558594 646.339844 614.351562 C 652.511719 616.621094 658.683594 618.761719 664.984375 620.90625 C 667.503906 617.503906 671.15625 614.222656 675.945312 611.074219 C 675.820312 607.921875 675.441406 604.894531 675.0625 601.996094 C 664.734375 612.207031 643.316406 610.316406 611.0625 596.195312 Z M 611.0625 596.195312 " fill-opacity="1" fill-rule="nonzero"/><path fill="#005452" d="M 645.582031 528.238281 C 583.726562 531.011719 524.765625 528.742188 468.953125 521.429688 C 449.804688 529.121094 436.578125 538.074219 429.269531 548.285156 C 479.789062 530.132812 523 538.324219 558.78125 572.871094 C 577.679688 567.324219 598.214844 562.785156 620.511719 559.507812 C 629.710938 563.542969 637.644531 570.222656 644.070312 579.679688 C 644.199219 579.679688 644.199219 579.679688 644.324219 579.679688 C 644.449219 579.679688 644.574219 579.679688 644.703125 579.679688 C 652.007812 578.542969 659.441406 577.285156 667.125 575.769531 C 692.070312 570.601562 718.527344 562.785156 746.496094 552.320312 C 754.433594 545.261719 763 539.207031 772.324219 534.164062 C 778.242188 530.886719 784.164062 527.863281 790.335938 525.085938 C 743.976562 529.5 695.722656 530.636719 645.582031 528.238281 Z M 645.582031 528.238281 " fill-opacity="1" fill-rule="nonzero"/><path fill="#774441" d="M 393.996094 475.414062 C 391.097656 475.917969 388.199219 476.421875 385.300781 476.925781 C 384.292969 477.050781 383.160156 477.304688 382.152344 477.429688 C 368.292969 479.699219 358.339844 484.363281 352.546875 491.300781 C 351.160156 493.316406 349.902344 495.332031 348.765625 497.351562 C 334.277344 522.945312 331.253906 553.832031 339.949219 590.015625 C 350.910156 592.035156 360.988281 588.757812 370.183594 580.308594 C 370.4375 525.96875 380.011719 516.640625 399.035156 552.445312 C 401.804688 545.636719 400.796875 532.148438 396.136719 512.355469 C 397.394531 512.605469 398.53125 512.859375 399.789062 513.109375 C 403.066406 513.742188 406.339844 514.246094 409.617188 514.75 C 417.679688 497.226562 412.386719 484.113281 393.996094 475.414062 Z M 393.996094 475.414062 " fill-opacity="1" fill-rule="nonzero"/><path fill="#5d3533" d="M 396.261719 512.355469 C 397.523438 512.605469 398.65625 512.859375 399.914062 513.109375 C 398.53125 508.570312 396.261719 504.160156 393.113281 500.125 C 394.246094 504.410156 395.253906 508.570312 396.261719 512.355469 Z M 396.261719 512.355469 " fill-opacity="1" fill-rule="nonzero"/><path fill="#774441" d="M 945.675781 491.171875 C 939.878906 484.238281 930.054688 479.574219 916.070312 477.304688 C 915.0625 477.179688 913.925781 477.050781 912.917969 476.800781 C 909.644531 476.296875 906.242188 475.664062 902.96875 475.035156 C 884.070312 484.492188 879.15625 497.730469 888.101562 514.625 C 891.628906 514.121094 895.03125 513.613281 898.429688 512.859375 C 899.566406 512.605469 900.699219 512.355469 901.832031 512.226562 C 897.171875 532.148438 896.164062 545.511719 898.933594 552.320312 C 917.960938 516.515625 927.535156 525.84375 927.785156 580.183594 C 936.984375 588.628906 947.0625 591.78125 958.023438 589.890625 C 966.714844 553.707031 963.691406 522.820312 949.203125 497.226562 C 948.320312 495.207031 947.0625 493.0625 945.675781 491.171875 Z M 945.675781 491.171875 " fill-opacity="1" fill-rule="nonzero"/><path fill="#5d3533" d="M 902.085938 512.226562 C 902.96875 508.570312 903.976562 504.539062 905.109375 500.375 C 902.085938 504.285156 899.941406 508.445312 898.683594 512.859375 C 899.691406 512.730469 900.824219 512.480469 902.085938 512.226562 Z M 902.085938 512.226562 " fill-opacity="1" fill-rule="nonzero"/><path fill="#fece00" d="M 809.488281 388.042969 C 808.226562 355.261719 801.171875 327.652344 788.070312 304.957031 C 788.070312 304.832031 787.945312 304.832031 787.945312 304.707031 C 787.816406 304.707031 787.816406 304.578125 787.816406 304.578125 C 780.386719 297.015625 768.542969 289.449219 752.417969 282.011719 C 748.386719 280.121094 744.101562 278.355469 739.566406 276.464844 C 739.441406 276.464844 739.441406 276.339844 739.316406 276.339844 L 739.0625 276.210938 C 739.0625 276.210938 738.9375 276.210938 738.9375 276.210938 C 719.660156 267.890625 689.804688 252.761719 649.363281 230.949219 C 608.542969 252.886719 578.558594 268.015625 559.285156 276.339844 C 559.285156 276.339844 559.285156 276.339844 559.160156 276.339844 L 558.90625 276.464844 C 558.78125 276.464844 558.65625 276.589844 558.65625 276.589844 C 554.246094 278.355469 550.085938 280.121094 546.183594 282.011719 C 529.804688 289.574219 517.960938 297.140625 510.527344 304.707031 C 510.527344 304.707031 510.402344 304.832031 510.402344 304.832031 C 510.402344 304.957031 510.277344 304.957031 510.277344 305.082031 C 508.261719 308.488281 506.371094 312.144531 504.734375 315.800781 C 495.285156 336.226562 489.992188 360.429688 488.984375 388.167969 L 462.277344 448.683594 C 441.742188 461.671875 419.066406 470.621094 394.246094 475.414062 C 403.066406 487.140625 408.230469 500.25 409.867188 514.75 C 437.457031 518.53125 466.058594 516.136719 495.664062 507.5625 C 512.542969 490.039062 525.773438 470.875 535.347656 450.070312 C 536.480469 447.675781 537.488281 445.28125 538.496094 442.757812 C 539.378906 440.617188 540.261719 438.347656 541.144531 436.078125 C 542.402344 432.800781 543.535156 429.394531 544.542969 425.992188 L 547.820312 529.5 C 614.96875 552.574219 683.125 552.066406 752.039062 527.988281 L 754.054688 425.867188 C 755.820312 431.664062 757.960938 437.339844 760.226562 442.886719 C 761.109375 444.902344 761.867188 446.921875 762.875 448.8125 C 772.449219 469.992188 785.929688 489.535156 803.0625 507.3125 C 832.542969 515.882812 861.015625 518.28125 888.480469 514.496094 C 889.863281 499.871094 894.777344 486.632812 903.34375 474.910156 C 878.902344 469.992188 856.605469 461.167969 836.320312 448.308594 Z M 809.488281 388.042969 " fill-opacity="1" fill-rule="nonzero"/><path fill="#dbb200" d="M 562.054688 415.273438 C 555 407.332031 548.703125 398.507812 543.160156 388.796875 C 536.984375 378.082031 531.695312 366.230469 527.160156 353.117188 C 529.175781 365.851562 532.070312 377.324219 535.851562 387.664062 C 538.496094 403.550781 539.503906 419.6875 538.625 436.078125 C 538.496094 438.347656 538.371094 440.488281 538.246094 442.757812 C 539.128906 440.617188 540.007812 438.347656 540.890625 436.078125 C 542.152344 432.800781 543.285156 429.394531 544.292969 425.992188 L 543.535156 404.808594 C 547.316406 411.617188 551.472656 417.796875 556.261719 423.34375 C 567.222656 423.34375 577.046875 422.714844 585.488281 421.199219 C 595.945312 419.5625 604.511719 416.789062 611.191406 413.003906 C 602.496094 414.644531 593.929688 415.652344 585.488281 415.90625 C 577.550781 416.410156 569.742188 416.15625 562.054688 415.273438 Z M 562.054688 415.273438 " fill-opacity="1" fill-rule="nonzero"/><path fill="#dbb200" d="M 736.292969 415.023438 C 719.03125 416.535156 702.527344 415.777344 686.652344 412.878906 C 698.75 419.941406 717.269531 423.46875 741.960938 423.46875 C 746.746094 418.046875 750.90625 411.996094 754.558594 405.1875 L 753.929688 425.867188 C 755.691406 431.664062 757.835938 437.339844 760.101562 442.886719 C 758.714844 424.226562 759.472656 405.820312 762.496094 387.664062 C 766.402344 377.074219 769.425781 365.222656 771.3125 352.109375 C 767.03125 365.726562 761.613281 378.082031 755.0625 389.304688 C 749.644531 398.757812 743.347656 407.207031 736.292969 415.023438 Z M 736.292969 415.023438 " fill-opacity="1" fill-rule="nonzero"/><path fill="#dbb200" d="M 739.566406 276.464844 C 739.441406 276.464844 739.441406 276.339844 739.316406 276.339844 L 739.0625 276.210938 C 739.0625 276.210938 738.9375 276.210938 738.9375 276.210938 C 719.660156 267.890625 689.804688 252.761719 649.363281 230.949219 C 608.542969 252.886719 578.558594 268.015625 559.285156 276.339844 C 559.285156 276.339844 559.285156 276.339844 559.160156 276.339844 L 558.90625 276.464844 C 558.78125 276.464844 558.65625 276.589844 558.65625 276.589844 C 554.246094 278.355469 550.085938 280.121094 546.183594 282.011719 C 578.8125 297.519531 613.078125 301.050781 649.238281 292.476562 C 685.394531 301.050781 719.789062 297.519531 752.417969 281.886719 C 748.386719 280.121094 744.101562 278.230469 739.566406 276.464844 Z M 739.566406 276.464844 " fill-opacity="1" fill-rule="nonzero"/><path fill="#5d3533" d="M 616.734375 279.996094 C 639.535156 296.511719 661.457031 296.511719 682.621094 279.996094 L 682.621094 187.453125 L 616.734375 187.453125 Z M 616.734375 279.996094 " fill-opacity="1" fill-rule="nonzero"/><g clip-path="url(#id12)"><path fill="#774441" d="M 697.613281 147.234375 C 696.605469 147.234375 695.597656 147.488281 694.464844 148.117188 C 692.828125 117.230469 679.722656 99.324219 655.285156 94.535156 C 654.277344 94.28125 653.394531 94.15625 652.386719 94.03125 C 652.007812 94.03125 651.503906 93.90625 651.125 93.90625 C 650.117188 93.90625 649.238281 93.90625 648.230469 93.90625 C 647.726562 93.90625 647.347656 94.03125 646.84375 94.03125 C 645.960938 94.15625 645.078125 94.28125 644.199219 94.535156 C 619.757812 99.324219 606.65625 117.101562 604.890625 148.117188 C 603.882812 147.613281 602.875 147.363281 601.992188 147.363281 C 600.230469 147.363281 598.84375 148.242188 597.835938 150.136719 C 597.078125 151.648438 596.703125 153.414062 596.703125 155.683594 C 596.703125 157.195312 597.078125 159.464844 597.710938 162.238281 C 598.464844 165.136719 599.347656 168.039062 600.355469 170.9375 C 603.125 178.125 605.644531 181.65625 608.039062 181.65625 C 608.542969 181.65625 609.046875 181.402344 609.679688 180.773438 C 609.929688 180.644531 610.054688 180.394531 610.308594 180.140625 C 611.945312 185.183594 614.214844 189.847656 617.238281 194.136719 C 617.992188 195.144531 618.621094 196.152344 619.378906 197.160156 C 627.695312 208.128906 637.898438 213.550781 649.742188 213.550781 C 661.582031 213.550781 671.660156 208.128906 680.101562 197.160156 C 680.859375 196.152344 681.613281 195.144531 682.371094 194.136719 C 685.269531 189.722656 687.535156 185.058594 689.300781 180.015625 C 689.550781 180.265625 689.804688 180.519531 689.929688 180.773438 C 690.558594 181.402344 691.0625 181.65625 691.566406 181.65625 C 693.960938 181.65625 696.480469 178.125 699.253906 170.9375 C 700.386719 168.164062 701.269531 165.265625 701.898438 162.238281 C 702.652344 159.339844 702.90625 157.195312 702.90625 155.683594 C 702.90625 153.539062 702.527344 151.648438 701.773438 150.136719 C 700.890625 148.117188 699.503906 147.234375 697.613281 147.234375 Z M 697.613281 147.234375 " fill-opacity="1" fill-rule="nonzero"/></g><g clip-path="url(#id13)"><path fill="#040404" d="M 655.410156 94.410156 C 654.402344 94.15625 653.519531 94.03125 652.511719 93.90625 C 652.132812 93.90625 651.628906 93.777344 651.253906 93.777344 C 650.246094 93.777344 649.363281 93.777344 648.355469 93.777344 C 647.851562 93.777344 647.472656 93.90625 646.96875 93.90625 C 646.085938 94.03125 645.207031 94.15625 644.324219 94.410156 C 619.882812 99.199219 606.78125 116.976562 605.015625 147.992188 C 605.015625 147.992188 605.015625 147.992188 605.140625 147.992188 C 606.023438 148.621094 606.78125 149.125 607.410156 149.628906 C 608.542969 150.511719 609.300781 151.394531 610.054688 152.277344 C 610.054688 152.152344 610.054688 151.898438 610.054688 151.773438 C 609.929688 150.890625 609.929688 150.386719 609.929688 150.261719 C 609.929688 147.109375 610.308594 143.578125 611.191406 139.671875 C 612.070312 135.511719 613.332031 131.601562 614.96875 128.070312 C 616.734375 124.164062 618.621094 121.011719 620.890625 118.867188 C 623.410156 116.347656 625.929688 115.085938 628.703125 115.085938 C 629.835938 115.085938 630.96875 115.335938 632.355469 115.714844 C 633.613281 116.09375 635.757812 117.101562 638.652344 118.867188 C 641.171875 120.382812 644.070312 121.136719 647.347656 121.390625 L 647.726562 121.390625 C 648.101562 121.390625 648.480469 121.390625 648.859375 121.390625 C 649.613281 121.390625 650.246094 121.390625 650.875 121.390625 C 650.875 121.390625 651 121.390625 651 121.390625 C 651.503906 121.390625 652.007812 121.390625 652.511719 121.261719 C 655.914062 121.011719 658.8125 120.128906 661.203125 118.742188 C 664.101562 117.101562 666.117188 115.96875 667.503906 115.589844 C 668.765625 115.210938 670.023438 114.960938 671.15625 114.960938 C 673.929688 114.960938 676.449219 116.21875 678.96875 118.742188 C 681.109375 121.011719 683.125 124.039062 684.890625 127.945312 C 686.402344 131.476562 687.660156 135.257812 688.667969 139.542969 C 689.550781 143.453125 689.929688 146.984375 689.929688 150.136719 C 689.929688 150.261719 689.929688 150.890625 689.804688 152.027344 C 689.804688 152.027344 689.804688 152.152344 689.804688 152.277344 C 690.433594 151.394531 691.316406 150.511719 692.449219 149.628906 C 692.953125 149.253906 693.457031 148.75 694.085938 148.371094 C 694.210938 148.242188 694.464844 148.117188 694.589844 148.117188 C 692.828125 117.101562 679.851562 99.199219 655.410156 94.410156 Z M 655.410156 94.410156 " fill-opacity="1" fill-rule="nonzero"/></g><path fill="#fece00" d="M 742.84375 247.214844 C 728.101562 229.941406 708.070312 218.34375 682.75 212.542969 L 682.875 248.476562 C 682.875 248.601562 682.875 248.601562 682.75 248.726562 C 678.085938 265.875 667.125 280.121094 649.867188 291.71875 C 632.605469 280.121094 621.519531 265.621094 616.859375 248.476562 L 616.859375 212.542969 C 616.355469 212.667969 615.851562 212.796875 615.472656 212.921875 C 590.78125 218.847656 571.253906 230.320312 556.765625 247.214844 C 556.386719 247.84375 556.007812 248.347656 555.632812 248.980469 C 549.835938 258.6875 549.078125 268.898438 553.488281 279.488281 C 581.332031 292.601562 613.457031 296.886719 649.867188 292.601562 C 649.992188 292.601562 649.992188 292.601562 650.117188 292.601562 C 650.246094 292.601562 650.371094 292.601562 650.496094 292.601562 C 650.496094 292.601562 650.621094 292.601562 650.621094 292.601562 C 686.652344 296.761719 718.527344 292.351562 746.242188 279.363281 C 750.652344 268.773438 749.898438 258.6875 744.101562 248.851562 C 743.597656 248.347656 743.21875 247.84375 742.84375 247.214844 Z M 742.84375 247.214844 " fill-opacity="1" fill-rule="nonzero"/><path fill="#dbb200" d="M 682.621094 212.667969 L 682.75 248.726562 L 716.007812 259.316406 C 703.660156 272.808594 683.125 283.523438 654.527344 291.46875 C 691.316406 282.894531 713.992188 272.808594 722.9375 261.460938 C 723.0625 261.335938 723.0625 261.335938 723.1875 261.207031 C 723.1875 261.207031 723.1875 261.082031 723.1875 261.082031 C 726.96875 239.777344 713.488281 223.636719 682.621094 212.667969 Z M 682.621094 212.667969 " fill-opacity="1" fill-rule="nonzero"/><path fill="#dbb200" d="M 582.96875 259.191406 L 616.859375 248.476562 L 616.859375 212.542969 C 616.355469 212.667969 615.851562 212.796875 615.472656 212.921875 C 585.488281 223.890625 572.386719 239.902344 576.167969 260.832031 C 576.167969 260.832031 576.167969 260.957031 576.167969 260.957031 C 576.292969 261.082031 576.292969 261.207031 576.417969 261.207031 C 585.363281 272.683594 608.292969 282.769531 645.332031 291.339844 C 616.230469 283.398438 595.441406 272.683594 582.96875 259.191406 Z M 582.96875 259.191406 " fill-opacity="1" fill-rule="nonzero"/><path fill="#f37a04" d="M 693.078125 155.304688 C 692.953125 155.304688 692.828125 155.304688 692.574219 155.304688 C 692.699219 161.609375 692.324219 167.03125 691.441406 171.441406 C 691.945312 171.566406 692.449219 171.695312 693.078125 171.695312 C 694.84375 171.695312 696.480469 170.9375 697.738281 169.296875 C 699 167.660156 699.628906 165.769531 699.628906 163.5 C 699.628906 161.230469 699 159.339844 697.738281 157.699219 C 696.480469 156.0625 694.84375 155.304688 693.078125 155.304688 Z M 693.078125 155.304688 " fill-opacity="1" fill-rule="nonzero"/><path fill="#f37a04" d="M 607.03125 155.304688 C 606.90625 155.304688 606.78125 155.304688 606.527344 155.304688 C 604.765625 155.304688 603.125 156.0625 601.867188 157.699219 C 600.605469 159.339844 599.976562 161.230469 599.976562 163.5 C 599.976562 165.769531 600.605469 167.660156 601.867188 169.296875 C 603.125 170.9375 604.765625 171.695312 606.527344 171.695312 C 607.160156 171.695312 607.664062 171.566406 608.167969 171.441406 C 607.410156 167.03125 606.90625 161.609375 607.03125 155.304688 Z M 607.03125 155.304688 " fill-opacity="1" fill-rule="nonzero"/><path fill="#afafaf" d="M 449.050781 695.796875 L 458.246094 696.679688 L 462.53125 690.753906 L 454.089844 689.617188 Z M 449.050781 695.796875 " fill-opacity="1" fill-rule="nonzero"/><g clip-path="url(#id14)"><path fill="#f37a04" d="M 462.53125 690.753906 L 458.246094 696.679688 L 447.035156 712.691406 L 539.632812 723.027344 L 559.160156 688.988281 L 471.222656 678.398438 Z M 462.53125 690.753906 " fill-opacity="1" fill-rule="nonzero"/></g><path fill="#040404" d="M 459.253906 709.285156 L 537.867188 718.113281 L 552.734375 692.015625 L 477.144531 682.9375 Z M 459.253906 709.285156 " fill-opacity="1" fill-rule="nonzero"/><path fill="#000000" d="M 654.402344 297.769531 C 650.496094 292.476562 645.710938 287.179688 640.039062 281.507812 C 633.613281 275.457031 628.828125 271.042969 625.804688 268.144531 C 620.511719 263.101562 616.480469 258.6875 613.582031 254.777344 C 609.804688 249.734375 606.90625 244.316406 605.015625 238.640625 C 602.875 232.210938 601.742188 224.898438 601.742188 216.703125 C 601.742188 209.011719 602.246094 200.816406 603.378906 192.117188 C 604.636719 182.285156 606.277344 175.476562 608.167969 171.566406 C 608.417969 171.191406 608.417969 170.8125 608.292969 170.433594 C 608.167969 170.054688 607.914062 169.804688 607.535156 169.550781 C 607.160156 169.425781 606.78125 169.296875 606.402344 169.425781 C 606.023438 169.550781 605.773438 169.804688 605.519531 170.179688 C 603.378906 174.214844 601.742188 181.402344 600.355469 191.742188 C 599.222656 200.566406 598.589844 208.886719 598.589844 216.703125 C 598.589844 225.152344 599.726562 232.714844 601.992188 239.523438 C 604.007812 245.449219 607.03125 251.121094 611.0625 256.542969 C 614.085938 260.578125 618.246094 265.117188 623.660156 270.285156 C 626.6875 273.1875 631.472656 277.597656 637.898438 283.652344 C 643.441406 289.070312 648.101562 294.367188 651.882812 299.535156 C 656.796875 306.09375 660.828125 313.152344 664.101562 320.84375 C 672.164062 339.375 676.070312 362.828125 676.070312 391.195312 C 676.070312 403.929688 674.179688 415.652344 670.527344 426.496094 C 666.496094 438.472656 659.945312 449.820312 651 460.789062 C 631.597656 484.492188 598.71875 507.941406 552.355469 531.265625 C 543.03125 535.929688 530.6875 542.359375 515.316406 550.808594 C 494.277344 562.28125 477.144531 572.617188 464.292969 581.570312 C 451.441406 590.523438 439.347656 600.355469 428.136719 610.695312 C 416.671875 621.410156 411.128906 632.882812 411.632812 645.113281 C 411.632812 645.492188 411.757812 645.871094 412.136719 646.121094 C 412.386719 646.375 412.765625 646.5 413.144531 646.5 C 413.523438 646.5 413.898438 646.375 414.152344 645.996094 C 414.402344 645.742188 414.53125 645.363281 414.53125 644.988281 C 414.152344 633.640625 419.441406 622.921875 430.152344 612.835938 C 441.238281 602.5 453.207031 592.792969 466.058594 583.839844 C 478.90625 574.886719 495.789062 564.675781 516.828125 553.203125 C 532.199219 544.882812 544.542969 538.324219 553.867188 533.789062 C 600.734375 510.335938 633.992188 486.632812 653.519531 462.554688 C 662.71875 451.332031 669.394531 439.609375 673.550781 427.378906 C 677.332031 416.285156 679.21875 404.179688 679.21875 391.066406 C 679.21875 362.195312 675.1875 338.367188 667 319.457031 C 663.597656 311.765625 659.316406 304.453125 654.402344 297.769531 Z M 654.402344 297.769531 " fill-opacity="1" fill-rule="nonzero"/><path fill="#000000" d="M 693.960938 169.550781 C 693.582031 169.425781 693.203125 169.296875 692.828125 169.425781 C 692.449219 169.550781 692.195312 169.804688 691.945312 170.179688 C 691.820312 170.558594 691.691406 170.9375 691.820312 171.316406 C 699.253906 193.503906 702.527344 216.074219 701.519531 239.269531 C 700.511719 262.722656 691.945312 283.652344 675.820312 302.058594 C 671.285156 307.226562 667.253906 312.523438 663.976562 317.816406 C 663.726562 318.195312 663.726562 318.574219 663.851562 318.953125 C 663.976562 319.332031 664.101562 319.707031 664.480469 319.835938 C 664.859375 320.085938 665.238281 320.085938 665.613281 320.085938 C 665.992188 319.960938 666.371094 319.835938 666.496094 319.457031 C 669.773438 314.289062 673.675781 309.117188 678.085938 304.074219 C 694.714844 285.164062 703.535156 263.730469 704.542969 239.523438 C 705.550781 215.945312 702.148438 193 694.589844 170.433594 C 694.589844 170.054688 694.339844 169.675781 693.960938 169.550781 Z M 693.960938 169.550781 " fill-opacity="1" fill-rule="nonzero"/><path fill="#000000" d="M 455.601562 692.390625 C 426.371094 682.433594 412.765625 664.90625 414.90625 639.691406 C 414.90625 639.3125 414.78125 638.933594 414.53125 638.558594 C 414.277344 638.179688 413.898438 638.054688 413.523438 638.054688 C 413.144531 638.054688 412.765625 638.179688 412.386719 638.429688 C 412.011719 638.683594 411.882812 639.0625 411.882812 639.441406 C 409.492188 666.167969 423.726562 684.828125 454.59375 695.292969 C 454.96875 695.417969 455.347656 695.417969 455.726562 695.164062 C 456.105469 695.039062 456.355469 694.660156 456.480469 694.28125 C 456.609375 693.90625 456.609375 693.527344 456.355469 693.148438 C 456.230469 692.769531 455.976562 692.519531 455.601562 692.390625 Z M 455.601562 692.390625 " fill-opacity="1" fill-rule="nonzero"/></svg>