<svg xmlns="http://www.w3.org/2000/svg" xmlns:xlink="http://www.w3.org/1999/xlink" width="500" zoomAndPan="magnify" viewBox="0 0 375 374.999991" height="500" preserveAspectRatio="xMidYMid meet" version="1.0"><defs><clipPath id="15a09a8c98"><path d="M 27.4375 168 L 46 168 L 46 207 L 27.4375 207 Z M 27.4375 168 " clip-rule="nonzero"/></clipPath><clipPath id="924c7667d6"><path d="M 152 32.144531 L 171 32.144531 L 171 342.644531 L 152 342.644531 Z M 152 32.144531 " clip-rule="nonzero"/></clipPath><clipPath id="55d43cfccc"><path d="M 339 168 L 357.4375 168 L 357.4375 207 L 339 207 Z M 339 168 " clip-rule="nonzero"/></clipPath></defs><g clip-path="url(#15a09a8c98)"><path fill="#8034f6" d="M 36.605469 168.429688 C 31.539062 168.429688 27.4375 172.527344 27.4375 177.582031 L 27.4375 197.164062 C 27.4375 202.21875 31.539062 206.316406 36.605469 206.316406 C 41.667969 206.316406 45.769531 202.21875 45.769531 197.164062 L 45.769531 177.582031 C 45.769531 172.527344 41.667969 168.429688 36.605469 168.429688 Z M 36.605469 168.429688 " fill-opacity="1" fill-rule="nonzero"/></g><path fill="#8034f6" d="M 67.769531 142.363281 C 62.707031 142.363281 58.605469 146.460938 58.605469 151.515625 L 58.605469 223.230469 C 58.605469 228.285156 62.707031 232.382812 67.769531 232.382812 C 72.835938 232.382812 76.9375 228.285156 76.9375 223.230469 L 76.9375 151.515625 C 76.9375 146.460938 72.835938 142.363281 67.769531 142.363281 Z M 67.769531 142.363281 " fill-opacity="1" fill-rule="nonzero"/><path fill="#8034f6" d="M 98.9375 95.589844 C 93.875 95.589844 89.769531 99.6875 89.769531 104.742188 L 89.769531 270.003906 C 89.769531 275.058594 93.875 279.15625 98.9375 279.15625 C 104 279.15625 108.105469 275.058594 108.105469 270.003906 L 108.105469 104.742188 C 108.105469 99.6875 104 95.589844 98.9375 95.589844 Z M 98.9375 95.589844 " fill-opacity="1" fill-rule="nonzero"/><path fill="#8034f6" d="M 130.105469 135.054688 C 125.039062 135.054688 120.9375 139.148438 120.9375 144.203125 L 120.9375 230.542969 C 120.9375 235.597656 125.039062 239.691406 130.105469 239.691406 C 135.167969 239.691406 139.269531 235.597656 139.269531 230.542969 L 139.269531 144.203125 C 139.269531 139.148438 135.167969 135.054688 130.105469 135.054688 Z M 130.105469 135.054688 " fill-opacity="1" fill-rule="nonzero"/><g clip-path="url(#924c7667d6)"><path fill="#8034f6" d="M 161.269531 32.285156 C 156.207031 32.285156 152.105469 36.378906 152.105469 41.433594 L 152.105469 333.3125 C 152.105469 338.367188 156.207031 342.464844 161.269531 342.464844 C 166.335938 342.464844 170.4375 338.367188 170.4375 333.3125 L 170.4375 41.433594 C 170.4375 36.378906 166.335938 32.285156 161.269531 32.285156 Z M 161.269531 32.285156 " fill-opacity="1" fill-rule="nonzero"/></g><path fill="#8034f6" d="M 192.4375 73.210938 C 187.375 73.210938 183.269531 77.304688 183.269531 82.359375 L 183.269531 292.386719 C 183.269531 297.441406 187.375 301.539062 192.4375 301.539062 C 197.5 301.539062 201.605469 297.441406 201.605469 292.386719 L 201.605469 82.359375 C 201.605469 77.304688 197.5 73.210938 192.4375 73.210938 Z M 192.4375 73.210938 " fill-opacity="1" fill-rule="nonzero"/><path fill="#8034f6" d="M 223.605469 142.058594 C 218.539062 142.058594 214.4375 146.152344 214.4375 151.207031 L 214.4375 223.539062 C 214.4375 228.59375 218.539062 232.6875 223.605469 232.6875 C 228.667969 232.6875 232.769531 228.59375 232.769531 223.539062 L 232.769531 151.207031 C 232.769531 146.152344 228.667969 142.058594 223.605469 142.058594 Z M 223.605469 142.058594 " fill-opacity="1" fill-rule="nonzero"/><path fill="#8034f6" d="M 254.769531 61.957031 C 249.707031 61.957031 245.605469 66.054688 245.605469 71.109375 L 245.605469 303.636719 C 245.605469 308.691406 249.707031 312.789062 254.769531 312.789062 C 259.835938 312.789062 263.9375 308.691406 263.9375 303.636719 L 263.9375 71.109375 C 263.9375 66.054688 259.835938 61.957031 254.769531 61.957031 Z M 254.769531 61.957031 " fill-opacity="1" fill-rule="nonzero"/><path fill="#8034f6" d="M 285.9375 97.773438 C 280.875 97.773438 276.769531 101.871094 276.769531 106.925781 L 276.769531 267.820312 C 276.769531 272.875 280.875 276.96875 285.9375 276.96875 C 291 276.96875 295.105469 272.875 295.105469 267.820312 L 295.105469 106.925781 C 295.105469 101.871094 291 97.773438 285.9375 97.773438 Z M 285.9375 97.773438 " fill-opacity="1" fill-rule="nonzero"/><path fill="#8034f6" d="M 317.105469 151.988281 C 312.039062 151.988281 307.9375 156.085938 307.9375 161.140625 L 307.9375 213.605469 C 307.9375 218.660156 312.039062 222.753906 317.105469 222.753906 C 322.167969 222.753906 326.269531 218.660156 326.269531 213.605469 L 326.269531 161.140625 C 326.269531 156.085938 322.167969 151.988281 317.105469 151.988281 Z M 317.105469 151.988281 " fill-opacity="1" fill-rule="nonzero"/><g clip-path="url(#55d43cfccc)"><path fill="#8034f6" d="M 348.269531 168.429688 C 343.207031 168.429688 339.105469 172.527344 339.105469 177.582031 L 339.105469 197.164062 C 339.105469 202.21875 343.207031 206.316406 348.269531 206.316406 C 353.335938 206.316406 357.4375 202.21875 357.4375 197.164062 L 357.4375 177.582031 C 357.4375 172.527344 353.335938 168.429688 348.269531 168.429688 Z M 348.269531 168.429688 " fill-opacity="1" fill-rule="nonzero"/></g></svg>